<svg id="组_66" data-name="组 66" xmlns="http://www.w3.org/2000/svg" xmlns:xlink="http://www.w3.org/1999/xlink" width="258.578" height="258.578" viewBox="0 0 258.578 258.578">
  <defs>
    <clipPath id="clip-path">
      <path id="路径_1327" data-name="路径 1327" d="M1613.14-20.37c0,142.809,115.769,258.578,258.578,258.578V-20.37Z" transform="translate(-1613.14 20.37)" fill="none"/>
    </clipPath>
  </defs>
  <g id="组_65" data-name="组 65" clip-path="url(#clip-path)">
    <g id="组_64" data-name="组 64" transform="translate(-162.186 -224.138)">
      <g id="组_60" data-name="组 60">
        <path id="路径_927" data-name="路径 927" d="M1534.049-139.318a3.1,3.1,0,0,0-3.1,3.1,3.1,3.1,0,0,0,3.1,3.1,3.1,3.1,0,0,0,3.1-3.1A3.1,3.1,0,0,0,1534.049-139.318Z" transform="translate(-1438.022 263.224)" fill="#606060"/>
        <path id="路径_928" data-name="路径 928" d="M1497.289-176.078a3.1,3.1,0,0,0-3.1,3.1,3.1,3.1,0,0,0,3.1,3.1,3.1,3.1,0,0,0,3.1-3.1A3.1,3.1,0,0,0,1497.289-176.078Z" transform="translate(-1432.238 269.008)" fill="#606060"/>
        <path id="路径_929" data-name="路径 929" d="M1497.289-139.318a3.1,3.1,0,0,0-3.1,3.1,3.1,3.1,0,0,0,3.1,3.1,3.1,3.1,0,0,0,3.1-3.1A3.1,3.1,0,0,0,1497.289-139.318Z" transform="translate(-1432.238 263.224)" fill="#606060"/>
        <path id="路径_930" data-name="路径 930" d="M1497.289-212.839a3.1,3.1,0,0,0-3.1,3.1,3.1,3.1,0,0,0,3.1,3.1,3.1,3.1,0,0,0,3.1-3.1A3.1,3.1,0,0,0,1497.289-212.839Z" transform="translate(-1432.238 274.792)" fill="#606060"/>
        <path id="路径_931" data-name="路径 931" d="M1497.289-249.6a3.1,3.1,0,0,0-3.1,3.1,3.1,3.1,0,0,0,3.1,3.1,3.1,3.1,0,0,0,3.1-3.1A3.1,3.1,0,0,0,1497.289-249.6Z" transform="translate(-1432.238 280.576)" fill="#606060"/>
        <path id="路径_932" data-name="路径 932" d="M1497.289-286.36a3.1,3.1,0,0,0-3.1,3.1,3.1,3.1,0,0,0,3.1,3.1,3.1,3.1,0,0,0,3.1-3.1A3.1,3.1,0,0,0,1497.289-286.36Z" transform="translate(-1432.238 286.36)" fill="#606060"/>
        <path id="路径_933" data-name="路径 933" d="M1570.809-139.318a3.1,3.1,0,0,0-3.1,3.1,3.1,3.1,0,0,0,3.1,3.1,3.1,3.1,0,0,0,3.1-3.1A3.1,3.1,0,0,0,1570.809-139.318Z" transform="translate(-1443.806 263.224)" fill="#606060"/>
        <path id="路径_934" data-name="路径 934" d="M1570.809-212.839a3.1,3.1,0,0,0-3.1,3.1,3.1,3.1,0,0,0,3.1,3.1,3.1,3.1,0,0,0,3.1-3.1A3.1,3.1,0,0,0,1570.809-212.839Z" transform="translate(-1443.806 274.792)" fill="#606060"/>
        <path id="路径_935" data-name="路径 935" d="M1534.049-176.078a3.1,3.1,0,0,0-3.1,3.1,3.1,3.1,0,0,0,3.1,3.1,3.1,3.1,0,0,0,3.1-3.1A3.1,3.1,0,0,0,1534.049-176.078Z" transform="translate(-1438.022 269.008)" fill="#606060"/>
        <path id="路径_936" data-name="路径 936" d="M1570.809-176.078a3.1,3.1,0,0,0-3.1,3.1,3.1,3.1,0,0,0,3.1,3.1,3.1,3.1,0,0,0,3.1-3.1A3.1,3.1,0,0,0,1570.809-176.078Z" transform="translate(-1443.806 269.008)" fill="#606060"/>
        <path id="路径_937" data-name="路径 937" d="M1534.049-212.839a3.1,3.1,0,0,0-3.1,3.1,3.1,3.1,0,0,0,3.1,3.1,3.1,3.1,0,0,0,3.1-3.1A3.1,3.1,0,0,0,1534.049-212.839Z" transform="translate(-1438.022 274.792)" fill="#606060"/>
        <path id="路径_938" data-name="路径 938" d="M1534.049-249.6a3.1,3.1,0,0,0-3.1,3.1,3.1,3.1,0,0,0,3.1,3.1,3.1,3.1,0,0,0,3.1-3.1A3.1,3.1,0,0,0,1534.049-249.6Z" transform="translate(-1438.022 280.576)" fill="#606060"/>
        <path id="路径_939" data-name="路径 939" d="M1570.809-249.6a3.1,3.1,0,0,0-3.1,3.1,3.1,3.1,0,0,0,3.1,3.1,3.1,3.1,0,0,0,3.1-3.1A3.1,3.1,0,0,0,1570.809-249.6Z" transform="translate(-1443.806 280.576)" fill="#606060"/>
        <path id="路径_940" data-name="路径 940" d="M1534.049-286.36a3.1,3.1,0,0,0-3.1,3.1,3.1,3.1,0,0,0,3.1,3.1,3.1,3.1,0,0,0,3.1-3.1A3.1,3.1,0,0,0,1534.049-286.36Z" transform="translate(-1438.022 286.36)" fill="#606060"/>
        <path id="路径_941" data-name="路径 941" d="M1423.768-139.318a3.1,3.1,0,0,0-3.1,3.1,3.1,3.1,0,0,0,3.1,3.1,3.1,3.1,0,0,0,3.1-3.1A3.1,3.1,0,0,0,1423.768-139.318Z" transform="translate(-1420.67 263.224)" fill="#606060"/>
        <path id="路径_942" data-name="路径 942" d="M1423.768-176.078a3.1,3.1,0,0,0-3.1,3.1,3.1,3.1,0,0,0,3.1,3.1,3.1,3.1,0,0,0,3.1-3.1A3.1,3.1,0,0,0,1423.768-176.078Z" transform="translate(-1420.67 269.008)" fill="#606060"/>
        <path id="路径_943" data-name="路径 943" d="M1423.768-286.36a3.1,3.1,0,0,0-3.1,3.1,3.1,3.1,0,0,0,3.1,3.1,3.1,3.1,0,0,0,3.1-3.1A3.1,3.1,0,0,0,1423.768-286.36Z" transform="translate(-1420.67 286.36)" fill="#606060"/>
        <path id="路径_944" data-name="路径 944" d="M1423.768-249.6a3.1,3.1,0,0,0-3.1,3.1,3.1,3.1,0,0,0,3.1,3.1,3.1,3.1,0,0,0,3.1-3.1A3.1,3.1,0,0,0,1423.768-249.6Z" transform="translate(-1420.67 280.576)" fill="#606060"/>
        <path id="路径_945" data-name="路径 945" d="M1423.768-212.839a3.1,3.1,0,0,0-3.1,3.1,3.1,3.1,0,0,0,3.1,3.1,3.1,3.1,0,0,0,3.1-3.1A3.1,3.1,0,0,0,1423.768-212.839Z" transform="translate(-1420.67 274.792)" fill="#606060"/>
        <path id="路径_946" data-name="路径 946" d="M1754.611-280.165a3.1,3.1,0,0,0,3.1-3.1,3.1,3.1,0,0,0-3.1-3.1,3.1,3.1,0,0,0-3.1,3.1A3.1,3.1,0,0,0,1754.611-280.165Z" transform="translate(-1472.726 286.36)" fill="#606060"/>
        <path id="路径_947" data-name="路径 947" d="M1460.528-286.36a3.1,3.1,0,0,0-3.1,3.1,3.1,3.1,0,0,0,3.1,3.1,3.1,3.1,0,0,0,3.1-3.1A3.1,3.1,0,0,0,1460.528-286.36Z" transform="translate(-1426.454 286.36)" fill="#606060"/>
        <path id="路径_948" data-name="路径 948" d="M1460.528-249.6a3.1,3.1,0,0,0-3.1,3.1,3.1,3.1,0,0,0,3.1,3.1,3.1,3.1,0,0,0,3.1-3.1A3.1,3.1,0,0,0,1460.528-249.6Z" transform="translate(-1426.454 280.576)" fill="#606060"/>
        <path id="路径_949" data-name="路径 949" d="M1460.528-212.839a3.1,3.1,0,0,0-3.1,3.1,3.1,3.1,0,0,0,3.1,3.1,3.1,3.1,0,0,0,3.1-3.1A3.1,3.1,0,0,0,1460.528-212.839Z" transform="translate(-1426.454 274.792)" fill="#606060"/>
        <path id="路径_950" data-name="路径 950" d="M1460.528-176.078a3.1,3.1,0,0,0-3.1,3.1,3.1,3.1,0,0,0,3.1,3.1,3.1,3.1,0,0,0,3.1-3.1A3.1,3.1,0,0,0,1460.528-176.078Z" transform="translate(-1426.454 269.008)" fill="#606060"/>
        <path id="路径_951" data-name="路径 951" d="M1460.528-139.318a3.1,3.1,0,0,0-3.1,3.1,3.1,3.1,0,0,0,3.1,3.1,3.1,3.1,0,0,0,3.1-3.1A3.1,3.1,0,0,0,1460.528-139.318Z" transform="translate(-1426.454 263.224)" fill="#606060"/>
        <path id="路径_952" data-name="路径 952" d="M1681.09-139.318a3.1,3.1,0,0,0-3.1,3.1,3.1,3.1,0,0,0,3.1,3.1,3.1,3.1,0,0,0,3.1-3.1A3.1,3.1,0,0,0,1681.09-139.318Z" transform="translate(-1461.158 263.224)" fill="#606060"/>
        <path id="路径_953" data-name="路径 953" d="M1717.851-139.318a3.1,3.1,0,0,0-3.1,3.1,3.1,3.1,0,0,0,3.1,3.1,3.1,3.1,0,0,0,3.1-3.1A3.1,3.1,0,0,0,1717.851-139.318Z" transform="translate(-1466.942 263.224)" fill="#606060"/>
        <path id="路径_954" data-name="路径 954" d="M1717.851-176.078a3.1,3.1,0,0,0-3.1,3.1,3.1,3.1,0,0,0,3.1,3.1,3.1,3.1,0,0,0,3.1-3.1A3.1,3.1,0,0,0,1717.851-176.078Z" transform="translate(-1466.942 269.008)" fill="#606060"/>
        <path id="路径_955" data-name="路径 955" d="M1681.09-286.36a3.1,3.1,0,0,0-3.1,3.1,3.1,3.1,0,0,0,3.1,3.1,3.1,3.1,0,0,0,3.1-3.1A3.1,3.1,0,0,0,1681.09-286.36Z" transform="translate(-1461.158 286.36)" fill="#606060"/>
        <path id="路径_956" data-name="路径 956" d="M1681.09-212.839a3.1,3.1,0,0,0-3.1,3.1,3.1,3.1,0,0,0,3.1,3.1,3.1,3.1,0,0,0,3.1-3.1A3.1,3.1,0,0,0,1681.09-212.839Z" transform="translate(-1461.158 274.792)" fill="#606060"/>
        <path id="路径_957" data-name="路径 957" d="M1681.09-176.078a3.1,3.1,0,0,0-3.1,3.1,3.1,3.1,0,0,0,3.1,3.1,3.1,3.1,0,0,0,3.1-3.1A3.1,3.1,0,0,0,1681.09-176.078Z" transform="translate(-1461.158 269.008)" fill="#606060"/>
        <path id="路径_958" data-name="路径 958" d="M1681.09-249.6a3.1,3.1,0,0,0-3.1,3.1,3.1,3.1,0,0,0,3.1,3.1,3.1,3.1,0,0,0,3.1-3.1A3.1,3.1,0,0,0,1681.09-249.6Z" transform="translate(-1461.158 280.576)" fill="#606060"/>
        <path id="路径_959" data-name="路径 959" d="M1717.851-212.839a3.1,3.1,0,0,0-3.1,3.1,3.1,3.1,0,0,0,3.1,3.1,3.1,3.1,0,0,0,3.1-3.1A3.1,3.1,0,0,0,1717.851-212.839Z" transform="translate(-1466.942 274.792)" fill="#606060"/>
        <path id="路径_960" data-name="路径 960" d="M1570.809-286.36a3.1,3.1,0,0,0-3.1,3.1,3.1,3.1,0,0,0,3.1,3.1,3.1,3.1,0,0,0,3.1-3.1A3.1,3.1,0,0,0,1570.809-286.36Z" transform="translate(-1443.806 286.36)" fill="#606060"/>
        <path id="路径_961" data-name="路径 961" d="M1754.611-176.078a3.1,3.1,0,0,0-3.1,3.1,3.1,3.1,0,0,0,3.1,3.1,3.1,3.1,0,0,0,3.1-3.1A3.1,3.1,0,0,0,1754.611-176.078Z" transform="translate(-1472.726 269.008)" fill="#606060"/>
        <path id="路径_962" data-name="路径 962" d="M1754.611-249.6a3.1,3.1,0,0,0-3.1,3.1,3.1,3.1,0,0,0,3.1,3.1,3.1,3.1,0,0,0,3.1-3.1A3.1,3.1,0,0,0,1754.611-249.6Z" transform="translate(-1472.726 280.576)" fill="#606060"/>
        <path id="路径_963" data-name="路径 963" d="M1754.611-212.839a3.1,3.1,0,0,0-3.1,3.1,3.1,3.1,0,0,0,3.1,3.1,3.1,3.1,0,0,0,3.1-3.1A3.1,3.1,0,0,0,1754.611-212.839Z" transform="translate(-1472.726 274.792)" fill="#606060"/>
        <path id="路径_964" data-name="路径 964" d="M1717.851-249.6a3.1,3.1,0,0,0-3.1,3.1,3.1,3.1,0,0,0,3.1,3.1,3.1,3.1,0,0,0,3.1-3.1A3.1,3.1,0,0,0,1717.851-249.6Z" transform="translate(-1466.942 280.576)" fill="#606060"/>
        <path id="路径_965" data-name="路径 965" d="M1717.851-286.36a3.1,3.1,0,0,0-3.1,3.1,3.1,3.1,0,0,0,3.1,3.1,3.1,3.1,0,0,0,3.1-3.1A3.1,3.1,0,0,0,1717.851-286.36Z" transform="translate(-1466.942 286.36)" fill="#606060"/>
        <path id="路径_966" data-name="路径 966" d="M1754.611-139.318a3.1,3.1,0,0,0-3.1,3.1,3.1,3.1,0,0,0,3.1,3.1,3.1,3.1,0,0,0,3.1-3.1A3.1,3.1,0,0,0,1754.611-139.318Z" transform="translate(-1472.726 263.224)" fill="#606060"/>
        <path id="路径_967" data-name="路径 967" d="M1607.57-139.318a3.1,3.1,0,0,0-3.1,3.1,3.1,3.1,0,0,0,3.1,3.1,3.1,3.1,0,0,0,3.1-3.1A3.1,3.1,0,0,0,1607.57-139.318Z" transform="translate(-1449.59 263.224)" fill="#606060"/>
        <path id="路径_968" data-name="路径 968" d="M1607.57-212.839a3.1,3.1,0,0,0-3.1,3.1,3.1,3.1,0,0,0,3.1,3.1,3.1,3.1,0,0,0,3.1-3.1A3.1,3.1,0,0,0,1607.57-212.839Z" transform="translate(-1449.59 274.792)" fill="#606060"/>
        <path id="路径_969" data-name="路径 969" d="M1607.57-176.078a3.1,3.1,0,0,0-3.1,3.1,3.1,3.1,0,0,0,3.1,3.1,3.1,3.1,0,0,0,3.1-3.1A3.1,3.1,0,0,0,1607.57-176.078Z" transform="translate(-1449.59 269.008)" fill="#606060"/>
        <path id="路径_970" data-name="路径 970" d="M1607.57-286.36a3.1,3.1,0,0,0-3.1,3.1,3.1,3.1,0,0,0,3.1,3.1,3.1,3.1,0,0,0,3.1-3.1A3.1,3.1,0,0,0,1607.57-286.36Z" transform="translate(-1449.59 286.36)" fill="#606060"/>
        <path id="路径_971" data-name="路径 971" d="M1607.57-249.6a3.1,3.1,0,0,0-3.1,3.1,3.1,3.1,0,0,0,3.1,3.1,3.1,3.1,0,0,0,3.1-3.1A3.1,3.1,0,0,0,1607.57-249.6Z" transform="translate(-1449.59 280.576)" fill="#606060"/>
        <path id="路径_972" data-name="路径 972" d="M1644.329-286.36a3.1,3.1,0,0,0-3.1,3.1,3.1,3.1,0,0,0,3.1,3.1,3.1,3.1,0,0,0,3.1-3.1A3.1,3.1,0,0,0,1644.329-286.36Z" transform="translate(-1455.374 286.36)" fill="#606060"/>
        <path id="路径_973" data-name="路径 973" d="M1644.329-249.6a3.1,3.1,0,0,0-3.1,3.1,3.1,3.1,0,0,0,3.1,3.1,3.1,3.1,0,0,0,3.1-3.1A3.1,3.1,0,0,0,1644.329-249.6Z" transform="translate(-1455.374 280.576)" fill="#606060"/>
        <path id="路径_974" data-name="路径 974" d="M1644.329-212.839a3.1,3.1,0,0,0-3.1,3.1,3.1,3.1,0,0,0,3.1,3.1,3.1,3.1,0,0,0,3.1-3.1A3.1,3.1,0,0,0,1644.329-212.839Z" transform="translate(-1455.374 274.792)" fill="#606060"/>
        <path id="路径_975" data-name="路径 975" d="M1644.329-176.078a3.1,3.1,0,0,0-3.1,3.1,3.1,3.1,0,0,0,3.1,3.1,3.1,3.1,0,0,0,3.1-3.1A3.1,3.1,0,0,0,1644.329-176.078Z" transform="translate(-1455.374 269.008)" fill="#606060"/>
        <path id="路径_976" data-name="路径 976" d="M1644.329-139.318a3.1,3.1,0,0,0-3.1,3.1,3.1,3.1,0,0,0,3.1,3.1,3.1,3.1,0,0,0,3.1-3.1A3.1,3.1,0,0,0,1644.329-139.318Z" transform="translate(-1455.374 263.224)" fill="#606060"/>
        <path id="路径_977" data-name="路径 977" d="M1534.049,44.069a3.1,3.1,0,1,0,3.1,3.1A3.1,3.1,0,0,0,1534.049,44.069Z" transform="translate(-1438.022 234.369)" fill="#606060"/>
        <path id="路径_978" data-name="路径 978" d="M1497.289,7.308a3.1,3.1,0,1,0,3.1,3.1A3.1,3.1,0,0,0,1497.289,7.308Z" transform="translate(-1432.238 240.154)" fill="#606060"/>
        <path id="路径_979" data-name="路径 979" d="M1497.289,44.069a3.1,3.1,0,1,0,3.1,3.1A3.1,3.1,0,0,0,1497.289,44.069Z" transform="translate(-1432.238 234.369)" fill="#606060"/>
        <path id="路径_980" data-name="路径 980" d="M1497.289-29.452a3.1,3.1,0,0,0-3.1,3.1,3.1,3.1,0,0,0,3.1,3.1,3.1,3.1,0,0,0,3.1-3.1A3.1,3.1,0,0,0,1497.289-29.452Z" transform="translate(-1432.238 245.937)" fill="#606060"/>
        <path id="路径_981" data-name="路径 981" d="M1497.289-66.213a3.1,3.1,0,0,0-3.1,3.1,3.1,3.1,0,0,0,3.1,3.1,3.1,3.1,0,0,0,3.1-3.1A3.1,3.1,0,0,0,1497.289-66.213Z" transform="translate(-1432.238 251.722)" fill="#606060"/>
        <path id="路径_982" data-name="路径 982" d="M1497.289-102.973a3.1,3.1,0,0,0-3.1,3.1,3.1,3.1,0,0,0,3.1,3.1,3.1,3.1,0,0,0,3.1-3.1A3.1,3.1,0,0,0,1497.289-102.973Z" transform="translate(-1432.238 257.505)" fill="#606060"/>
        <path id="路径_983" data-name="路径 983" d="M1570.809,44.069a3.1,3.1,0,1,0,3.1,3.1A3.1,3.1,0,0,0,1570.809,44.069Z" transform="translate(-1443.806 234.369)" fill="#606060"/>
        <path id="路径_984" data-name="路径 984" d="M1570.809-29.452a3.1,3.1,0,0,0-3.1,3.1,3.1,3.1,0,0,0,3.1,3.1,3.1,3.1,0,0,0,3.1-3.1A3.1,3.1,0,0,0,1570.809-29.452Z" transform="translate(-1443.806 245.937)" fill="#606060"/>
        <path id="路径_985" data-name="路径 985" d="M1534.049,7.308a3.1,3.1,0,1,0,3.1,3.1A3.1,3.1,0,0,0,1534.049,7.308Z" transform="translate(-1438.022 240.154)" fill="#606060"/>
        <path id="路径_986" data-name="路径 986" d="M1570.809,7.308a3.1,3.1,0,1,0,3.1,3.1A3.1,3.1,0,0,0,1570.809,7.308Z" transform="translate(-1443.806 240.154)" fill="#606060"/>
        <path id="路径_987" data-name="路径 987" d="M1534.049-29.452a3.1,3.1,0,0,0-3.1,3.1,3.1,3.1,0,0,0,3.1,3.1,3.1,3.1,0,0,0,3.1-3.1A3.1,3.1,0,0,0,1534.049-29.452Z" transform="translate(-1438.022 245.937)" fill="#606060"/>
        <path id="路径_988" data-name="路径 988" d="M1534.049-66.213a3.1,3.1,0,0,0-3.1,3.1,3.1,3.1,0,0,0,3.1,3.1,3.1,3.1,0,0,0,3.1-3.1A3.1,3.1,0,0,0,1534.049-66.213Z" transform="translate(-1438.022 251.722)" fill="#606060"/>
        <path id="路径_989" data-name="路径 989" d="M1570.809-66.213a3.1,3.1,0,0,0-3.1,3.1,3.1,3.1,0,0,0,3.1,3.1,3.1,3.1,0,0,0,3.1-3.1A3.1,3.1,0,0,0,1570.809-66.213Z" transform="translate(-1443.806 251.722)" fill="#606060"/>
        <path id="路径_990" data-name="路径 990" d="M1534.049-102.973a3.1,3.1,0,0,0-3.1,3.1,3.1,3.1,0,0,0,3.1,3.1,3.1,3.1,0,0,0,3.1-3.1A3.1,3.1,0,0,0,1534.049-102.973Z" transform="translate(-1438.022 257.505)" fill="#606060"/>
        <path id="路径_991" data-name="路径 991" d="M1423.768,44.069a3.1,3.1,0,1,0,3.1,3.1A3.1,3.1,0,0,0,1423.768,44.069Z" transform="translate(-1420.67 234.369)" fill="#606060"/>
        <path id="路径_992" data-name="路径 992" d="M1423.768,7.308a3.1,3.1,0,1,0,3.1,3.1A3.1,3.1,0,0,0,1423.768,7.308Z" transform="translate(-1420.67 240.154)" fill="#606060"/>
        <path id="路径_993" data-name="路径 993" d="M1423.768-102.973a3.1,3.1,0,0,0-3.1,3.1,3.1,3.1,0,0,0,3.1,3.1,3.1,3.1,0,0,0,3.1-3.1A3.1,3.1,0,0,0,1423.768-102.973Z" transform="translate(-1420.67 257.505)" fill="#606060"/>
        <path id="路径_994" data-name="路径 994" d="M1423.768-66.213a3.1,3.1,0,0,0-3.1,3.1,3.1,3.1,0,0,0,3.1,3.1,3.1,3.1,0,0,0,3.1-3.1A3.1,3.1,0,0,0,1423.768-66.213Z" transform="translate(-1420.67 251.722)" fill="#606060"/>
        <path id="路径_995" data-name="路径 995" d="M1423.768-29.452a3.1,3.1,0,0,0-3.1,3.1,3.1,3.1,0,0,0,3.1,3.1,3.1,3.1,0,0,0,3.1-3.1A3.1,3.1,0,0,0,1423.768-29.452Z" transform="translate(-1420.67 245.937)" fill="#606060"/>
        <path id="路径_996" data-name="路径 996" d="M1754.611-96.778a3.1,3.1,0,0,0,3.1-3.1,3.1,3.1,0,0,0-3.1-3.1,3.1,3.1,0,0,0-3.1,3.1A3.1,3.1,0,0,0,1754.611-96.778Z" transform="translate(-1472.726 257.505)" fill="#606060"/>
        <path id="路径_997" data-name="路径 997" d="M1460.528-102.973a3.1,3.1,0,0,0-3.1,3.1,3.1,3.1,0,0,0,3.1,3.1,3.1,3.1,0,0,0,3.1-3.1A3.1,3.1,0,0,0,1460.528-102.973Z" transform="translate(-1426.454 257.505)" fill="#606060"/>
        <path id="路径_998" data-name="路径 998" d="M1460.528-66.213a3.1,3.1,0,0,0-3.1,3.1,3.1,3.1,0,0,0,3.1,3.1,3.1,3.1,0,0,0,3.1-3.1A3.1,3.1,0,0,0,1460.528-66.213Z" transform="translate(-1426.454 251.722)" fill="#606060"/>
        <path id="路径_999" data-name="路径 999" d="M1460.528-29.452a3.1,3.1,0,0,0-3.1,3.1,3.1,3.1,0,0,0,3.1,3.1,3.1,3.1,0,0,0,3.1-3.1A3.1,3.1,0,0,0,1460.528-29.452Z" transform="translate(-1426.454 245.937)" fill="#606060"/>
        <path id="路径_1000" data-name="路径 1000" d="M1460.528,7.308a3.1,3.1,0,1,0,3.1,3.1A3.1,3.1,0,0,0,1460.528,7.308Z" transform="translate(-1426.454 240.154)" fill="#606060"/>
        <path id="路径_1001" data-name="路径 1001" d="M1460.528,44.069a3.1,3.1,0,1,0,3.1,3.1A3.1,3.1,0,0,0,1460.528,44.069Z" transform="translate(-1426.454 234.369)" fill="#606060"/>
        <path id="路径_1002" data-name="路径 1002" d="M1681.09,44.069a3.1,3.1,0,1,0,3.1,3.1A3.1,3.1,0,0,0,1681.09,44.069Z" transform="translate(-1461.158 234.369)" fill="#606060"/>
        <path id="路径_1003" data-name="路径 1003" d="M1717.851,44.069a3.1,3.1,0,1,0,3.1,3.1A3.1,3.1,0,0,0,1717.851,44.069Z" transform="translate(-1466.942 234.369)" fill="#606060"/>
        <path id="路径_1004" data-name="路径 1004" d="M1717.851,7.308a3.1,3.1,0,1,0,3.1,3.1A3.1,3.1,0,0,0,1717.851,7.308Z" transform="translate(-1466.942 240.154)" fill="#606060"/>
        <path id="路径_1005" data-name="路径 1005" d="M1681.09-102.973a3.1,3.1,0,0,0-3.1,3.1,3.1,3.1,0,0,0,3.1,3.1,3.1,3.1,0,0,0,3.1-3.1A3.1,3.1,0,0,0,1681.09-102.973Z" transform="translate(-1461.158 257.505)" fill="#606060"/>
        <path id="路径_1006" data-name="路径 1006" d="M1681.09-29.452a3.1,3.1,0,0,0-3.1,3.1,3.1,3.1,0,0,0,3.1,3.1,3.1,3.1,0,0,0,3.1-3.1A3.1,3.1,0,0,0,1681.09-29.452Z" transform="translate(-1461.158 245.937)" fill="#606060"/>
        <path id="路径_1007" data-name="路径 1007" d="M1681.09,7.308a3.1,3.1,0,1,0,3.1,3.1A3.1,3.1,0,0,0,1681.09,7.308Z" transform="translate(-1461.158 240.154)" fill="#606060"/>
        <path id="路径_1008" data-name="路径 1008" d="M1681.09-66.213a3.1,3.1,0,0,0-3.1,3.1,3.1,3.1,0,0,0,3.1,3.1,3.1,3.1,0,0,0,3.1-3.1A3.1,3.1,0,0,0,1681.09-66.213Z" transform="translate(-1461.158 251.722)" fill="#606060"/>
        <path id="路径_1009" data-name="路径 1009" d="M1717.851-29.452a3.1,3.1,0,0,0-3.1,3.1,3.1,3.1,0,0,0,3.1,3.1,3.1,3.1,0,0,0,3.1-3.1A3.1,3.1,0,0,0,1717.851-29.452Z" transform="translate(-1466.942 245.937)" fill="#606060"/>
        <path id="路径_1010" data-name="路径 1010" d="M1570.809-102.973a3.1,3.1,0,0,0-3.1,3.1,3.1,3.1,0,0,0,3.1,3.1,3.1,3.1,0,0,0,3.1-3.1A3.1,3.1,0,0,0,1570.809-102.973Z" transform="translate(-1443.806 257.505)" fill="#606060"/>
        <path id="路径_1011" data-name="路径 1011" d="M1754.611,7.308a3.1,3.1,0,1,0,3.1,3.1A3.1,3.1,0,0,0,1754.611,7.308Z" transform="translate(-1472.726 240.154)" fill="#606060"/>
        <path id="路径_1012" data-name="路径 1012" d="M1754.611-66.213a3.1,3.1,0,0,0-3.1,3.1,3.1,3.1,0,0,0,3.1,3.1,3.1,3.1,0,0,0,3.1-3.1A3.1,3.1,0,0,0,1754.611-66.213Z" transform="translate(-1472.726 251.722)" fill="#606060"/>
        <path id="路径_1013" data-name="路径 1013" d="M1754.611-29.452a3.1,3.1,0,0,0-3.1,3.1,3.1,3.1,0,0,0,3.1,3.1,3.1,3.1,0,0,0,3.1-3.1A3.1,3.1,0,0,0,1754.611-29.452Z" transform="translate(-1472.726 245.937)" fill="#606060"/>
        <path id="路径_1014" data-name="路径 1014" d="M1717.851-66.213a3.1,3.1,0,0,0-3.1,3.1,3.1,3.1,0,0,0,3.1,3.1,3.1,3.1,0,0,0,3.1-3.1A3.1,3.1,0,0,0,1717.851-66.213Z" transform="translate(-1466.942 251.722)" fill="#606060"/>
        <path id="路径_1015" data-name="路径 1015" d="M1717.851-102.973a3.1,3.1,0,0,0-3.1,3.1,3.1,3.1,0,0,0,3.1,3.1,3.1,3.1,0,0,0,3.1-3.1A3.1,3.1,0,0,0,1717.851-102.973Z" transform="translate(-1466.942 257.505)" fill="#606060"/>
        <path id="路径_1016" data-name="路径 1016" d="M1754.611,44.069a3.1,3.1,0,1,0,3.1,3.1A3.1,3.1,0,0,0,1754.611,44.069Z" transform="translate(-1472.726 234.369)" fill="#606060"/>
        <path id="路径_1017" data-name="路径 1017" d="M1607.57,44.069a3.1,3.1,0,1,0,3.1,3.1A3.1,3.1,0,0,0,1607.57,44.069Z" transform="translate(-1449.59 234.369)" fill="#606060"/>
        <path id="路径_1018" data-name="路径 1018" d="M1607.57-29.452a3.1,3.1,0,0,0-3.1,3.1,3.1,3.1,0,0,0,3.1,3.1,3.1,3.1,0,0,0,3.1-3.1A3.1,3.1,0,0,0,1607.57-29.452Z" transform="translate(-1449.59 245.937)" fill="#606060"/>
        <path id="路径_1019" data-name="路径 1019" d="M1607.57,7.308a3.1,3.1,0,1,0,3.1,3.1A3.1,3.1,0,0,0,1607.57,7.308Z" transform="translate(-1449.59 240.154)" fill="#606060"/>
        <path id="路径_1020" data-name="路径 1020" d="M1607.57-102.973a3.1,3.1,0,0,0-3.1,3.1,3.1,3.1,0,0,0,3.1,3.1,3.1,3.1,0,0,0,3.1-3.1A3.1,3.1,0,0,0,1607.57-102.973Z" transform="translate(-1449.59 257.505)" fill="#606060"/>
        <path id="路径_1021" data-name="路径 1021" d="M1607.57-66.213a3.1,3.1,0,0,0-3.1,3.1,3.1,3.1,0,0,0,3.1,3.1,3.1,3.1,0,0,0,3.1-3.1A3.1,3.1,0,0,0,1607.57-66.213Z" transform="translate(-1449.59 251.722)" fill="#606060"/>
        <path id="路径_1022" data-name="路径 1022" d="M1644.329-102.973a3.1,3.1,0,0,0-3.1,3.1,3.1,3.1,0,0,0,3.1,3.1,3.1,3.1,0,0,0,3.1-3.1A3.1,3.1,0,0,0,1644.329-102.973Z" transform="translate(-1455.374 257.505)" fill="#606060"/>
        <path id="路径_1023" data-name="路径 1023" d="M1644.329-66.213a3.1,3.1,0,0,0-3.1,3.1,3.1,3.1,0,0,0,3.1,3.1,3.1,3.1,0,0,0,3.1-3.1A3.1,3.1,0,0,0,1644.329-66.213Z" transform="translate(-1455.374 251.722)" fill="#606060"/>
        <path id="路径_1024" data-name="路径 1024" d="M1644.329-29.452a3.1,3.1,0,0,0-3.1,3.1,3.1,3.1,0,0,0,3.1,3.1,3.1,3.1,0,0,0,3.1-3.1A3.1,3.1,0,0,0,1644.329-29.452Z" transform="translate(-1455.374 245.937)" fill="#606060"/>
        <path id="路径_1025" data-name="路径 1025" d="M1644.329,7.308a3.1,3.1,0,1,0,3.1,3.1A3.1,3.1,0,0,0,1644.329,7.308Z" transform="translate(-1455.374 240.154)" fill="#606060"/>
        <path id="路径_1026" data-name="路径 1026" d="M1644.329,44.069a3.1,3.1,0,1,0,3.1,3.1A3.1,3.1,0,0,0,1644.329,44.069Z" transform="translate(-1455.374 234.369)" fill="#606060"/>
      </g>
      <g id="组_61" data-name="组 61" transform="translate(309.554)">
        <path id="路径_1027" data-name="路径 1027" d="M1901.4-139.318a3.1,3.1,0,0,0-3.1,3.1,3.1,3.1,0,0,0,3.1,3.1,3.1,3.1,0,0,0,3.1-3.1A3.1,3.1,0,0,0,1901.4-139.318Z" transform="translate(-1805.376 263.224)" fill="#606060"/>
        <path id="路径_1028" data-name="路径 1028" d="M1864.643-176.078a3.1,3.1,0,0,0-3.1,3.1,3.1,3.1,0,0,0,3.1,3.1,3.1,3.1,0,0,0,3.1-3.1A3.1,3.1,0,0,0,1864.643-176.078Z" transform="translate(-1799.592 269.008)" fill="#606060"/>
        <path id="路径_1029" data-name="路径 1029" d="M1864.643-139.318a3.1,3.1,0,0,0-3.1,3.1,3.1,3.1,0,0,0,3.1,3.1,3.1,3.1,0,0,0,3.1-3.1A3.1,3.1,0,0,0,1864.643-139.318Z" transform="translate(-1799.592 263.224)" fill="#606060"/>
        <path id="路径_1030" data-name="路径 1030" d="M1864.643-212.839a3.1,3.1,0,0,0-3.1,3.1,3.1,3.1,0,0,0,3.1,3.1,3.1,3.1,0,0,0,3.1-3.1A3.1,3.1,0,0,0,1864.643-212.839Z" transform="translate(-1799.592 274.792)" fill="#606060"/>
        <path id="路径_1031" data-name="路径 1031" d="M1864.643-249.6a3.1,3.1,0,0,0-3.1,3.1,3.1,3.1,0,0,0,3.1,3.1,3.1,3.1,0,0,0,3.1-3.1A3.1,3.1,0,0,0,1864.643-249.6Z" transform="translate(-1799.592 280.576)" fill="#606060"/>
        <path id="路径_1032" data-name="路径 1032" d="M1864.643-286.36a3.1,3.1,0,0,0-3.1,3.1,3.1,3.1,0,0,0,3.1,3.1,3.1,3.1,0,0,0,3.1-3.1A3.1,3.1,0,0,0,1864.643-286.36Z" transform="translate(-1799.592 286.36)" fill="#606060"/>
        <path id="路径_1033" data-name="路径 1033" d="M1938.164-139.318a3.1,3.1,0,0,0-3.1,3.1,3.1,3.1,0,0,0,3.1,3.1,3.1,3.1,0,0,0,3.1-3.1A3.1,3.1,0,0,0,1938.164-139.318Z" transform="translate(-1811.16 263.224)" fill="#606060"/>
        <path id="路径_1034" data-name="路径 1034" d="M1938.164-212.839a3.1,3.1,0,0,0-3.1,3.1,3.1,3.1,0,0,0,3.1,3.1,3.1,3.1,0,0,0,3.1-3.1A3.1,3.1,0,0,0,1938.164-212.839Z" transform="translate(-1811.16 274.792)" fill="#606060"/>
        <path id="路径_1035" data-name="路径 1035" d="M1901.4-176.078a3.1,3.1,0,0,0-3.1,3.1,3.1,3.1,0,0,0,3.1,3.1,3.1,3.1,0,0,0,3.1-3.1A3.1,3.1,0,0,0,1901.4-176.078Z" transform="translate(-1805.376 269.008)" fill="#606060"/>
        <path id="路径_1036" data-name="路径 1036" d="M1938.164-176.078a3.1,3.1,0,0,0-3.1,3.1,3.1,3.1,0,0,0,3.1,3.1,3.1,3.1,0,0,0,3.1-3.1A3.1,3.1,0,0,0,1938.164-176.078Z" transform="translate(-1811.16 269.008)" fill="#606060"/>
        <path id="路径_1037" data-name="路径 1037" d="M1901.4-212.839a3.1,3.1,0,0,0-3.1,3.1,3.1,3.1,0,0,0,3.1,3.1,3.1,3.1,0,0,0,3.1-3.1A3.1,3.1,0,0,0,1901.4-212.839Z" transform="translate(-1805.376 274.792)" fill="#606060"/>
        <path id="路径_1038" data-name="路径 1038" d="M1901.4-249.6a3.1,3.1,0,0,0-3.1,3.1,3.1,3.1,0,0,0,3.1,3.1,3.1,3.1,0,0,0,3.1-3.1A3.1,3.1,0,0,0,1901.4-249.6Z" transform="translate(-1805.376 280.576)" fill="#606060"/>
        <path id="路径_1039" data-name="路径 1039" d="M1938.164-249.6a3.1,3.1,0,0,0-3.1,3.1,3.1,3.1,0,0,0,3.1,3.1,3.1,3.1,0,0,0,3.1-3.1A3.1,3.1,0,0,0,1938.164-249.6Z" transform="translate(-1811.16 280.576)" fill="#606060"/>
        <path id="路径_1040" data-name="路径 1040" d="M1901.4-286.36a3.1,3.1,0,0,0-3.1,3.1,3.1,3.1,0,0,0,3.1,3.1,3.1,3.1,0,0,0,3.1-3.1A3.1,3.1,0,0,0,1901.4-286.36Z" transform="translate(-1805.376 286.36)" fill="#606060"/>
        <path id="路径_1041" data-name="路径 1041" d="M1791.122-139.318a3.1,3.1,0,0,0-3.1,3.1,3.1,3.1,0,0,0,3.1,3.1,3.1,3.1,0,0,0,3.1-3.1A3.1,3.1,0,0,0,1791.122-139.318Z" transform="translate(-1788.024 263.224)" fill="#606060"/>
        <path id="路径_1042" data-name="路径 1042" d="M1791.122-176.078a3.1,3.1,0,0,0-3.1,3.1,3.1,3.1,0,0,0,3.1,3.1,3.1,3.1,0,0,0,3.1-3.1A3.1,3.1,0,0,0,1791.122-176.078Z" transform="translate(-1788.024 269.008)" fill="#606060"/>
        <path id="路径_1043" data-name="路径 1043" d="M1791.122-286.36a3.1,3.1,0,0,0-3.1,3.1,3.1,3.1,0,0,0,3.1,3.1,3.1,3.1,0,0,0,3.1-3.1A3.1,3.1,0,0,0,1791.122-286.36Z" transform="translate(-1788.024 286.36)" fill="#606060"/>
        <path id="路径_1044" data-name="路径 1044" d="M1791.122-249.6a3.1,3.1,0,0,0-3.1,3.1,3.1,3.1,0,0,0,3.1,3.1,3.1,3.1,0,0,0,3.1-3.1A3.1,3.1,0,0,0,1791.122-249.6Z" transform="translate(-1788.024 280.576)" fill="#606060"/>
        <path id="路径_1045" data-name="路径 1045" d="M1791.122-212.839a3.1,3.1,0,0,0-3.1,3.1,3.1,3.1,0,0,0,3.1,3.1,3.1,3.1,0,0,0,3.1-3.1A3.1,3.1,0,0,0,1791.122-212.839Z" transform="translate(-1788.024 274.792)" fill="#606060"/>
        <path id="路径_1046" data-name="路径 1046" d="M2121.966-280.165a3.1,3.1,0,0,0,3.1-3.1,3.1,3.1,0,0,0-3.1-3.1,3.1,3.1,0,0,0-3.1,3.1A3.1,3.1,0,0,0,2121.966-280.165Z" transform="translate(-1840.08 286.36)" fill="#606060"/>
        <path id="路径_1047" data-name="路径 1047" d="M1827.883-286.36a3.1,3.1,0,0,0-3.1,3.1,3.1,3.1,0,0,0,3.1,3.1,3.1,3.1,0,0,0,3.1-3.1A3.1,3.1,0,0,0,1827.883-286.36Z" transform="translate(-1793.808 286.36)" fill="#606060"/>
        <path id="路径_1048" data-name="路径 1048" d="M1827.883-249.6a3.1,3.1,0,0,0-3.1,3.1,3.1,3.1,0,0,0,3.1,3.1,3.1,3.1,0,0,0,3.1-3.1A3.1,3.1,0,0,0,1827.883-249.6Z" transform="translate(-1793.808 280.576)" fill="#606060"/>
        <path id="路径_1049" data-name="路径 1049" d="M1827.883-212.839a3.1,3.1,0,0,0-3.1,3.1,3.1,3.1,0,0,0,3.1,3.1,3.1,3.1,0,0,0,3.1-3.1A3.1,3.1,0,0,0,1827.883-212.839Z" transform="translate(-1793.808 274.792)" fill="#606060"/>
        <path id="路径_1050" data-name="路径 1050" d="M1827.883-176.078a3.1,3.1,0,0,0-3.1,3.1,3.1,3.1,0,0,0,3.1,3.1,3.1,3.1,0,0,0,3.1-3.1A3.1,3.1,0,0,0,1827.883-176.078Z" transform="translate(-1793.808 269.008)" fill="#606060"/>
        <path id="路径_1051" data-name="路径 1051" d="M1827.883-139.318a3.1,3.1,0,0,0-3.1,3.1,3.1,3.1,0,0,0,3.1,3.1,3.1,3.1,0,0,0,3.1-3.1A3.1,3.1,0,0,0,1827.883-139.318Z" transform="translate(-1793.808 263.224)" fill="#606060"/>
        <path id="路径_1052" data-name="路径 1052" d="M2048.445-139.318a3.1,3.1,0,0,0-3.1,3.1,3.1,3.1,0,0,0,3.1,3.1,3.1,3.1,0,0,0,3.1-3.1A3.1,3.1,0,0,0,2048.445-139.318Z" transform="translate(-1828.512 263.224)" fill="#606060"/>
        <path id="路径_1053" data-name="路径 1053" d="M2085.206-139.318a3.1,3.1,0,0,0-3.1,3.1,3.1,3.1,0,0,0,3.1,3.1,3.1,3.1,0,0,0,3.1-3.1A3.1,3.1,0,0,0,2085.206-139.318Z" transform="translate(-1834.296 263.224)" fill="#606060"/>
        <path id="路径_1054" data-name="路径 1054" d="M2085.206-176.078a3.1,3.1,0,0,0-3.1,3.1,3.1,3.1,0,0,0,3.1,3.1,3.1,3.1,0,0,0,3.1-3.1A3.1,3.1,0,0,0,2085.206-176.078Z" transform="translate(-1834.296 269.008)" fill="#606060"/>
        <path id="路径_1055" data-name="路径 1055" d="M2048.445-286.36a3.1,3.1,0,0,0-3.1,3.1,3.1,3.1,0,0,0,3.1,3.1,3.1,3.1,0,0,0,3.1-3.1A3.1,3.1,0,0,0,2048.445-286.36Z" transform="translate(-1828.512 286.36)" fill="#606060"/>
        <path id="路径_1056" data-name="路径 1056" d="M2048.445-212.839a3.1,3.1,0,0,0-3.1,3.1,3.1,3.1,0,0,0,3.1,3.1,3.1,3.1,0,0,0,3.1-3.1A3.1,3.1,0,0,0,2048.445-212.839Z" transform="translate(-1828.512 274.792)" fill="#606060"/>
        <path id="路径_1057" data-name="路径 1057" d="M2048.445-176.078a3.1,3.1,0,0,0-3.1,3.1,3.1,3.1,0,0,0,3.1,3.1,3.1,3.1,0,0,0,3.1-3.1A3.1,3.1,0,0,0,2048.445-176.078Z" transform="translate(-1828.512 269.008)" fill="#606060"/>
        <path id="路径_1058" data-name="路径 1058" d="M2048.445-249.6a3.1,3.1,0,0,0-3.1,3.1,3.1,3.1,0,0,0,3.1,3.1,3.1,3.1,0,0,0,3.1-3.1A3.1,3.1,0,0,0,2048.445-249.6Z" transform="translate(-1828.512 280.576)" fill="#606060"/>
        <path id="路径_1059" data-name="路径 1059" d="M2085.206-212.839a3.1,3.1,0,0,0-3.1,3.1,3.1,3.1,0,0,0,3.1,3.1,3.1,3.1,0,0,0,3.1-3.1A3.1,3.1,0,0,0,2085.206-212.839Z" transform="translate(-1834.296 274.792)" fill="#606060"/>
        <path id="路径_1060" data-name="路径 1060" d="M1938.164-286.36a3.1,3.1,0,0,0-3.1,3.1,3.1,3.1,0,0,0,3.1,3.1,3.1,3.1,0,0,0,3.1-3.1A3.1,3.1,0,0,0,1938.164-286.36Z" transform="translate(-1811.16 286.36)" fill="#606060"/>
        <path id="路径_1061" data-name="路径 1061" d="M2121.966-176.078a3.1,3.1,0,0,0-3.1,3.1,3.1,3.1,0,0,0,3.1,3.1,3.1,3.1,0,0,0,3.1-3.1A3.1,3.1,0,0,0,2121.966-176.078Z" transform="translate(-1840.08 269.008)" fill="#606060"/>
        <path id="路径_1062" data-name="路径 1062" d="M2121.966-249.6a3.1,3.1,0,0,0-3.1,3.1,3.1,3.1,0,0,0,3.1,3.1,3.1,3.1,0,0,0,3.1-3.1A3.1,3.1,0,0,0,2121.966-249.6Z" transform="translate(-1840.08 280.576)" fill="#606060"/>
        <path id="路径_1063" data-name="路径 1063" d="M2121.966-212.839a3.1,3.1,0,0,0-3.1,3.1,3.1,3.1,0,0,0,3.1,3.1,3.1,3.1,0,0,0,3.1-3.1A3.1,3.1,0,0,0,2121.966-212.839Z" transform="translate(-1840.08 274.792)" fill="#606060"/>
        <path id="路径_1064" data-name="路径 1064" d="M2085.206-249.6a3.1,3.1,0,0,0-3.1,3.1,3.1,3.1,0,0,0,3.1,3.1,3.1,3.1,0,0,0,3.1-3.1A3.1,3.1,0,0,0,2085.206-249.6Z" transform="translate(-1834.296 280.576)" fill="#606060"/>
        <path id="路径_1065" data-name="路径 1065" d="M2085.206-286.36a3.1,3.1,0,0,0-3.1,3.1,3.1,3.1,0,0,0,3.1,3.1,3.1,3.1,0,0,0,3.1-3.1A3.1,3.1,0,0,0,2085.206-286.36Z" transform="translate(-1834.296 286.36)" fill="#606060"/>
        <path id="路径_1066" data-name="路径 1066" d="M2121.966-139.318a3.1,3.1,0,0,0-3.1,3.1,3.1,3.1,0,0,0,3.1,3.1,3.1,3.1,0,0,0,3.1-3.1A3.1,3.1,0,0,0,2121.966-139.318Z" transform="translate(-1840.08 263.224)" fill="#606060"/>
        <path id="路径_1067" data-name="路径 1067" d="M1974.923-139.318a3.1,3.1,0,0,0-3.1,3.1,3.1,3.1,0,0,0,3.1,3.1,3.1,3.1,0,0,0,3.1-3.1A3.1,3.1,0,0,0,1974.923-139.318Z" transform="translate(-1816.944 263.224)" fill="#606060"/>
        <path id="路径_1068" data-name="路径 1068" d="M1974.923-212.839a3.1,3.1,0,0,0-3.1,3.1,3.1,3.1,0,0,0,3.1,3.1,3.1,3.1,0,0,0,3.1-3.1A3.1,3.1,0,0,0,1974.923-212.839Z" transform="translate(-1816.944 274.792)" fill="#606060"/>
        <path id="路径_1069" data-name="路径 1069" d="M1974.923-176.078a3.1,3.1,0,0,0-3.1,3.1,3.1,3.1,0,0,0,3.1,3.1,3.1,3.1,0,0,0,3.1-3.1A3.1,3.1,0,0,0,1974.923-176.078Z" transform="translate(-1816.944 269.008)" fill="#606060"/>
        <path id="路径_1070" data-name="路径 1070" d="M1974.923-286.36a3.1,3.1,0,0,0-3.1,3.1,3.1,3.1,0,0,0,3.1,3.1,3.1,3.1,0,0,0,3.1-3.1A3.1,3.1,0,0,0,1974.923-286.36Z" transform="translate(-1816.944 286.36)" fill="#606060"/>
        <path id="路径_1071" data-name="路径 1071" d="M1974.923-249.6a3.1,3.1,0,0,0-3.1,3.1,3.1,3.1,0,0,0,3.1,3.1,3.1,3.1,0,0,0,3.1-3.1A3.1,3.1,0,0,0,1974.923-249.6Z" transform="translate(-1816.944 280.576)" fill="#606060"/>
        <path id="路径_1072" data-name="路径 1072" d="M2011.684-286.36a3.1,3.1,0,0,0-3.1,3.1,3.1,3.1,0,0,0,3.1,3.1,3.1,3.1,0,0,0,3.1-3.1A3.1,3.1,0,0,0,2011.684-286.36Z" transform="translate(-1822.728 286.36)" fill="#606060"/>
        <path id="路径_1073" data-name="路径 1073" d="M2011.684-249.6a3.1,3.1,0,0,0-3.1,3.1,3.1,3.1,0,0,0,3.1,3.1,3.1,3.1,0,0,0,3.1-3.1A3.1,3.1,0,0,0,2011.684-249.6Z" transform="translate(-1822.728 280.576)" fill="#606060"/>
        <path id="路径_1074" data-name="路径 1074" d="M2011.684-212.839a3.1,3.1,0,0,0-3.1,3.1,3.1,3.1,0,0,0,3.1,3.1,3.1,3.1,0,0,0,3.1-3.1A3.1,3.1,0,0,0,2011.684-212.839Z" transform="translate(-1822.728 274.792)" fill="#606060"/>
        <path id="路径_1075" data-name="路径 1075" d="M2011.684-176.078a3.1,3.1,0,0,0-3.1,3.1,3.1,3.1,0,0,0,3.1,3.1,3.1,3.1,0,0,0,3.1-3.1A3.1,3.1,0,0,0,2011.684-176.078Z" transform="translate(-1822.728 269.008)" fill="#606060"/>
        <path id="路径_1076" data-name="路径 1076" d="M2011.684-139.318a3.1,3.1,0,0,0-3.1,3.1,3.1,3.1,0,0,0,3.1,3.1,3.1,3.1,0,0,0,3.1-3.1A3.1,3.1,0,0,0,2011.684-139.318Z" transform="translate(-1822.728 263.224)" fill="#606060"/>
        <path id="路径_1077" data-name="路径 1077" d="M1901.4,44.069a3.1,3.1,0,1,0,3.1,3.1A3.1,3.1,0,0,0,1901.4,44.069Z" transform="translate(-1805.376 234.369)" fill="#606060"/>
        <path id="路径_1078" data-name="路径 1078" d="M1864.643,7.308a3.1,3.1,0,1,0,3.1,3.1A3.1,3.1,0,0,0,1864.643,7.308Z" transform="translate(-1799.592 240.154)" fill="#606060"/>
        <path id="路径_1079" data-name="路径 1079" d="M1864.643,44.069a3.1,3.1,0,1,0,3.1,3.1A3.1,3.1,0,0,0,1864.643,44.069Z" transform="translate(-1799.592 234.369)" fill="#606060"/>
        <path id="路径_1080" data-name="路径 1080" d="M1864.643-29.452a3.1,3.1,0,0,0-3.1,3.1,3.1,3.1,0,0,0,3.1,3.1,3.1,3.1,0,0,0,3.1-3.1A3.1,3.1,0,0,0,1864.643-29.452Z" transform="translate(-1799.592 245.937)" fill="#606060"/>
        <path id="路径_1081" data-name="路径 1081" d="M1864.643-66.213a3.1,3.1,0,0,0-3.1,3.1,3.1,3.1,0,0,0,3.1,3.1,3.1,3.1,0,0,0,3.1-3.1A3.1,3.1,0,0,0,1864.643-66.213Z" transform="translate(-1799.592 251.722)" fill="#606060"/>
        <path id="路径_1082" data-name="路径 1082" d="M1864.643-102.973a3.1,3.1,0,0,0-3.1,3.1,3.1,3.1,0,0,0,3.1,3.1,3.1,3.1,0,0,0,3.1-3.1A3.1,3.1,0,0,0,1864.643-102.973Z" transform="translate(-1799.592 257.505)" fill="#606060"/>
        <path id="路径_1083" data-name="路径 1083" d="M1938.164,44.069a3.1,3.1,0,1,0,3.1,3.1A3.1,3.1,0,0,0,1938.164,44.069Z" transform="translate(-1811.16 234.369)" fill="#606060"/>
        <path id="路径_1084" data-name="路径 1084" d="M1938.164-29.452a3.1,3.1,0,0,0-3.1,3.1,3.1,3.1,0,0,0,3.1,3.1,3.1,3.1,0,0,0,3.1-3.1A3.1,3.1,0,0,0,1938.164-29.452Z" transform="translate(-1811.16 245.937)" fill="#606060"/>
        <path id="路径_1085" data-name="路径 1085" d="M1901.4,7.308a3.1,3.1,0,1,0,3.1,3.1A3.1,3.1,0,0,0,1901.4,7.308Z" transform="translate(-1805.376 240.154)" fill="#606060"/>
        <path id="路径_1086" data-name="路径 1086" d="M1938.164,7.308a3.1,3.1,0,1,0,3.1,3.1A3.1,3.1,0,0,0,1938.164,7.308Z" transform="translate(-1811.16 240.154)" fill="#606060"/>
        <path id="路径_1087" data-name="路径 1087" d="M1901.4-29.452a3.1,3.1,0,0,0-3.1,3.1,3.1,3.1,0,0,0,3.1,3.1,3.1,3.1,0,0,0,3.1-3.1A3.1,3.1,0,0,0,1901.4-29.452Z" transform="translate(-1805.376 245.937)" fill="#606060"/>
        <path id="路径_1088" data-name="路径 1088" d="M1901.4-66.213a3.1,3.1,0,0,0-3.1,3.1,3.1,3.1,0,0,0,3.1,3.1,3.1,3.1,0,0,0,3.1-3.1A3.1,3.1,0,0,0,1901.4-66.213Z" transform="translate(-1805.376 251.722)" fill="#606060"/>
        <path id="路径_1089" data-name="路径 1089" d="M1938.164-66.213a3.1,3.1,0,0,0-3.1,3.1,3.1,3.1,0,0,0,3.1,3.1,3.1,3.1,0,0,0,3.1-3.1A3.1,3.1,0,0,0,1938.164-66.213Z" transform="translate(-1811.16 251.722)" fill="#606060"/>
        <path id="路径_1090" data-name="路径 1090" d="M1901.4-102.973a3.1,3.1,0,0,0-3.1,3.1,3.1,3.1,0,0,0,3.1,3.1,3.1,3.1,0,0,0,3.1-3.1A3.1,3.1,0,0,0,1901.4-102.973Z" transform="translate(-1805.376 257.505)" fill="#606060"/>
        <path id="路径_1091" data-name="路径 1091" d="M1791.122,44.069a3.1,3.1,0,1,0,3.1,3.1A3.1,3.1,0,0,0,1791.122,44.069Z" transform="translate(-1788.024 234.369)" fill="#606060"/>
        <path id="路径_1092" data-name="路径 1092" d="M1791.122,7.308a3.1,3.1,0,1,0,3.1,3.1A3.1,3.1,0,0,0,1791.122,7.308Z" transform="translate(-1788.024 240.154)" fill="#606060"/>
        <path id="路径_1093" data-name="路径 1093" d="M1791.122-102.973a3.1,3.1,0,0,0-3.1,3.1,3.1,3.1,0,0,0,3.1,3.1,3.1,3.1,0,0,0,3.1-3.1A3.1,3.1,0,0,0,1791.122-102.973Z" transform="translate(-1788.024 257.505)" fill="#606060"/>
        <path id="路径_1094" data-name="路径 1094" d="M1791.122-66.213a3.1,3.1,0,0,0-3.1,3.1,3.1,3.1,0,0,0,3.1,3.1,3.1,3.1,0,0,0,3.1-3.1A3.1,3.1,0,0,0,1791.122-66.213Z" transform="translate(-1788.024 251.722)" fill="#606060"/>
        <path id="路径_1095" data-name="路径 1095" d="M1791.122-29.452a3.1,3.1,0,0,0-3.1,3.1,3.1,3.1,0,0,0,3.1,3.1,3.1,3.1,0,0,0,3.1-3.1A3.1,3.1,0,0,0,1791.122-29.452Z" transform="translate(-1788.024 245.937)" fill="#606060"/>
        <path id="路径_1096" data-name="路径 1096" d="M2121.966-96.778a3.1,3.1,0,0,0,3.1-3.1,3.1,3.1,0,0,0-3.1-3.1,3.1,3.1,0,0,0-3.1,3.1A3.1,3.1,0,0,0,2121.966-96.778Z" transform="translate(-1840.08 257.505)" fill="#606060"/>
        <path id="路径_1097" data-name="路径 1097" d="M1827.883-102.973a3.1,3.1,0,0,0-3.1,3.1,3.1,3.1,0,0,0,3.1,3.1,3.1,3.1,0,0,0,3.1-3.1A3.1,3.1,0,0,0,1827.883-102.973Z" transform="translate(-1793.808 257.505)" fill="#606060"/>
        <path id="路径_1098" data-name="路径 1098" d="M1827.883-66.213a3.1,3.1,0,0,0-3.1,3.1,3.1,3.1,0,0,0,3.1,3.1,3.1,3.1,0,0,0,3.1-3.1A3.1,3.1,0,0,0,1827.883-66.213Z" transform="translate(-1793.808 251.722)" fill="#606060"/>
        <path id="路径_1099" data-name="路径 1099" d="M1827.883-29.452a3.1,3.1,0,0,0-3.1,3.1,3.1,3.1,0,0,0,3.1,3.1,3.1,3.1,0,0,0,3.1-3.1A3.1,3.1,0,0,0,1827.883-29.452Z" transform="translate(-1793.808 245.937)" fill="#606060"/>
        <path id="路径_1100" data-name="路径 1100" d="M1827.883,7.308a3.1,3.1,0,1,0,3.1,3.1A3.1,3.1,0,0,0,1827.883,7.308Z" transform="translate(-1793.808 240.154)" fill="#606060"/>
        <path id="路径_1101" data-name="路径 1101" d="M1827.883,44.069a3.1,3.1,0,1,0,3.1,3.1A3.1,3.1,0,0,0,1827.883,44.069Z" transform="translate(-1793.808 234.369)" fill="#606060"/>
        <path id="路径_1102" data-name="路径 1102" d="M2048.445,44.069a3.1,3.1,0,1,0,3.1,3.1A3.1,3.1,0,0,0,2048.445,44.069Z" transform="translate(-1828.512 234.369)" fill="#606060"/>
        <path id="路径_1103" data-name="路径 1103" d="M2085.206,44.069a3.1,3.1,0,1,0,3.1,3.1A3.1,3.1,0,0,0,2085.206,44.069Z" transform="translate(-1834.296 234.369)" fill="#606060"/>
        <path id="路径_1104" data-name="路径 1104" d="M2085.206,7.308a3.1,3.1,0,1,0,3.1,3.1A3.1,3.1,0,0,0,2085.206,7.308Z" transform="translate(-1834.296 240.154)" fill="#606060"/>
        <path id="路径_1105" data-name="路径 1105" d="M2048.445-102.973a3.1,3.1,0,0,0-3.1,3.1,3.1,3.1,0,0,0,3.1,3.1,3.1,3.1,0,0,0,3.1-3.1A3.1,3.1,0,0,0,2048.445-102.973Z" transform="translate(-1828.512 257.505)" fill="#606060"/>
        <path id="路径_1106" data-name="路径 1106" d="M2048.445-29.452a3.1,3.1,0,0,0-3.1,3.1,3.1,3.1,0,0,0,3.1,3.1,3.1,3.1,0,0,0,3.1-3.1A3.1,3.1,0,0,0,2048.445-29.452Z" transform="translate(-1828.512 245.937)" fill="#606060"/>
        <path id="路径_1107" data-name="路径 1107" d="M2048.445,7.308a3.1,3.1,0,1,0,3.1,3.1A3.1,3.1,0,0,0,2048.445,7.308Z" transform="translate(-1828.512 240.154)" fill="#606060"/>
        <path id="路径_1108" data-name="路径 1108" d="M2048.445-66.213a3.1,3.1,0,0,0-3.1,3.1,3.1,3.1,0,0,0,3.1,3.1,3.1,3.1,0,0,0,3.1-3.1A3.1,3.1,0,0,0,2048.445-66.213Z" transform="translate(-1828.512 251.722)" fill="#606060"/>
        <path id="路径_1109" data-name="路径 1109" d="M2085.206-29.452a3.1,3.1,0,0,0-3.1,3.1,3.1,3.1,0,0,0,3.1,3.1,3.1,3.1,0,0,0,3.1-3.1A3.1,3.1,0,0,0,2085.206-29.452Z" transform="translate(-1834.296 245.937)" fill="#606060"/>
        <path id="路径_1110" data-name="路径 1110" d="M1938.164-102.973a3.1,3.1,0,0,0-3.1,3.1,3.1,3.1,0,0,0,3.1,3.1,3.1,3.1,0,0,0,3.1-3.1A3.1,3.1,0,0,0,1938.164-102.973Z" transform="translate(-1811.16 257.505)" fill="#606060"/>
        <path id="路径_1111" data-name="路径 1111" d="M2121.966,7.308a3.1,3.1,0,1,0,3.1,3.1A3.1,3.1,0,0,0,2121.966,7.308Z" transform="translate(-1840.08 240.154)" fill="#606060"/>
        <path id="路径_1112" data-name="路径 1112" d="M2121.966-66.213a3.1,3.1,0,0,0-3.1,3.1,3.1,3.1,0,0,0,3.1,3.1,3.1,3.1,0,0,0,3.1-3.1A3.1,3.1,0,0,0,2121.966-66.213Z" transform="translate(-1840.08 251.722)" fill="#606060"/>
        <path id="路径_1113" data-name="路径 1113" d="M2121.966-29.452a3.1,3.1,0,0,0-3.1,3.1,3.1,3.1,0,0,0,3.1,3.1,3.1,3.1,0,0,0,3.1-3.1A3.1,3.1,0,0,0,2121.966-29.452Z" transform="translate(-1840.08 245.937)" fill="#606060"/>
        <path id="路径_1114" data-name="路径 1114" d="M2085.206-66.213a3.1,3.1,0,0,0-3.1,3.1,3.1,3.1,0,0,0,3.1,3.1,3.1,3.1,0,0,0,3.1-3.1A3.1,3.1,0,0,0,2085.206-66.213Z" transform="translate(-1834.296 251.722)" fill="#606060"/>
        <path id="路径_1115" data-name="路径 1115" d="M2085.206-102.973a3.1,3.1,0,0,0-3.1,3.1,3.1,3.1,0,0,0,3.1,3.1,3.1,3.1,0,0,0,3.1-3.1A3.1,3.1,0,0,0,2085.206-102.973Z" transform="translate(-1834.296 257.505)" fill="#606060"/>
        <path id="路径_1116" data-name="路径 1116" d="M2121.966,44.069a3.1,3.1,0,1,0,3.1,3.1A3.1,3.1,0,0,0,2121.966,44.069Z" transform="translate(-1840.08 234.369)" fill="#606060"/>
        <path id="路径_1117" data-name="路径 1117" d="M1974.923,44.069a3.1,3.1,0,1,0,3.1,3.1A3.1,3.1,0,0,0,1974.923,44.069Z" transform="translate(-1816.944 234.369)" fill="#606060"/>
        <path id="路径_1118" data-name="路径 1118" d="M1974.923-29.452a3.1,3.1,0,0,0-3.1,3.1,3.1,3.1,0,0,0,3.1,3.1,3.1,3.1,0,0,0,3.1-3.1A3.1,3.1,0,0,0,1974.923-29.452Z" transform="translate(-1816.944 245.937)" fill="#606060"/>
        <path id="路径_1119" data-name="路径 1119" d="M1974.923,7.308a3.1,3.1,0,1,0,3.1,3.1A3.1,3.1,0,0,0,1974.923,7.308Z" transform="translate(-1816.944 240.154)" fill="#606060"/>
        <path id="路径_1120" data-name="路径 1120" d="M1974.923-102.973a3.1,3.1,0,0,0-3.1,3.1,3.1,3.1,0,0,0,3.1,3.1,3.1,3.1,0,0,0,3.1-3.1A3.1,3.1,0,0,0,1974.923-102.973Z" transform="translate(-1816.944 257.505)" fill="#606060"/>
        <path id="路径_1121" data-name="路径 1121" d="M1974.923-66.213a3.1,3.1,0,0,0-3.1,3.1,3.1,3.1,0,0,0,3.1,3.1,3.1,3.1,0,0,0,3.1-3.1A3.1,3.1,0,0,0,1974.923-66.213Z" transform="translate(-1816.944 251.722)" fill="#606060"/>
        <path id="路径_1122" data-name="路径 1122" d="M2011.684-102.973a3.1,3.1,0,0,0-3.1,3.1,3.1,3.1,0,0,0,3.1,3.1,3.1,3.1,0,0,0,3.1-3.1A3.1,3.1,0,0,0,2011.684-102.973Z" transform="translate(-1822.728 257.505)" fill="#606060"/>
        <path id="路径_1123" data-name="路径 1123" d="M2011.684-66.213a3.1,3.1,0,0,0-3.1,3.1,3.1,3.1,0,0,0,3.1,3.1,3.1,3.1,0,0,0,3.1-3.1A3.1,3.1,0,0,0,2011.684-66.213Z" transform="translate(-1822.728 251.722)" fill="#606060"/>
        <path id="路径_1124" data-name="路径 1124" d="M2011.684-29.452a3.1,3.1,0,0,0-3.1,3.1,3.1,3.1,0,0,0,3.1,3.1,3.1,3.1,0,0,0,3.1-3.1A3.1,3.1,0,0,0,2011.684-29.452Z" transform="translate(-1822.728 245.937)" fill="#606060"/>
        <path id="路径_1125" data-name="路径 1125" d="M2011.684,7.308a3.1,3.1,0,1,0,3.1,3.1A3.1,3.1,0,0,0,2011.684,7.308Z" transform="translate(-1822.728 240.154)" fill="#606060"/>
        <path id="路径_1126" data-name="路径 1126" d="M2011.684,44.069a3.1,3.1,0,1,0,3.1,3.1A3.1,3.1,0,0,0,2011.684,44.069Z" transform="translate(-1822.728 234.369)" fill="#606060"/>
      </g>
      <g id="组_62" data-name="组 62" transform="translate(0 309.351)">
        <path id="路径_1127" data-name="路径 1127" d="M1534.049,227.795a3.1,3.1,0,1,0,3.1,3.1A3.1,3.1,0,0,0,1534.049,227.795Z" transform="translate(-1438.022 -103.889)" fill="#606060"/>
        <path id="路径_1128" data-name="路径 1128" d="M1497.289,191.035a3.1,3.1,0,1,0,3.1,3.1A3.1,3.1,0,0,0,1497.289,191.035Z" transform="translate(-1432.238 -98.105)" fill="#606060"/>
        <path id="路径_1129" data-name="路径 1129" d="M1497.289,227.795a3.1,3.1,0,1,0,3.1,3.1A3.1,3.1,0,0,0,1497.289,227.795Z" transform="translate(-1432.238 -103.889)" fill="#606060"/>
        <path id="路径_1130" data-name="路径 1130" d="M1497.289,154.274a3.1,3.1,0,1,0,3.1,3.1A3.1,3.1,0,0,0,1497.289,154.274Z" transform="translate(-1432.238 -92.321)" fill="#606060"/>
        <path id="路径_1131" data-name="路径 1131" d="M1497.289,117.514a3.1,3.1,0,1,0,3.1,3.1A3.1,3.1,0,0,0,1497.289,117.514Z" transform="translate(-1432.238 -86.537)" fill="#606060"/>
        <path id="路径_1132" data-name="路径 1132" d="M1497.289,80.753a3.1,3.1,0,1,0,3.1,3.1A3.1,3.1,0,0,0,1497.289,80.753Z" transform="translate(-1432.238 -80.753)" fill="#606060"/>
        <path id="路径_1133" data-name="路径 1133" d="M1570.809,227.795a3.1,3.1,0,1,0,3.1,3.1A3.1,3.1,0,0,0,1570.809,227.795Z" transform="translate(-1443.806 -103.889)" fill="#606060"/>
        <path id="路径_1134" data-name="路径 1134" d="M1570.809,154.274a3.1,3.1,0,1,0,3.1,3.1A3.1,3.1,0,0,0,1570.809,154.274Z" transform="translate(-1443.806 -92.321)" fill="#606060"/>
        <path id="路径_1135" data-name="路径 1135" d="M1534.049,191.035a3.1,3.1,0,1,0,3.1,3.1A3.1,3.1,0,0,0,1534.049,191.035Z" transform="translate(-1438.022 -98.105)" fill="#606060"/>
        <path id="路径_1136" data-name="路径 1136" d="M1570.809,191.035a3.1,3.1,0,1,0,3.1,3.1A3.1,3.1,0,0,0,1570.809,191.035Z" transform="translate(-1443.806 -98.105)" fill="#606060"/>
        <path id="路径_1137" data-name="路径 1137" d="M1534.049,154.274a3.1,3.1,0,1,0,3.1,3.1A3.1,3.1,0,0,0,1534.049,154.274Z" transform="translate(-1438.022 -92.321)" fill="#606060"/>
        <path id="路径_1138" data-name="路径 1138" d="M1534.049,117.514a3.1,3.1,0,1,0,3.1,3.1A3.1,3.1,0,0,0,1534.049,117.514Z" transform="translate(-1438.022 -86.537)" fill="#606060"/>
        <path id="路径_1139" data-name="路径 1139" d="M1570.809,117.514a3.1,3.1,0,1,0,3.1,3.1A3.1,3.1,0,0,0,1570.809,117.514Z" transform="translate(-1443.806 -86.537)" fill="#606060"/>
        <path id="路径_1140" data-name="路径 1140" d="M1534.049,80.753a3.1,3.1,0,1,0,3.1,3.1A3.1,3.1,0,0,0,1534.049,80.753Z" transform="translate(-1438.022 -80.753)" fill="#606060"/>
        <path id="路径_1141" data-name="路径 1141" d="M1423.768,227.795a3.1,3.1,0,1,0,3.1,3.1A3.1,3.1,0,0,0,1423.768,227.795Z" transform="translate(-1420.67 -103.889)" fill="#606060"/>
        <path id="路径_1142" data-name="路径 1142" d="M1423.768,191.035a3.1,3.1,0,1,0,3.1,3.1A3.1,3.1,0,0,0,1423.768,191.035Z" transform="translate(-1420.67 -98.105)" fill="#606060"/>
        <path id="路径_1143" data-name="路径 1143" d="M1423.768,80.753a3.1,3.1,0,1,0,3.1,3.1A3.1,3.1,0,0,0,1423.768,80.753Z" transform="translate(-1420.67 -80.753)" fill="#606060"/>
        <path id="路径_1144" data-name="路径 1144" d="M1423.768,117.514a3.1,3.1,0,1,0,3.1,3.1A3.1,3.1,0,0,0,1423.768,117.514Z" transform="translate(-1420.67 -86.537)" fill="#606060"/>
        <path id="路径_1145" data-name="路径 1145" d="M1423.768,154.274a3.1,3.1,0,1,0,3.1,3.1A3.1,3.1,0,0,0,1423.768,154.274Z" transform="translate(-1420.67 -92.321)" fill="#606060"/>
        <path id="路径_1146" data-name="路径 1146" d="M1754.611,86.948a3.1,3.1,0,1,0-3.1-3.1A3.1,3.1,0,0,0,1754.611,86.948Z" transform="translate(-1472.726 -80.753)" fill="#606060"/>
        <path id="路径_1147" data-name="路径 1147" d="M1460.528,80.753a3.1,3.1,0,1,0,3.1,3.1A3.1,3.1,0,0,0,1460.528,80.753Z" transform="translate(-1426.454 -80.753)" fill="#606060"/>
        <path id="路径_1148" data-name="路径 1148" d="M1460.528,117.514a3.1,3.1,0,1,0,3.1,3.1A3.1,3.1,0,0,0,1460.528,117.514Z" transform="translate(-1426.454 -86.537)" fill="#606060"/>
        <path id="路径_1149" data-name="路径 1149" d="M1460.528,154.274a3.1,3.1,0,1,0,3.1,3.1A3.1,3.1,0,0,0,1460.528,154.274Z" transform="translate(-1426.454 -92.321)" fill="#606060"/>
        <path id="路径_1150" data-name="路径 1150" d="M1460.528,191.035a3.1,3.1,0,1,0,3.1,3.1A3.1,3.1,0,0,0,1460.528,191.035Z" transform="translate(-1426.454 -98.105)" fill="#606060"/>
        <path id="路径_1151" data-name="路径 1151" d="M1460.528,227.795a3.1,3.1,0,1,0,3.1,3.1A3.1,3.1,0,0,0,1460.528,227.795Z" transform="translate(-1426.454 -103.889)" fill="#606060"/>
        <path id="路径_1152" data-name="路径 1152" d="M1681.09,227.795a3.1,3.1,0,1,0,3.1,3.1A3.1,3.1,0,0,0,1681.09,227.795Z" transform="translate(-1461.158 -103.889)" fill="#606060"/>
        <path id="路径_1153" data-name="路径 1153" d="M1717.851,227.795a3.1,3.1,0,1,0,3.1,3.1A3.1,3.1,0,0,0,1717.851,227.795Z" transform="translate(-1466.942 -103.889)" fill="#606060"/>
        <path id="路径_1154" data-name="路径 1154" d="M1717.851,191.035a3.1,3.1,0,1,0,3.1,3.1A3.1,3.1,0,0,0,1717.851,191.035Z" transform="translate(-1466.942 -98.105)" fill="#606060"/>
        <path id="路径_1155" data-name="路径 1155" d="M1681.09,80.753a3.1,3.1,0,1,0,3.1,3.1A3.1,3.1,0,0,0,1681.09,80.753Z" transform="translate(-1461.158 -80.753)" fill="#606060"/>
        <path id="路径_1156" data-name="路径 1156" d="M1681.09,154.274a3.1,3.1,0,1,0,3.1,3.1A3.1,3.1,0,0,0,1681.09,154.274Z" transform="translate(-1461.158 -92.321)" fill="#606060"/>
        <path id="路径_1157" data-name="路径 1157" d="M1681.09,191.035a3.1,3.1,0,1,0,3.1,3.1A3.1,3.1,0,0,0,1681.09,191.035Z" transform="translate(-1461.158 -98.105)" fill="#606060"/>
        <path id="路径_1158" data-name="路径 1158" d="M1681.09,117.514a3.1,3.1,0,1,0,3.1,3.1A3.1,3.1,0,0,0,1681.09,117.514Z" transform="translate(-1461.158 -86.537)" fill="#606060"/>
        <path id="路径_1159" data-name="路径 1159" d="M1717.851,154.274a3.1,3.1,0,1,0,3.1,3.1A3.1,3.1,0,0,0,1717.851,154.274Z" transform="translate(-1466.942 -92.321)" fill="#606060"/>
        <path id="路径_1160" data-name="路径 1160" d="M1570.809,80.753a3.1,3.1,0,1,0,3.1,3.1A3.1,3.1,0,0,0,1570.809,80.753Z" transform="translate(-1443.806 -80.753)" fill="#606060"/>
        <path id="路径_1161" data-name="路径 1161" d="M1754.611,191.035a3.1,3.1,0,1,0,3.1,3.1A3.1,3.1,0,0,0,1754.611,191.035Z" transform="translate(-1472.726 -98.105)" fill="#606060"/>
        <path id="路径_1162" data-name="路径 1162" d="M1754.611,117.514a3.1,3.1,0,1,0,3.1,3.1A3.1,3.1,0,0,0,1754.611,117.514Z" transform="translate(-1472.726 -86.537)" fill="#606060"/>
        <path id="路径_1163" data-name="路径 1163" d="M1754.611,154.274a3.1,3.1,0,1,0,3.1,3.1A3.1,3.1,0,0,0,1754.611,154.274Z" transform="translate(-1472.726 -92.321)" fill="#606060"/>
        <path id="路径_1164" data-name="路径 1164" d="M1717.851,117.514a3.1,3.1,0,1,0,3.1,3.1A3.1,3.1,0,0,0,1717.851,117.514Z" transform="translate(-1466.942 -86.537)" fill="#606060"/>
        <path id="路径_1165" data-name="路径 1165" d="M1717.851,80.753a3.1,3.1,0,1,0,3.1,3.1A3.1,3.1,0,0,0,1717.851,80.753Z" transform="translate(-1466.942 -80.753)" fill="#606060"/>
        <path id="路径_1166" data-name="路径 1166" d="M1754.611,227.795a3.1,3.1,0,1,0,3.1,3.1A3.1,3.1,0,0,0,1754.611,227.795Z" transform="translate(-1472.726 -103.889)" fill="#606060"/>
        <path id="路径_1167" data-name="路径 1167" d="M1607.57,227.795a3.1,3.1,0,1,0,3.1,3.1A3.1,3.1,0,0,0,1607.57,227.795Z" transform="translate(-1449.59 -103.889)" fill="#606060"/>
        <path id="路径_1168" data-name="路径 1168" d="M1607.57,154.274a3.1,3.1,0,1,0,3.1,3.1A3.1,3.1,0,0,0,1607.57,154.274Z" transform="translate(-1449.59 -92.321)" fill="#606060"/>
        <path id="路径_1169" data-name="路径 1169" d="M1607.57,191.035a3.1,3.1,0,1,0,3.1,3.1A3.1,3.1,0,0,0,1607.57,191.035Z" transform="translate(-1449.59 -98.105)" fill="#606060"/>
        <path id="路径_1170" data-name="路径 1170" d="M1607.57,80.753a3.1,3.1,0,1,0,3.1,3.1A3.1,3.1,0,0,0,1607.57,80.753Z" transform="translate(-1449.59 -80.753)" fill="#606060"/>
        <path id="路径_1171" data-name="路径 1171" d="M1607.57,117.514a3.1,3.1,0,1,0,3.1,3.1A3.1,3.1,0,0,0,1607.57,117.514Z" transform="translate(-1449.59 -86.537)" fill="#606060"/>
        <path id="路径_1172" data-name="路径 1172" d="M1644.329,80.753a3.1,3.1,0,1,0,3.1,3.1A3.1,3.1,0,0,0,1644.329,80.753Z" transform="translate(-1455.374 -80.753)" fill="#606060"/>
        <path id="路径_1173" data-name="路径 1173" d="M1644.329,117.514a3.1,3.1,0,1,0,3.1,3.1A3.1,3.1,0,0,0,1644.329,117.514Z" transform="translate(-1455.374 -86.537)" fill="#606060"/>
        <path id="路径_1174" data-name="路径 1174" d="M1644.329,154.274a3.1,3.1,0,1,0,3.1,3.1A3.1,3.1,0,0,0,1644.329,154.274Z" transform="translate(-1455.374 -92.321)" fill="#606060"/>
        <path id="路径_1175" data-name="路径 1175" d="M1644.329,191.035a3.1,3.1,0,1,0,3.1,3.1A3.1,3.1,0,0,0,1644.329,191.035Z" transform="translate(-1455.374 -98.105)" fill="#606060"/>
        <path id="路径_1176" data-name="路径 1176" d="M1644.329,227.795a3.1,3.1,0,1,0,3.1,3.1A3.1,3.1,0,0,0,1644.329,227.795Z" transform="translate(-1455.374 -103.889)" fill="#606060"/>
        <path id="路径_1177" data-name="路径 1177" d="M1534.049,411.182a3.1,3.1,0,1,0,3.1,3.1A3.1,3.1,0,0,0,1534.049,411.182Z" transform="translate(-1438.022 -132.744)" fill="#606060"/>
        <path id="路径_1178" data-name="路径 1178" d="M1497.289,374.421a3.1,3.1,0,1,0,3.1,3.1A3.1,3.1,0,0,0,1497.289,374.421Z" transform="translate(-1432.238 -126.959)" fill="#606060"/>
        <path id="路径_1179" data-name="路径 1179" d="M1497.289,411.182a3.1,3.1,0,1,0,3.1,3.1A3.1,3.1,0,0,0,1497.289,411.182Z" transform="translate(-1432.238 -132.744)" fill="#606060"/>
        <path id="路径_1180" data-name="路径 1180" d="M1497.289,337.661a3.1,3.1,0,1,0,3.1,3.1A3.1,3.1,0,0,0,1497.289,337.661Z" transform="translate(-1432.238 -121.176)" fill="#606060"/>
        <path id="路径_1181" data-name="路径 1181" d="M1497.289,300.9a3.1,3.1,0,1,0,3.1,3.1A3.1,3.1,0,0,0,1497.289,300.9Z" transform="translate(-1432.238 -115.391)" fill="#606060"/>
        <path id="路径_1182" data-name="路径 1182" d="M1497.289,264.14a3.1,3.1,0,1,0,3.1,3.1A3.1,3.1,0,0,0,1497.289,264.14Z" transform="translate(-1432.238 -109.608)" fill="#606060"/>
        <path id="路径_1183" data-name="路径 1183" d="M1570.809,411.182a3.1,3.1,0,1,0,3.1,3.1A3.1,3.1,0,0,0,1570.809,411.182Z" transform="translate(-1443.806 -132.744)" fill="#606060"/>
        <path id="路径_1184" data-name="路径 1184" d="M1570.809,337.661a3.1,3.1,0,1,0,3.1,3.1A3.1,3.1,0,0,0,1570.809,337.661Z" transform="translate(-1443.806 -121.176)" fill="#606060"/>
        <path id="路径_1185" data-name="路径 1185" d="M1534.049,374.421a3.1,3.1,0,1,0,3.1,3.1A3.1,3.1,0,0,0,1534.049,374.421Z" transform="translate(-1438.022 -126.959)" fill="#606060"/>
        <path id="路径_1186" data-name="路径 1186" d="M1570.809,374.421a3.1,3.1,0,1,0,3.1,3.1A3.1,3.1,0,0,0,1570.809,374.421Z" transform="translate(-1443.806 -126.959)" fill="#606060"/>
        <path id="路径_1187" data-name="路径 1187" d="M1534.049,337.661a3.1,3.1,0,1,0,3.1,3.1A3.1,3.1,0,0,0,1534.049,337.661Z" transform="translate(-1438.022 -121.176)" fill="#606060"/>
        <path id="路径_1188" data-name="路径 1188" d="M1534.049,300.9a3.1,3.1,0,1,0,3.1,3.1A3.1,3.1,0,0,0,1534.049,300.9Z" transform="translate(-1438.022 -115.391)" fill="#606060"/>
        <path id="路径_1189" data-name="路径 1189" d="M1570.809,300.9a3.1,3.1,0,1,0,3.1,3.1A3.1,3.1,0,0,0,1570.809,300.9Z" transform="translate(-1443.806 -115.391)" fill="#606060"/>
        <path id="路径_1190" data-name="路径 1190" d="M1534.049,264.14a3.1,3.1,0,1,0,3.1,3.1A3.1,3.1,0,0,0,1534.049,264.14Z" transform="translate(-1438.022 -109.608)" fill="#606060"/>
        <path id="路径_1191" data-name="路径 1191" d="M1423.768,411.182a3.1,3.1,0,1,0,3.1,3.1A3.1,3.1,0,0,0,1423.768,411.182Z" transform="translate(-1420.67 -132.744)" fill="#606060"/>
        <path id="路径_1192" data-name="路径 1192" d="M1423.768,374.421a3.1,3.1,0,1,0,3.1,3.1A3.1,3.1,0,0,0,1423.768,374.421Z" transform="translate(-1420.67 -126.959)" fill="#606060"/>
        <path id="路径_1193" data-name="路径 1193" d="M1423.768,264.14a3.1,3.1,0,1,0,3.1,3.1A3.1,3.1,0,0,0,1423.768,264.14Z" transform="translate(-1420.67 -109.608)" fill="#606060"/>
        <path id="路径_1194" data-name="路径 1194" d="M1423.768,300.9a3.1,3.1,0,1,0,3.1,3.1A3.1,3.1,0,0,0,1423.768,300.9Z" transform="translate(-1420.67 -115.391)" fill="#606060"/>
        <path id="路径_1195" data-name="路径 1195" d="M1423.768,337.661a3.1,3.1,0,1,0,3.1,3.1A3.1,3.1,0,0,0,1423.768,337.661Z" transform="translate(-1420.67 -121.176)" fill="#606060"/>
        <path id="路径_1196" data-name="路径 1196" d="M1754.611,270.335a3.1,3.1,0,1,0-3.1-3.1A3.1,3.1,0,0,0,1754.611,270.335Z" transform="translate(-1472.726 -109.608)" fill="#606060"/>
        <path id="路径_1197" data-name="路径 1197" d="M1460.528,264.14a3.1,3.1,0,1,0,3.1,3.1A3.1,3.1,0,0,0,1460.528,264.14Z" transform="translate(-1426.454 -109.608)" fill="#606060"/>
        <path id="路径_1198" data-name="路径 1198" d="M1460.528,300.9a3.1,3.1,0,1,0,3.1,3.1A3.1,3.1,0,0,0,1460.528,300.9Z" transform="translate(-1426.454 -115.391)" fill="#606060"/>
        <path id="路径_1199" data-name="路径 1199" d="M1460.528,337.661a3.1,3.1,0,1,0,3.1,3.1A3.1,3.1,0,0,0,1460.528,337.661Z" transform="translate(-1426.454 -121.176)" fill="#606060"/>
        <path id="路径_1200" data-name="路径 1200" d="M1460.528,374.421a3.1,3.1,0,1,0,3.1,3.1A3.1,3.1,0,0,0,1460.528,374.421Z" transform="translate(-1426.454 -126.959)" fill="#606060"/>
        <path id="路径_1201" data-name="路径 1201" d="M1460.528,411.182a3.1,3.1,0,1,0,3.1,3.1A3.1,3.1,0,0,0,1460.528,411.182Z" transform="translate(-1426.454 -132.744)" fill="#606060"/>
        <path id="路径_1202" data-name="路径 1202" d="M1681.09,411.182a3.1,3.1,0,1,0,3.1,3.1A3.1,3.1,0,0,0,1681.09,411.182Z" transform="translate(-1461.158 -132.744)" fill="#606060"/>
        <path id="路径_1203" data-name="路径 1203" d="M1717.851,411.182a3.1,3.1,0,1,0,3.1,3.1A3.1,3.1,0,0,0,1717.851,411.182Z" transform="translate(-1466.942 -132.744)" fill="#606060"/>
        <path id="路径_1204" data-name="路径 1204" d="M1717.851,374.421a3.1,3.1,0,1,0,3.1,3.1A3.1,3.1,0,0,0,1717.851,374.421Z" transform="translate(-1466.942 -126.959)" fill="#606060"/>
        <path id="路径_1205" data-name="路径 1205" d="M1681.09,264.14a3.1,3.1,0,1,0,3.1,3.1A3.1,3.1,0,0,0,1681.09,264.14Z" transform="translate(-1461.158 -109.608)" fill="#606060"/>
        <path id="路径_1206" data-name="路径 1206" d="M1681.09,337.661a3.1,3.1,0,1,0,3.1,3.1A3.1,3.1,0,0,0,1681.09,337.661Z" transform="translate(-1461.158 -121.176)" fill="#606060"/>
        <path id="路径_1207" data-name="路径 1207" d="M1681.09,374.421a3.1,3.1,0,1,0,3.1,3.1A3.1,3.1,0,0,0,1681.09,374.421Z" transform="translate(-1461.158 -126.959)" fill="#606060"/>
        <path id="路径_1208" data-name="路径 1208" d="M1681.09,300.9a3.1,3.1,0,1,0,3.1,3.1A3.1,3.1,0,0,0,1681.09,300.9Z" transform="translate(-1461.158 -115.391)" fill="#606060"/>
        <path id="路径_1209" data-name="路径 1209" d="M1717.851,337.661a3.1,3.1,0,1,0,3.1,3.1A3.1,3.1,0,0,0,1717.851,337.661Z" transform="translate(-1466.942 -121.176)" fill="#606060"/>
        <path id="路径_1210" data-name="路径 1210" d="M1570.809,264.14a3.1,3.1,0,1,0,3.1,3.1A3.1,3.1,0,0,0,1570.809,264.14Z" transform="translate(-1443.806 -109.608)" fill="#606060"/>
        <path id="路径_1211" data-name="路径 1211" d="M1754.611,374.421a3.1,3.1,0,1,0,3.1,3.1A3.1,3.1,0,0,0,1754.611,374.421Z" transform="translate(-1472.726 -126.959)" fill="#606060"/>
        <path id="路径_1212" data-name="路径 1212" d="M1754.611,300.9a3.1,3.1,0,1,0,3.1,3.1A3.1,3.1,0,0,0,1754.611,300.9Z" transform="translate(-1472.726 -115.391)" fill="#606060"/>
        <path id="路径_1213" data-name="路径 1213" d="M1754.611,337.661a3.1,3.1,0,1,0,3.1,3.1A3.1,3.1,0,0,0,1754.611,337.661Z" transform="translate(-1472.726 -121.176)" fill="#606060"/>
        <path id="路径_1214" data-name="路径 1214" d="M1717.851,300.9a3.1,3.1,0,1,0,3.1,3.1A3.1,3.1,0,0,0,1717.851,300.9Z" transform="translate(-1466.942 -115.391)" fill="#606060"/>
        <path id="路径_1215" data-name="路径 1215" d="M1717.851,264.14a3.1,3.1,0,1,0,3.1,3.1A3.1,3.1,0,0,0,1717.851,264.14Z" transform="translate(-1466.942 -109.608)" fill="#606060"/>
        <path id="路径_1216" data-name="路径 1216" d="M1754.611,411.182a3.1,3.1,0,1,0,3.1,3.1A3.1,3.1,0,0,0,1754.611,411.182Z" transform="translate(-1472.726 -132.744)" fill="#606060"/>
        <path id="路径_1217" data-name="路径 1217" d="M1607.57,411.182a3.1,3.1,0,1,0,3.1,3.1A3.1,3.1,0,0,0,1607.57,411.182Z" transform="translate(-1449.59 -132.744)" fill="#606060"/>
        <path id="路径_1218" data-name="路径 1218" d="M1607.57,337.661a3.1,3.1,0,1,0,3.1,3.1A3.1,3.1,0,0,0,1607.57,337.661Z" transform="translate(-1449.59 -121.176)" fill="#606060"/>
        <path id="路径_1219" data-name="路径 1219" d="M1607.57,374.421a3.1,3.1,0,1,0,3.1,3.1A3.1,3.1,0,0,0,1607.57,374.421Z" transform="translate(-1449.59 -126.959)" fill="#606060"/>
        <path id="路径_1220" data-name="路径 1220" d="M1607.57,264.14a3.1,3.1,0,1,0,3.1,3.1A3.1,3.1,0,0,0,1607.57,264.14Z" transform="translate(-1449.59 -109.608)" fill="#606060"/>
        <path id="路径_1221" data-name="路径 1221" d="M1607.57,300.9a3.1,3.1,0,1,0,3.1,3.1A3.1,3.1,0,0,0,1607.57,300.9Z" transform="translate(-1449.59 -115.391)" fill="#606060"/>
        <path id="路径_1222" data-name="路径 1222" d="M1644.329,264.14a3.1,3.1,0,1,0,3.1,3.1A3.1,3.1,0,0,0,1644.329,264.14Z" transform="translate(-1455.374 -109.608)" fill="#606060"/>
        <path id="路径_1223" data-name="路径 1223" d="M1644.329,300.9a3.1,3.1,0,1,0,3.1,3.1A3.1,3.1,0,0,0,1644.329,300.9Z" transform="translate(-1455.374 -115.391)" fill="#606060"/>
        <path id="路径_1224" data-name="路径 1224" d="M1644.329,337.661a3.1,3.1,0,1,0,3.1,3.1A3.1,3.1,0,0,0,1644.329,337.661Z" transform="translate(-1455.374 -121.176)" fill="#606060"/>
        <path id="路径_1225" data-name="路径 1225" d="M1644.329,374.421a3.1,3.1,0,1,0,3.1,3.1A3.1,3.1,0,0,0,1644.329,374.421Z" transform="translate(-1455.374 -126.959)" fill="#606060"/>
        <path id="路径_1226" data-name="路径 1226" d="M1644.329,411.182a3.1,3.1,0,1,0,3.1,3.1A3.1,3.1,0,0,0,1644.329,411.182Z" transform="translate(-1455.374 -132.744)" fill="#606060"/>
      </g>
      <g id="组_63" data-name="组 63" transform="translate(309.554 309.351)">
        <path id="路径_1227" data-name="路径 1227" d="M1901.4,227.795a3.1,3.1,0,1,0,3.1,3.1A3.1,3.1,0,0,0,1901.4,227.795Z" transform="translate(-1805.376 -103.889)" fill="#606060"/>
        <path id="路径_1228" data-name="路径 1228" d="M1864.643,191.035a3.1,3.1,0,1,0,3.1,3.1A3.1,3.1,0,0,0,1864.643,191.035Z" transform="translate(-1799.592 -98.105)" fill="#606060"/>
        <path id="路径_1229" data-name="路径 1229" d="M1864.643,227.795a3.1,3.1,0,1,0,3.1,3.1A3.1,3.1,0,0,0,1864.643,227.795Z" transform="translate(-1799.592 -103.889)" fill="#606060"/>
        <path id="路径_1230" data-name="路径 1230" d="M1864.643,154.274a3.1,3.1,0,1,0,3.1,3.1A3.1,3.1,0,0,0,1864.643,154.274Z" transform="translate(-1799.592 -92.321)" fill="#606060"/>
        <path id="路径_1231" data-name="路径 1231" d="M1864.643,117.514a3.1,3.1,0,1,0,3.1,3.1A3.1,3.1,0,0,0,1864.643,117.514Z" transform="translate(-1799.592 -86.537)" fill="#606060"/>
        <path id="路径_1232" data-name="路径 1232" d="M1864.643,80.753a3.1,3.1,0,1,0,3.1,3.1A3.1,3.1,0,0,0,1864.643,80.753Z" transform="translate(-1799.592 -80.753)" fill="#606060"/>
        <path id="路径_1233" data-name="路径 1233" d="M1938.164,227.795a3.1,3.1,0,1,0,3.1,3.1A3.1,3.1,0,0,0,1938.164,227.795Z" transform="translate(-1811.16 -103.889)" fill="#606060"/>
        <path id="路径_1234" data-name="路径 1234" d="M1938.164,154.274a3.1,3.1,0,1,0,3.1,3.1A3.1,3.1,0,0,0,1938.164,154.274Z" transform="translate(-1811.16 -92.321)" fill="#606060"/>
        <path id="路径_1235" data-name="路径 1235" d="M1901.4,191.035a3.1,3.1,0,1,0,3.1,3.1A3.1,3.1,0,0,0,1901.4,191.035Z" transform="translate(-1805.376 -98.105)" fill="#606060"/>
        <path id="路径_1236" data-name="路径 1236" d="M1938.164,191.035a3.1,3.1,0,1,0,3.1,3.1A3.1,3.1,0,0,0,1938.164,191.035Z" transform="translate(-1811.16 -98.105)" fill="#606060"/>
        <path id="路径_1237" data-name="路径 1237" d="M1901.4,154.274a3.1,3.1,0,1,0,3.1,3.1A3.1,3.1,0,0,0,1901.4,154.274Z" transform="translate(-1805.376 -92.321)" fill="#606060"/>
        <path id="路径_1238" data-name="路径 1238" d="M1901.4,117.514a3.1,3.1,0,1,0,3.1,3.1A3.1,3.1,0,0,0,1901.4,117.514Z" transform="translate(-1805.376 -86.537)" fill="#606060"/>
        <path id="路径_1239" data-name="路径 1239" d="M1938.164,117.514a3.1,3.1,0,1,0,3.1,3.1A3.1,3.1,0,0,0,1938.164,117.514Z" transform="translate(-1811.16 -86.537)" fill="#606060"/>
        <path id="路径_1240" data-name="路径 1240" d="M1901.4,80.753a3.1,3.1,0,1,0,3.1,3.1A3.1,3.1,0,0,0,1901.4,80.753Z" transform="translate(-1805.376 -80.753)" fill="#606060"/>
        <path id="路径_1241" data-name="路径 1241" d="M1791.122,227.795a3.1,3.1,0,1,0,3.1,3.1A3.1,3.1,0,0,0,1791.122,227.795Z" transform="translate(-1788.024 -103.889)" fill="#606060"/>
        <path id="路径_1242" data-name="路径 1242" d="M1791.122,191.035a3.1,3.1,0,1,0,3.1,3.1A3.1,3.1,0,0,0,1791.122,191.035Z" transform="translate(-1788.024 -98.105)" fill="#606060"/>
        <path id="路径_1243" data-name="路径 1243" d="M1791.122,80.753a3.1,3.1,0,1,0,3.1,3.1A3.1,3.1,0,0,0,1791.122,80.753Z" transform="translate(-1788.024 -80.753)" fill="#606060"/>
        <path id="路径_1244" data-name="路径 1244" d="M1791.122,117.514a3.1,3.1,0,1,0,3.1,3.1A3.1,3.1,0,0,0,1791.122,117.514Z" transform="translate(-1788.024 -86.537)" fill="#606060"/>
        <path id="路径_1245" data-name="路径 1245" d="M1791.122,154.274a3.1,3.1,0,1,0,3.1,3.1A3.1,3.1,0,0,0,1791.122,154.274Z" transform="translate(-1788.024 -92.321)" fill="#606060"/>
        <path id="路径_1246" data-name="路径 1246" d="M2121.966,86.948a3.1,3.1,0,1,0-3.1-3.1A3.1,3.1,0,0,0,2121.966,86.948Z" transform="translate(-1840.08 -80.753)" fill="#606060"/>
        <path id="路径_1247" data-name="路径 1247" d="M1827.883,80.753a3.1,3.1,0,1,0,3.1,3.1A3.1,3.1,0,0,0,1827.883,80.753Z" transform="translate(-1793.808 -80.753)" fill="#606060"/>
        <path id="路径_1248" data-name="路径 1248" d="M1827.883,117.514a3.1,3.1,0,1,0,3.1,3.1A3.1,3.1,0,0,0,1827.883,117.514Z" transform="translate(-1793.808 -86.537)" fill="#606060"/>
        <path id="路径_1249" data-name="路径 1249" d="M1827.883,154.274a3.1,3.1,0,1,0,3.1,3.1A3.1,3.1,0,0,0,1827.883,154.274Z" transform="translate(-1793.808 -92.321)" fill="#606060"/>
        <path id="路径_1250" data-name="路径 1250" d="M1827.883,191.035a3.1,3.1,0,1,0,3.1,3.1A3.1,3.1,0,0,0,1827.883,191.035Z" transform="translate(-1793.808 -98.105)" fill="#606060"/>
        <path id="路径_1251" data-name="路径 1251" d="M1827.883,227.795a3.1,3.1,0,1,0,3.1,3.1A3.1,3.1,0,0,0,1827.883,227.795Z" transform="translate(-1793.808 -103.889)" fill="#606060"/>
        <path id="路径_1252" data-name="路径 1252" d="M2048.445,227.795a3.1,3.1,0,1,0,3.1,3.1A3.1,3.1,0,0,0,2048.445,227.795Z" transform="translate(-1828.512 -103.889)" fill="#606060"/>
        <path id="路径_1253" data-name="路径 1253" d="M2085.206,227.795a3.1,3.1,0,1,0,3.1,3.1A3.1,3.1,0,0,0,2085.206,227.795Z" transform="translate(-1834.296 -103.889)" fill="#606060"/>
        <path id="路径_1254" data-name="路径 1254" d="M2085.206,191.035a3.1,3.1,0,1,0,3.1,3.1A3.1,3.1,0,0,0,2085.206,191.035Z" transform="translate(-1834.296 -98.105)" fill="#606060"/>
        <path id="路径_1255" data-name="路径 1255" d="M2048.445,80.753a3.1,3.1,0,1,0,3.1,3.1A3.1,3.1,0,0,0,2048.445,80.753Z" transform="translate(-1828.512 -80.753)" fill="#606060"/>
        <path id="路径_1256" data-name="路径 1256" d="M2048.445,154.274a3.1,3.1,0,1,0,3.1,3.1A3.1,3.1,0,0,0,2048.445,154.274Z" transform="translate(-1828.512 -92.321)" fill="#606060"/>
        <path id="路径_1257" data-name="路径 1257" d="M2048.445,191.035a3.1,3.1,0,1,0,3.1,3.1A3.1,3.1,0,0,0,2048.445,191.035Z" transform="translate(-1828.512 -98.105)" fill="#606060"/>
        <path id="路径_1258" data-name="路径 1258" d="M2048.445,117.514a3.1,3.1,0,1,0,3.1,3.1A3.1,3.1,0,0,0,2048.445,117.514Z" transform="translate(-1828.512 -86.537)" fill="#606060"/>
        <path id="路径_1259" data-name="路径 1259" d="M2085.206,154.274a3.1,3.1,0,1,0,3.1,3.1A3.1,3.1,0,0,0,2085.206,154.274Z" transform="translate(-1834.296 -92.321)" fill="#606060"/>
        <path id="路径_1260" data-name="路径 1260" d="M1938.164,80.753a3.1,3.1,0,1,0,3.1,3.1A3.1,3.1,0,0,0,1938.164,80.753Z" transform="translate(-1811.16 -80.753)" fill="#606060"/>
        <path id="路径_1261" data-name="路径 1261" d="M2121.966,191.035a3.1,3.1,0,1,0,3.1,3.1A3.1,3.1,0,0,0,2121.966,191.035Z" transform="translate(-1840.08 -98.105)" fill="#606060"/>
        <path id="路径_1262" data-name="路径 1262" d="M2121.966,117.514a3.1,3.1,0,1,0,3.1,3.1A3.1,3.1,0,0,0,2121.966,117.514Z" transform="translate(-1840.08 -86.537)" fill="#606060"/>
        <path id="路径_1263" data-name="路径 1263" d="M2121.966,154.274a3.1,3.1,0,1,0,3.1,3.1A3.1,3.1,0,0,0,2121.966,154.274Z" transform="translate(-1840.08 -92.321)" fill="#606060"/>
        <path id="路径_1264" data-name="路径 1264" d="M2085.206,117.514a3.1,3.1,0,1,0,3.1,3.1A3.1,3.1,0,0,0,2085.206,117.514Z" transform="translate(-1834.296 -86.537)" fill="#606060"/>
        <path id="路径_1265" data-name="路径 1265" d="M2085.206,80.753a3.1,3.1,0,1,0,3.1,3.1A3.1,3.1,0,0,0,2085.206,80.753Z" transform="translate(-1834.296 -80.753)" fill="#606060"/>
        <path id="路径_1266" data-name="路径 1266" d="M2121.966,227.795a3.1,3.1,0,1,0,3.1,3.1A3.1,3.1,0,0,0,2121.966,227.795Z" transform="translate(-1840.08 -103.889)" fill="#606060"/>
        <path id="路径_1267" data-name="路径 1267" d="M1974.923,227.795a3.1,3.1,0,1,0,3.1,3.1A3.1,3.1,0,0,0,1974.923,227.795Z" transform="translate(-1816.944 -103.889)" fill="#606060"/>
        <path id="路径_1268" data-name="路径 1268" d="M1974.923,154.274a3.1,3.1,0,1,0,3.1,3.1A3.1,3.1,0,0,0,1974.923,154.274Z" transform="translate(-1816.944 -92.321)" fill="#606060"/>
        <path id="路径_1269" data-name="路径 1269" d="M1974.923,191.035a3.1,3.1,0,1,0,3.1,3.1A3.1,3.1,0,0,0,1974.923,191.035Z" transform="translate(-1816.944 -98.105)" fill="#606060"/>
        <path id="路径_1270" data-name="路径 1270" d="M1974.923,80.753a3.1,3.1,0,1,0,3.1,3.1A3.1,3.1,0,0,0,1974.923,80.753Z" transform="translate(-1816.944 -80.753)" fill="#606060"/>
        <path id="路径_1271" data-name="路径 1271" d="M1974.923,117.514a3.1,3.1,0,1,0,3.1,3.1A3.1,3.1,0,0,0,1974.923,117.514Z" transform="translate(-1816.944 -86.537)" fill="#606060"/>
        <path id="路径_1272" data-name="路径 1272" d="M2011.684,80.753a3.1,3.1,0,1,0,3.1,3.1A3.1,3.1,0,0,0,2011.684,80.753Z" transform="translate(-1822.728 -80.753)" fill="#606060"/>
        <path id="路径_1273" data-name="路径 1273" d="M2011.684,117.514a3.1,3.1,0,1,0,3.1,3.1A3.1,3.1,0,0,0,2011.684,117.514Z" transform="translate(-1822.728 -86.537)" fill="#606060"/>
        <path id="路径_1274" data-name="路径 1274" d="M2011.684,154.274a3.1,3.1,0,1,0,3.1,3.1A3.1,3.1,0,0,0,2011.684,154.274Z" transform="translate(-1822.728 -92.321)" fill="#606060"/>
        <path id="路径_1275" data-name="路径 1275" d="M2011.684,191.035a3.1,3.1,0,1,0,3.1,3.1A3.1,3.1,0,0,0,2011.684,191.035Z" transform="translate(-1822.728 -98.105)" fill="#606060"/>
        <path id="路径_1276" data-name="路径 1276" d="M2011.684,227.795a3.1,3.1,0,1,0,3.1,3.1A3.1,3.1,0,0,0,2011.684,227.795Z" transform="translate(-1822.728 -103.889)" fill="#606060"/>
        <path id="路径_1277" data-name="路径 1277" d="M1901.4,411.182a3.1,3.1,0,1,0,3.1,3.1A3.1,3.1,0,0,0,1901.4,411.182Z" transform="translate(-1805.376 -132.744)" fill="#606060"/>
        <path id="路径_1278" data-name="路径 1278" d="M1864.643,374.421a3.1,3.1,0,1,0,3.1,3.1A3.1,3.1,0,0,0,1864.643,374.421Z" transform="translate(-1799.592 -126.959)" fill="#606060"/>
        <path id="路径_1279" data-name="路径 1279" d="M1864.643,411.182a3.1,3.1,0,1,0,3.1,3.1A3.1,3.1,0,0,0,1864.643,411.182Z" transform="translate(-1799.592 -132.744)" fill="#606060"/>
        <path id="路径_1280" data-name="路径 1280" d="M1864.643,337.661a3.1,3.1,0,1,0,3.1,3.1A3.1,3.1,0,0,0,1864.643,337.661Z" transform="translate(-1799.592 -121.176)" fill="#606060"/>
        <path id="路径_1281" data-name="路径 1281" d="M1864.643,300.9a3.1,3.1,0,1,0,3.1,3.1A3.1,3.1,0,0,0,1864.643,300.9Z" transform="translate(-1799.592 -115.391)" fill="#606060"/>
        <path id="路径_1282" data-name="路径 1282" d="M1864.643,264.14a3.1,3.1,0,1,0,3.1,3.1A3.1,3.1,0,0,0,1864.643,264.14Z" transform="translate(-1799.592 -109.608)" fill="#606060"/>
        <path id="路径_1283" data-name="路径 1283" d="M1938.164,411.182a3.1,3.1,0,1,0,3.1,3.1A3.1,3.1,0,0,0,1938.164,411.182Z" transform="translate(-1811.16 -132.744)" fill="#606060"/>
        <path id="路径_1284" data-name="路径 1284" d="M1938.164,337.661a3.1,3.1,0,1,0,3.1,3.1A3.1,3.1,0,0,0,1938.164,337.661Z" transform="translate(-1811.16 -121.176)" fill="#606060"/>
        <path id="路径_1285" data-name="路径 1285" d="M1901.4,374.421a3.1,3.1,0,1,0,3.1,3.1A3.1,3.1,0,0,0,1901.4,374.421Z" transform="translate(-1805.376 -126.959)" fill="#606060"/>
        <path id="路径_1286" data-name="路径 1286" d="M1938.164,374.421a3.1,3.1,0,1,0,3.1,3.1A3.1,3.1,0,0,0,1938.164,374.421Z" transform="translate(-1811.16 -126.959)" fill="#606060"/>
        <path id="路径_1287" data-name="路径 1287" d="M1901.4,337.661a3.1,3.1,0,1,0,3.1,3.1A3.1,3.1,0,0,0,1901.4,337.661Z" transform="translate(-1805.376 -121.176)" fill="#606060"/>
        <path id="路径_1288" data-name="路径 1288" d="M1901.4,300.9a3.1,3.1,0,1,0,3.1,3.1A3.1,3.1,0,0,0,1901.4,300.9Z" transform="translate(-1805.376 -115.391)" fill="#606060"/>
        <path id="路径_1289" data-name="路径 1289" d="M1938.164,300.9a3.1,3.1,0,1,0,3.1,3.1A3.1,3.1,0,0,0,1938.164,300.9Z" transform="translate(-1811.16 -115.391)" fill="#606060"/>
        <path id="路径_1290" data-name="路径 1290" d="M1901.4,264.14a3.1,3.1,0,1,0,3.1,3.1A3.1,3.1,0,0,0,1901.4,264.14Z" transform="translate(-1805.376 -109.608)" fill="#606060"/>
        <path id="路径_1291" data-name="路径 1291" d="M1791.122,411.182a3.1,3.1,0,1,0,3.1,3.1A3.1,3.1,0,0,0,1791.122,411.182Z" transform="translate(-1788.024 -132.744)" fill="#606060"/>
        <path id="路径_1292" data-name="路径 1292" d="M1791.122,374.421a3.1,3.1,0,1,0,3.1,3.1A3.1,3.1,0,0,0,1791.122,374.421Z" transform="translate(-1788.024 -126.959)" fill="#606060"/>
        <path id="路径_1293" data-name="路径 1293" d="M1791.122,264.14a3.1,3.1,0,1,0,3.1,3.1A3.1,3.1,0,0,0,1791.122,264.14Z" transform="translate(-1788.024 -109.608)" fill="#606060"/>
        <path id="路径_1294" data-name="路径 1294" d="M1791.122,300.9a3.1,3.1,0,1,0,3.1,3.1A3.1,3.1,0,0,0,1791.122,300.9Z" transform="translate(-1788.024 -115.391)" fill="#606060"/>
        <path id="路径_1295" data-name="路径 1295" d="M1791.122,337.661a3.1,3.1,0,1,0,3.1,3.1A3.1,3.1,0,0,0,1791.122,337.661Z" transform="translate(-1788.024 -121.176)" fill="#606060"/>
        <path id="路径_1296" data-name="路径 1296" d="M2121.966,270.335a3.1,3.1,0,1,0-3.1-3.1A3.1,3.1,0,0,0,2121.966,270.335Z" transform="translate(-1840.08 -109.608)" fill="#606060"/>
        <path id="路径_1297" data-name="路径 1297" d="M1827.883,264.14a3.1,3.1,0,1,0,3.1,3.1A3.1,3.1,0,0,0,1827.883,264.14Z" transform="translate(-1793.808 -109.608)" fill="#606060"/>
        <path id="路径_1298" data-name="路径 1298" d="M1827.883,300.9a3.1,3.1,0,1,0,3.1,3.1A3.1,3.1,0,0,0,1827.883,300.9Z" transform="translate(-1793.808 -115.391)" fill="#606060"/>
        <path id="路径_1299" data-name="路径 1299" d="M1827.883,337.661a3.1,3.1,0,1,0,3.1,3.1A3.1,3.1,0,0,0,1827.883,337.661Z" transform="translate(-1793.808 -121.176)" fill="#606060"/>
        <path id="路径_1300" data-name="路径 1300" d="M1827.883,374.421a3.1,3.1,0,1,0,3.1,3.1A3.1,3.1,0,0,0,1827.883,374.421Z" transform="translate(-1793.808 -126.959)" fill="#606060"/>
        <path id="路径_1301" data-name="路径 1301" d="M1827.883,411.182a3.1,3.1,0,1,0,3.1,3.1A3.1,3.1,0,0,0,1827.883,411.182Z" transform="translate(-1793.808 -132.744)" fill="#606060"/>
        <path id="路径_1302" data-name="路径 1302" d="M2048.445,411.182a3.1,3.1,0,1,0,3.1,3.1A3.1,3.1,0,0,0,2048.445,411.182Z" transform="translate(-1828.512 -132.744)" fill="#606060"/>
        <path id="路径_1303" data-name="路径 1303" d="M2085.206,411.182a3.1,3.1,0,1,0,3.1,3.1A3.1,3.1,0,0,0,2085.206,411.182Z" transform="translate(-1834.296 -132.744)" fill="#606060"/>
        <path id="路径_1304" data-name="路径 1304" d="M2085.206,374.421a3.1,3.1,0,1,0,3.1,3.1A3.1,3.1,0,0,0,2085.206,374.421Z" transform="translate(-1834.296 -126.959)" fill="#606060"/>
        <path id="路径_1305" data-name="路径 1305" d="M2048.445,264.14a3.1,3.1,0,1,0,3.1,3.1A3.1,3.1,0,0,0,2048.445,264.14Z" transform="translate(-1828.512 -109.608)" fill="#606060"/>
        <path id="路径_1306" data-name="路径 1306" d="M2048.445,337.661a3.1,3.1,0,1,0,3.1,3.1A3.1,3.1,0,0,0,2048.445,337.661Z" transform="translate(-1828.512 -121.176)" fill="#606060"/>
        <path id="路径_1307" data-name="路径 1307" d="M2048.445,374.421a3.1,3.1,0,1,0,3.1,3.1A3.1,3.1,0,0,0,2048.445,374.421Z" transform="translate(-1828.512 -126.959)" fill="#606060"/>
        <path id="路径_1308" data-name="路径 1308" d="M2048.445,300.9a3.1,3.1,0,1,0,3.1,3.1A3.1,3.1,0,0,0,2048.445,300.9Z" transform="translate(-1828.512 -115.391)" fill="#606060"/>
        <path id="路径_1309" data-name="路径 1309" d="M2085.206,337.661a3.1,3.1,0,1,0,3.1,3.1A3.1,3.1,0,0,0,2085.206,337.661Z" transform="translate(-1834.296 -121.176)" fill="#606060"/>
        <path id="路径_1310" data-name="路径 1310" d="M1938.164,264.14a3.1,3.1,0,1,0,3.1,3.1A3.1,3.1,0,0,0,1938.164,264.14Z" transform="translate(-1811.16 -109.608)" fill="#606060"/>
        <path id="路径_1311" data-name="路径 1311" d="M2121.966,374.421a3.1,3.1,0,1,0,3.1,3.1A3.1,3.1,0,0,0,2121.966,374.421Z" transform="translate(-1840.08 -126.959)" fill="#606060"/>
        <path id="路径_1312" data-name="路径 1312" d="M2121.966,300.9a3.1,3.1,0,1,0,3.1,3.1A3.1,3.1,0,0,0,2121.966,300.9Z" transform="translate(-1840.08 -115.391)" fill="#606060"/>
        <path id="路径_1313" data-name="路径 1313" d="M2121.966,337.661a3.1,3.1,0,1,0,3.1,3.1A3.1,3.1,0,0,0,2121.966,337.661Z" transform="translate(-1840.08 -121.176)" fill="#606060"/>
        <path id="路径_1314" data-name="路径 1314" d="M2085.206,300.9a3.1,3.1,0,1,0,3.1,3.1A3.1,3.1,0,0,0,2085.206,300.9Z" transform="translate(-1834.296 -115.391)" fill="#606060"/>
        <path id="路径_1315" data-name="路径 1315" d="M2085.206,264.14a3.1,3.1,0,1,0,3.1,3.1A3.1,3.1,0,0,0,2085.206,264.14Z" transform="translate(-1834.296 -109.608)" fill="#606060"/>
        <path id="路径_1316" data-name="路径 1316" d="M2121.966,411.182a3.1,3.1,0,1,0,3.1,3.1A3.1,3.1,0,0,0,2121.966,411.182Z" transform="translate(-1840.08 -132.744)" fill="#606060"/>
        <path id="路径_1317" data-name="路径 1317" d="M1974.923,411.182a3.1,3.1,0,1,0,3.1,3.1A3.1,3.1,0,0,0,1974.923,411.182Z" transform="translate(-1816.944 -132.744)" fill="#606060"/>
        <path id="路径_1318" data-name="路径 1318" d="M1974.923,337.661a3.1,3.1,0,1,0,3.1,3.1A3.1,3.1,0,0,0,1974.923,337.661Z" transform="translate(-1816.944 -121.176)" fill="#606060"/>
        <path id="路径_1319" data-name="路径 1319" d="M1974.923,374.421a3.1,3.1,0,1,0,3.1,3.1A3.1,3.1,0,0,0,1974.923,374.421Z" transform="translate(-1816.944 -126.959)" fill="#606060"/>
        <path id="路径_1320" data-name="路径 1320" d="M1974.923,264.14a3.1,3.1,0,1,0,3.1,3.1A3.1,3.1,0,0,0,1974.923,264.14Z" transform="translate(-1816.944 -109.608)" fill="#606060"/>
        <path id="路径_1321" data-name="路径 1321" d="M1974.923,300.9a3.1,3.1,0,1,0,3.1,3.1A3.1,3.1,0,0,0,1974.923,300.9Z" transform="translate(-1816.944 -115.391)" fill="#606060"/>
        <path id="路径_1322" data-name="路径 1322" d="M2011.684,264.14a3.1,3.1,0,1,0,3.1,3.1A3.1,3.1,0,0,0,2011.684,264.14Z" transform="translate(-1822.728 -109.608)" fill="#606060"/>
        <path id="路径_1323" data-name="路径 1323" d="M2011.684,300.9a3.1,3.1,0,1,0,3.1,3.1A3.1,3.1,0,0,0,2011.684,300.9Z" transform="translate(-1822.728 -115.391)" fill="#606060"/>
        <path id="路径_1324" data-name="路径 1324" d="M2011.684,337.661a3.1,3.1,0,1,0,3.1,3.1A3.1,3.1,0,0,0,2011.684,337.661Z" transform="translate(-1822.728 -121.176)" fill="#606060"/>
        <path id="路径_1325" data-name="路径 1325" d="M2011.684,374.421a3.1,3.1,0,1,0,3.1,3.1A3.1,3.1,0,0,0,2011.684,374.421Z" transform="translate(-1822.728 -126.959)" fill="#606060"/>
        <path id="路径_1326" data-name="路径 1326" d="M2011.684,411.182a3.1,3.1,0,1,0,3.1,3.1A3.1,3.1,0,0,0,2011.684,411.182Z" transform="translate(-1822.728 -132.744)" fill="#606060"/>
      </g>
    </g>
  </g>
</svg>
