<svg id="图层_2" data-name="图层 2" xmlns="http://www.w3.org/2000/svg" width="699.48" height="474.817" viewBox="0 0 699.48 474.817">
  <g id="组_154" data-name="组 154" transform="translate(0)">
    <g id="组_151" data-name="组 151" transform="translate(30.834)">
      <g id="组_140" data-name="组 140" transform="translate(1.67 461.97)">
        <g id="组_139" data-name="组 139">
          <path id="路径_1871" data-name="路径 1871" d="M900.389,827.759V840.32H898.75v-5.808h-6.379v5.808H890.75V827.759h1.621v5.434h6.379v-5.434Z" transform="translate(-890.75 -827.598)" fill="#fff"/>
          <path id="路径_1872" data-name="路径 1872" d="M915.792,837.48h-5.524l-1.051,2.9h-1.746l4.65-12.33h1.835l4.633,12.33h-1.746Zm-.463-1.265-2.3-6.343-2.3,6.343Z" transform="translate(-894.411 -827.663)" fill="#fff"/>
          <path id="路径_1873" data-name="路径 1873" d="M927.706,835.259v5.06h-1.621V827.759h3.991a4.551,4.551,0,0,1,3.225,1.007,3.6,3.6,0,0,1,1.069,2.753,3.5,3.5,0,0,1-1.105,2.752,4.627,4.627,0,0,1-3.189.989Zm4.357-1.978a2.751,2.751,0,0,0,0-3.554,3.035,3.035,0,0,0-2.129-.616h-2.228v4.793h2.228A3.012,3.012,0,0,0,932.062,833.282Z" transform="translate(-898.486 -827.598)" fill="#fff"/>
          <path id="路径_1874" data-name="路径 1874" d="M943.013,835.259v5.06h-1.621V827.759h3.991a4.551,4.551,0,0,1,3.225,1.007,3.6,3.6,0,0,1,1.069,2.753,3.505,3.505,0,0,1-1.1,2.752,4.63,4.63,0,0,1-3.19.989Zm4.356-1.978a2.751,2.751,0,0,0,0-3.554,3.035,3.035,0,0,0-2.129-.616h-2.227v4.793h2.227A3.012,3.012,0,0,0,947.369,833.282Z" transform="translate(-901.838 -827.598)" fill="#fff"/>
          <path id="路径_1875" data-name="路径 1875" d="M965.355,827.759l-4.115,7.8v4.757H959.6v-4.757l-4.133-7.8h1.889l3.082,6.075,3.065-6.075Z" transform="translate(-904.919 -827.598)" fill="#fff"/>
          <path id="路径_1876" data-name="路径 1876" d="M987.511,837.48h-5.524l-1.051,2.9h-1.746l4.65-12.33h1.835l4.632,12.33h-1.746Zm-.463-1.265-2.3-6.343-2.3,6.343Z" transform="translate(-910.114 -827.663)" fill="#fff"/>
          <path id="路径_1877" data-name="路径 1877" d="M1007.568,840.32h-1.621l-6.521-9.924v9.924H997.8V827.759h1.621l6.521,9.942v-9.942h1.621Z" transform="translate(-914.189 -827.598)" fill="#fff"/>
          <path id="路径_1878" data-name="路径 1878" d="M1025.68,840.32h-1.622l-6.521-9.924v9.924h-1.621V827.759h1.621l6.521,9.942v-9.942h1.622Z" transform="translate(-918.154 -827.598)" fill="#fff"/>
          <path id="路径_1879" data-name="路径 1879" d="M1035.65,827.759V840.32h-1.621V827.759Z" transform="translate(-922.12 -827.598)" fill="#fff"/>
          <path id="路径_1880" data-name="路径 1880" d="M1042.268,827.759l3.83,10.761,3.884-10.761h1.764l-4.615,12.561h-2.049l-4.6-12.561Z" transform="translate(-923.534 -827.598)" fill="#fff"/>
          <path id="路径_1881" data-name="路径 1881" d="M1060.9,829.077v4.293h4.776v1.248H1060.9V839h5.309v1.318h-6.93V827.759h6.93v1.318Z" transform="translate(-927.649 -827.598)" fill="#fff"/>
          <path id="路径_1882" data-name="路径 1882" d="M1079.769,840.32l-3.278-5.132h-1.764v5.132h-1.621V827.759h4.134a4.473,4.473,0,0,1,3.207,1.025,3.588,3.588,0,0,1,1.069,2.717,3.512,3.512,0,0,1-.855,2.468,4,4,0,0,1-2.476,1.167l3.421,5.185Zm-5.042-6.308h2.37q2.761,0,2.762-2.423t-2.762-2.424h-2.37Z" transform="translate(-930.676 -827.598)" fill="#fff"/>
          <path id="路径_1883" data-name="路径 1883" d="M1096.085,838.671a3.221,3.221,0,0,1-1.3,1.247,4.415,4.415,0,0,1-2.156.481,5.175,5.175,0,0,1-2.218-.455,3.941,3.941,0,0,1-1.55-1.247,3.522,3.522,0,0,1-.669-1.809h1.729a2.454,2.454,0,0,0,1.257,1.881,2.783,2.783,0,0,0,1.4.329,2.219,2.219,0,0,0,1.639-.57,1.978,1.978,0,0,0,.57-1.46,1.89,1.89,0,0,0-.4-1.247,2.85,2.85,0,0,0-.99-.758,13.392,13.392,0,0,0-1.6-.6,16.34,16.34,0,0,1-1.915-.74,3.273,3.273,0,0,1-1.229-1.043,3.037,3.037,0,0,1-.508-1.835,3.173,3.173,0,0,1,.473-1.729,3.1,3.1,0,0,1,1.354-1.158,4.889,4.889,0,0,1,2.075-.41,4.472,4.472,0,0,1,2.94.9,3.444,3.444,0,0,1,1.265,2.289H1094.5a2.363,2.363,0,0,0-.766-1.318,2.415,2.415,0,0,0-1.693-.57,2.313,2.313,0,0,0-1.568.508,1.791,1.791,0,0,0-.588,1.434,1.773,1.773,0,0,0,.384,1.185,2.663,2.663,0,0,0,.953.712,15.222,15.222,0,0,0,1.568.58,15.953,15.953,0,0,1,1.951.748A3.307,3.307,0,0,1,1096,835.1a3.224,3.224,0,0,1,.516,1.915A3.344,3.344,0,0,1,1096.085,838.671Z" transform="translate(-933.967 -827.553)" fill="#fff"/>
          <path id="路径_1884" data-name="路径 1884" d="M1111.013,837.48h-5.523l-1.051,2.9h-1.746l4.65-12.33h1.836l4.632,12.33h-1.746Zm-.463-1.265-2.3-6.343-2.3,6.343Z" transform="translate(-937.154 -827.663)" fill="#fff"/>
          <path id="路径_1885" data-name="路径 1885" d="M1127.97,840.32l-3.278-5.132h-1.764v5.132h-1.621V827.759h4.134a4.473,4.473,0,0,1,3.207,1.025,3.588,3.588,0,0,1,1.068,2.717,3.513,3.513,0,0,1-.855,2.468,3.993,3.993,0,0,1-2.476,1.167l3.421,5.185Zm-5.042-6.308h2.37q2.761,0,2.762-2.423t-2.762-2.424h-2.37Z" transform="translate(-941.229 -827.598)" fill="#fff"/>
          <path id="路径_1886" data-name="路径 1886" d="M1145.544,827.759l-4.115,7.8v4.757h-1.639v-4.757l-4.133-7.8h1.888l3.082,6.075,3.065-6.075Z" transform="translate(-944.371 -827.598)" fill="#fff"/>
        </g>
      </g>
      <g id="组_142" data-name="组 142" transform="translate(219.404 461.97)">
        <g id="组_141" data-name="组 141">
          <path id="路径_1887" data-name="路径 1887" d="M1179.159,827.759V840.32h-1.639v-5.808h-6.379v5.808h-1.621V827.759h1.621v5.434h6.379v-5.434Z" transform="translate(-1169.519 -827.598)" fill="#fff"/>
          <path id="路径_1888" data-name="路径 1888" d="M1194.561,837.48h-5.523l-1.051,2.9h-1.746l4.65-12.33h1.835l4.633,12.33h-1.746Zm-.463-1.265-2.3-6.343-2.3,6.343Z" transform="translate(-1173.18 -827.663)" fill="#fff"/>
          <path id="路径_1889" data-name="路径 1889" d="M1206.476,835.259v5.06h-1.622V827.759h3.991a4.552,4.552,0,0,1,3.225,1.007,3.6,3.6,0,0,1,1.069,2.753,3.5,3.5,0,0,1-1.1,2.752,4.628,4.628,0,0,1-3.19.989Zm4.356-1.978a2.752,2.752,0,0,0,0-3.554,3.032,3.032,0,0,0-2.128-.616h-2.227v4.793h2.227A3.009,3.009,0,0,0,1210.831,833.282Z" transform="translate(-1177.255 -827.598)" fill="#fff"/>
          <path id="路径_1890" data-name="路径 1890" d="M1221.782,835.259v5.06h-1.621V827.759h3.991a4.55,4.55,0,0,1,3.225,1.007,3.6,3.6,0,0,1,1.069,2.753,3.505,3.505,0,0,1-1.1,2.752,4.629,4.629,0,0,1-3.19.989Zm4.357-1.978a2.754,2.754,0,0,0,0-3.554,3.036,3.036,0,0,0-2.129-.616h-2.228v4.793h2.228A3.013,3.013,0,0,0,1226.139,833.282Z" transform="translate(-1180.607 -827.598)" fill="#fff"/>
          <path id="路径_1891" data-name="路径 1891" d="M1244.124,827.759l-4.115,7.8v4.757h-1.639v-4.757l-4.134-7.8h1.889l3.083,6.075,3.065-6.075Z" transform="translate(-1183.688 -827.598)" fill="#fff"/>
          <path id="路径_1892" data-name="路径 1892" d="M1266.281,837.48h-5.524l-1.051,2.9h-1.746l4.65-12.33h1.836l4.632,12.33h-1.746Zm-.463-1.265-2.3-6.343-2.3,6.343Z" transform="translate(-1188.883 -827.663)" fill="#fff"/>
          <path id="路径_1893" data-name="路径 1893" d="M1286.338,840.32h-1.621L1278.2,830.4v9.924h-1.621V827.759h1.621l6.521,9.942v-9.942h1.621Z" transform="translate(-1192.958 -827.598)" fill="#fff"/>
          <path id="路径_1894" data-name="路径 1894" d="M1304.45,840.32h-1.621l-6.521-9.924v9.924h-1.621V827.759h1.621l6.521,9.942v-9.942h1.621Z" transform="translate(-1196.924 -827.598)" fill="#fff"/>
          <path id="路径_1895" data-name="路径 1895" d="M1314.42,827.759V840.32H1312.8V827.759Z" transform="translate(-1200.889 -827.598)" fill="#fff"/>
          <path id="路径_1896" data-name="路径 1896" d="M1321.036,827.759l3.831,10.761,3.884-10.761h1.764L1325.9,840.32h-2.05l-4.6-12.561Z" transform="translate(-1202.303 -827.598)" fill="#fff"/>
          <path id="路径_1897" data-name="路径 1897" d="M1339.672,829.077v4.293h4.776v1.248h-4.776V839h5.31v1.318h-6.931V827.759h6.931v1.318Z" transform="translate(-1206.418 -827.598)" fill="#fff"/>
          <path id="路径_1898" data-name="路径 1898" d="M1358.539,840.32l-3.278-5.132H1353.5v5.132h-1.621V827.759h4.134a4.474,4.474,0,0,1,3.207,1.025,3.586,3.586,0,0,1,1.069,2.717,3.513,3.513,0,0,1-.856,2.468,3.992,3.992,0,0,1-2.476,1.167l3.421,5.185Zm-5.042-6.308h2.37q2.761,0,2.762-2.423t-2.762-2.424h-2.37Z" transform="translate(-1209.445 -827.598)" fill="#fff"/>
          <path id="路径_1899" data-name="路径 1899" d="M1374.854,838.671a3.217,3.217,0,0,1-1.3,1.247,4.412,4.412,0,0,1-2.156.481,5.172,5.172,0,0,1-2.218-.455,3.944,3.944,0,0,1-1.55-1.247,3.536,3.536,0,0,1-.669-1.809h1.728a2.456,2.456,0,0,0,1.257,1.881,2.788,2.788,0,0,0,1.4.329,2.217,2.217,0,0,0,1.639-.57,1.978,1.978,0,0,0,.57-1.46,1.885,1.885,0,0,0-.4-1.247,2.834,2.834,0,0,0-.99-.758,13.352,13.352,0,0,0-1.6-.6,16.362,16.362,0,0,1-1.916-.74,3.27,3.27,0,0,1-1.229-1.043,3.038,3.038,0,0,1-.508-1.835,3.173,3.173,0,0,1,.472-1.729,3.1,3.1,0,0,1,1.355-1.158,4.89,4.89,0,0,1,2.075-.41,4.475,4.475,0,0,1,2.94.9,3.45,3.45,0,0,1,1.265,2.289h-1.746a2.37,2.37,0,0,0-.766-1.318,2.413,2.413,0,0,0-1.693-.57,2.312,2.312,0,0,0-1.568.508,2.035,2.035,0,0,0-.205,2.619,2.659,2.659,0,0,0,.954.712,15.2,15.2,0,0,0,1.568.58,15.859,15.859,0,0,1,1.951.748,3.3,3.3,0,0,1,1.256,1.078,3.223,3.223,0,0,1,.517,1.915A3.337,3.337,0,0,1,1374.854,838.671Z" transform="translate(-1212.736 -827.553)" fill="#fff"/>
          <path id="路径_1900" data-name="路径 1900" d="M1389.783,837.48h-5.524l-1.051,2.9h-1.746l4.651-12.33h1.835l4.632,12.33h-1.745Zm-.463-1.265-2.3-6.343-2.3,6.343Z" transform="translate(-1215.923 -827.663)" fill="#fff"/>
          <path id="路径_1901" data-name="路径 1901" d="M1406.739,840.32l-3.278-5.132H1401.7v5.132h-1.621V827.759h4.133a4.474,4.474,0,0,1,3.208,1.025,3.588,3.588,0,0,1,1.069,2.717,3.516,3.516,0,0,1-.855,2.468,4,4,0,0,1-2.476,1.167l3.42,5.185Zm-5.043-6.308h2.37q2.762,0,2.763-2.423t-2.763-2.424h-2.37Z" transform="translate(-1219.998 -827.598)" fill="#fff"/>
          <path id="路径_1902" data-name="路径 1902" d="M1424.313,827.759l-4.115,7.8v4.757h-1.64v-4.757l-4.133-7.8h1.889l3.082,6.075,3.065-6.075Z" transform="translate(-1223.14 -827.598)" fill="#fff"/>
        </g>
      </g>
      <g id="组_144" data-name="组 144" transform="translate(437.139 461.97)">
        <g id="组_143" data-name="组 143">
          <path id="路径_1903" data-name="路径 1903" d="M1457.928,827.759V840.32h-1.639v-5.808h-6.379v5.808h-1.621V827.759h1.621v5.434h6.379v-5.434Z" transform="translate(-1448.289 -827.598)" fill="#fff"/>
          <path id="路径_1904" data-name="路径 1904" d="M1473.33,837.48h-5.524l-1.051,2.9h-1.745l4.65-12.33h1.835l4.632,12.33h-1.745Zm-.463-1.265-2.3-6.343-2.3,6.343Z" transform="translate(-1451.95 -827.663)" fill="#fff"/>
          <path id="路径_1905" data-name="路径 1905" d="M1485.245,835.259v5.06h-1.621V827.759h3.99a4.553,4.553,0,0,1,3.226,1.007,3.6,3.6,0,0,1,1.069,2.753,3.506,3.506,0,0,1-1.105,2.752,4.627,4.627,0,0,1-3.19.989Zm4.357-1.978a2.751,2.751,0,0,0,0-3.554,3.035,3.035,0,0,0-2.129-.616h-2.228v4.793h2.228A3.011,3.011,0,0,0,1489.6,833.282Z" transform="translate(-1456.025 -827.598)" fill="#fff"/>
          <path id="路径_1906" data-name="路径 1906" d="M1500.552,835.259v5.06h-1.621V827.759h3.991a4.551,4.551,0,0,1,3.225,1.007,3.6,3.6,0,0,1,1.069,2.753,3.5,3.5,0,0,1-1.1,2.752,4.63,4.63,0,0,1-3.19.989Zm4.356-1.978a2.751,2.751,0,0,0,0-3.554,3.035,3.035,0,0,0-2.129-.616h-2.227v4.793h2.227A3.011,3.011,0,0,0,1504.908,833.282Z" transform="translate(-1459.377 -827.598)" fill="#fff"/>
          <path id="路径_1907" data-name="路径 1907" d="M1522.894,827.759l-4.115,7.8v4.757h-1.639v-4.757l-4.133-7.8h1.889l3.082,6.075,3.065-6.075Z" transform="translate(-1462.458 -827.598)" fill="#fff"/>
          <path id="路径_1908" data-name="路径 1908" d="M1545.051,837.48h-5.524l-1.051,2.9h-1.746l4.65-12.33h1.835l4.632,12.33H1546.1Zm-.463-1.265-2.3-6.343-2.3,6.343Z" transform="translate(-1467.653 -827.663)" fill="#fff"/>
          <path id="路径_1909" data-name="路径 1909" d="M1565.107,840.32h-1.622l-6.521-9.924v9.924h-1.621V827.759h1.621l6.521,9.942v-9.942h1.622Z" transform="translate(-1471.728 -827.598)" fill="#fff"/>
          <path id="路径_1910" data-name="路径 1910" d="M1583.22,840.32H1581.6l-6.521-9.924v9.924h-1.621V827.759h1.621l6.521,9.942v-9.942h1.622Z" transform="translate(-1475.694 -827.598)" fill="#fff"/>
          <path id="路径_1911" data-name="路径 1911" d="M1593.189,827.759V840.32h-1.622V827.759Z" transform="translate(-1479.659 -827.598)" fill="#fff"/>
          <path id="路径_1912" data-name="路径 1912" d="M1599.807,827.759l3.83,10.761,3.884-10.761h1.764l-4.615,12.561h-2.049l-4.6-12.561Z" transform="translate(-1481.073 -827.598)" fill="#fff"/>
          <path id="路径_1913" data-name="路径 1913" d="M1618.441,829.077v4.293h4.776v1.248h-4.776V839h5.31v1.318h-6.931V827.759h6.931v1.318Z" transform="translate(-1485.188 -827.598)" fill="#fff"/>
          <path id="路径_1914" data-name="路径 1914" d="M1637.308,840.32l-3.278-5.132h-1.764v5.132h-1.621V827.759h4.134a4.473,4.473,0,0,1,3.207,1.025,3.588,3.588,0,0,1,1.069,2.717,3.513,3.513,0,0,1-.855,2.468,4,4,0,0,1-2.476,1.167l3.421,5.185Zm-5.042-6.308h2.37q2.762,0,2.762-2.423t-2.762-2.424h-2.37Z" transform="translate(-1488.215 -827.598)" fill="#fff"/>
          <path id="路径_1915" data-name="路径 1915" d="M1653.624,838.671a3.224,3.224,0,0,1-1.3,1.247,4.416,4.416,0,0,1-2.157.481,5.175,5.175,0,0,1-2.218-.455,3.941,3.941,0,0,1-1.55-1.247,3.523,3.523,0,0,1-.669-1.809h1.729a2.456,2.456,0,0,0,1.256,1.881,2.789,2.789,0,0,0,1.4.329,2.218,2.218,0,0,0,1.639-.57,1.979,1.979,0,0,0,.57-1.46,1.889,1.889,0,0,0-.4-1.247,2.849,2.849,0,0,0-.99-.758,13.364,13.364,0,0,0-1.6-.6,16.326,16.326,0,0,1-1.915-.74,3.269,3.269,0,0,1-1.229-1.043,3.038,3.038,0,0,1-.508-1.835,3.173,3.173,0,0,1,.473-1.729,3.1,3.1,0,0,1,1.354-1.158,4.89,4.89,0,0,1,2.075-.41,4.472,4.472,0,0,1,2.94.9,3.444,3.444,0,0,1,1.265,2.289h-1.746a2.366,2.366,0,0,0-.766-1.318,2.415,2.415,0,0,0-1.693-.57,2.313,2.313,0,0,0-1.568.508,2.033,2.033,0,0,0-.2,2.619,2.663,2.663,0,0,0,.953.712,15.218,15.218,0,0,0,1.568.58,15.959,15.959,0,0,1,1.951.748,3.307,3.307,0,0,1,1.256,1.078,3.223,3.223,0,0,1,.516,1.915A3.345,3.345,0,0,1,1653.624,838.671Z" transform="translate(-1491.506 -827.553)" fill="#fff"/>
          <path id="路径_1916" data-name="路径 1916" d="M1668.552,837.48h-5.523l-1.051,2.9h-1.746l4.65-12.33h1.835l4.632,12.33H1669.6Zm-.463-1.265-2.3-6.343-2.3,6.343Z" transform="translate(-1494.693 -827.663)" fill="#fff"/>
          <path id="路径_1917" data-name="路径 1917" d="M1685.509,840.32l-3.278-5.132h-1.764v5.132h-1.621V827.759h4.134a4.473,4.473,0,0,1,3.207,1.025,3.588,3.588,0,0,1,1.069,2.717,3.512,3.512,0,0,1-.855,2.468,4,4,0,0,1-2.476,1.167l3.421,5.185Zm-5.042-6.308h2.37q2.761,0,2.762-2.423t-2.762-2.424h-2.37Z" transform="translate(-1498.768 -827.598)" fill="#fff"/>
          <path id="路径_1918" data-name="路径 1918" d="M1703.083,827.759l-4.115,7.8v4.757h-1.64v-4.757l-4.133-7.8h1.889l3.082,6.075,3.065-6.075Z" transform="translate(-1501.91 -827.598)" fill="#fff"/>
        </g>
      </g>
      <g id="组_146" data-name="组 146">
        <g id="组_145" data-name="组 145">
          <path id="路径_1919" data-name="路径 1919" d="M898.252,236.289V248.85h-1.639v-5.808h-6.379v5.808h-1.622V236.289h1.622v5.435h6.379v-5.435Z" transform="translate(-888.612 -236.129)" fill="#fff"/>
          <path id="路径_1920" data-name="路径 1920" d="M913.654,246.011H908.13l-1.051,2.9h-1.746l4.65-12.329h1.836l4.632,12.329h-1.746Zm-.463-1.265-2.3-6.343-2.3,6.343Z" transform="translate(-892.273 -236.194)" fill="#fff"/>
          <path id="路径_1921" data-name="路径 1921" d="M925.568,243.79v5.06h-1.621V236.289h3.991a4.555,4.555,0,0,1,3.225,1.007,3.6,3.6,0,0,1,1.069,2.753,3.506,3.506,0,0,1-1.1,2.752,4.633,4.633,0,0,1-3.19.989Zm4.356-1.978a2.753,2.753,0,0,0,0-3.555,3.037,3.037,0,0,0-2.128-.615h-2.228v4.793H927.8A3.009,3.009,0,0,0,929.924,241.813Z" transform="translate(-896.348 -236.129)" fill="#fff"/>
          <path id="路径_1922" data-name="路径 1922" d="M940.875,243.79v5.06h-1.621V236.289h3.991a4.555,4.555,0,0,1,3.225,1.007,3.6,3.6,0,0,1,1.069,2.753,3.506,3.506,0,0,1-1.1,2.752,4.633,4.633,0,0,1-3.19.989Zm4.356-1.978a2.753,2.753,0,0,0,0-3.555,3.037,3.037,0,0,0-2.128-.615h-2.228v4.793H943.1A3.009,3.009,0,0,0,945.231,241.813Z" transform="translate(-899.7 -236.129)" fill="#fff"/>
          <path id="路径_1923" data-name="路径 1923" d="M963.217,236.289l-4.115,7.8v4.757h-1.639v-4.757l-4.133-7.8h1.889l3.082,6.076,3.065-6.076Z" transform="translate(-902.781 -236.129)" fill="#fff"/>
          <path id="路径_1924" data-name="路径 1924" d="M985.374,246.011H979.85l-1.051,2.9h-1.746l4.65-12.329h1.835l4.633,12.329h-1.746Zm-.463-1.265-2.3-6.343-2.3,6.343Z" transform="translate(-907.976 -236.194)" fill="#fff"/>
          <path id="路径_1925" data-name="路径 1925" d="M1005.431,248.85h-1.622l-6.521-9.924v9.924h-1.621V236.289h1.621l6.521,9.942v-9.942h1.622Z" transform="translate(-912.051 -236.129)" fill="#fff"/>
          <path id="路径_1926" data-name="路径 1926" d="M1023.543,248.85h-1.621l-6.521-9.924v9.924h-1.621V236.289h1.621l6.521,9.942v-9.942h1.621Z" transform="translate(-916.016 -236.129)" fill="#fff"/>
          <path id="路径_1927" data-name="路径 1927" d="M1033.513,236.289V248.85h-1.621V236.289Z" transform="translate(-919.982 -236.129)" fill="#fff"/>
          <path id="路径_1928" data-name="路径 1928" d="M1040.13,236.289l3.831,10.761,3.884-10.761h1.764l-4.615,12.561h-2.049l-4.6-12.561Z" transform="translate(-921.396 -236.129)" fill="#fff"/>
          <path id="路径_1929" data-name="路径 1929" d="M1058.765,237.607V241.9h4.775v1.247h-4.775v4.383h5.31v1.318h-6.931V236.289h6.931v1.318Z" transform="translate(-925.511 -236.129)" fill="#fff"/>
          <path id="路径_1930" data-name="路径 1930" d="M1077.632,248.85l-3.278-5.131h-1.764v5.131h-1.621V236.289h4.134a4.477,4.477,0,0,1,3.207,1.025,3.591,3.591,0,0,1,1.068,2.717,3.509,3.509,0,0,1-.855,2.467,3.989,3.989,0,0,1-2.476,1.167l3.421,5.185Zm-5.042-6.307h2.37q2.761,0,2.762-2.423t-2.762-2.424h-2.37Z" transform="translate(-928.538 -236.129)" fill="#fff"/>
          <path id="路径_1931" data-name="路径 1931" d="M1093.947,247.2a3.209,3.209,0,0,1-1.3,1.247,4.413,4.413,0,0,1-2.156.481,5.161,5.161,0,0,1-2.218-.455,3.936,3.936,0,0,1-1.55-1.247,3.535,3.535,0,0,1-.669-1.809h1.729a2.452,2.452,0,0,0,1.257,1.88,2.776,2.776,0,0,0,1.4.33,2.219,2.219,0,0,0,1.639-.57,1.98,1.98,0,0,0,.57-1.461,1.887,1.887,0,0,0-.4-1.247,2.832,2.832,0,0,0-.99-.758,13.411,13.411,0,0,0-1.6-.6,16.078,16.078,0,0,1-1.916-.74,3.259,3.259,0,0,1-1.229-1.043,3.041,3.041,0,0,1-.508-1.835,3.172,3.172,0,0,1,.472-1.728,3.1,3.1,0,0,1,1.355-1.158,4.89,4.89,0,0,1,2.075-.409,4.471,4.471,0,0,1,2.94.9,3.445,3.445,0,0,1,1.265,2.289h-1.746a2.363,2.363,0,0,0-.766-1.318,2.414,2.414,0,0,0-1.693-.57,2.319,2.319,0,0,0-1.568.508,2.037,2.037,0,0,0-.2,2.62,2.666,2.666,0,0,0,.954.712,15.233,15.233,0,0,0,1.568.579,15.952,15.952,0,0,1,1.951.749,3.293,3.293,0,0,1,1.256,1.078,3.222,3.222,0,0,1,.517,1.915A3.344,3.344,0,0,1,1093.947,247.2Z" transform="translate(-931.829 -236.084)" fill="#fff"/>
          <path id="路径_1932" data-name="路径 1932" d="M1108.876,246.011h-5.524l-1.051,2.9h-1.746l4.65-12.329h1.835l4.632,12.329h-1.746Zm-.463-1.265-2.3-6.343-2.3,6.343Z" transform="translate(-935.016 -236.194)" fill="#fff"/>
          <path id="路径_1933" data-name="路径 1933" d="M1125.832,248.85l-3.278-5.131h-1.764v5.131h-1.621V236.289h4.133a4.478,4.478,0,0,1,3.208,1.025,3.591,3.591,0,0,1,1.068,2.717,3.512,3.512,0,0,1-.855,2.467,3.991,3.991,0,0,1-2.477,1.167l3.421,5.185Zm-5.042-6.307h2.37q2.763,0,2.763-2.423t-2.763-2.424h-2.37Z" transform="translate(-939.091 -236.129)" fill="#fff"/>
          <path id="路径_1934" data-name="路径 1934" d="M1143.406,236.289l-4.115,7.8v4.757h-1.639v-4.757l-4.133-7.8h1.889l3.082,6.076,3.065-6.076Z" transform="translate(-942.233 -236.129)" fill="#fff"/>
        </g>
      </g>
      <g id="组_148" data-name="组 148" transform="translate(217.877)">
        <g id="组_147" data-name="组 147">
          <path id="路径_1935" data-name="路径 1935" d="M1177.2,236.289V248.85h-1.639v-5.808h-6.379v5.808h-1.622V236.289h1.622v5.435h6.379v-5.435Z" transform="translate(-1167.564 -236.129)" fill="#fff"/>
          <path id="路径_1936" data-name="路径 1936" d="M1192.606,246.011h-5.523l-1.051,2.9h-1.746l4.65-12.329h1.836l4.632,12.329h-1.746Zm-.463-1.265-2.3-6.343-2.3,6.343Z" transform="translate(-1171.225 -236.194)" fill="#fff"/>
          <path id="路径_1937" data-name="路径 1937" d="M1204.521,243.79v5.06H1202.9V236.289h3.991a4.555,4.555,0,0,1,3.225,1.007,3.6,3.6,0,0,1,1.069,2.753,3.506,3.506,0,0,1-1.1,2.752,4.633,4.633,0,0,1-3.19.989Zm4.356-1.978a2.752,2.752,0,0,0,0-3.555,3.037,3.037,0,0,0-2.128-.615h-2.228v4.793h2.228A3.009,3.009,0,0,0,1208.876,241.813Z" transform="translate(-1175.3 -236.129)" fill="#fff"/>
          <path id="路径_1938" data-name="路径 1938" d="M1219.827,243.79v5.06h-1.621V236.289h3.991a4.553,4.553,0,0,1,3.225,1.007,3.6,3.6,0,0,1,1.069,2.753,3.506,3.506,0,0,1-1.1,2.752,4.633,4.633,0,0,1-3.19.989Zm4.356-1.978a2.752,2.752,0,0,0,0-3.555,3.037,3.037,0,0,0-2.128-.615h-2.228v4.793h2.228A3.009,3.009,0,0,0,1224.183,241.813Z" transform="translate(-1178.652 -236.129)" fill="#fff"/>
          <path id="路径_1939" data-name="路径 1939" d="M1242.169,236.289l-4.115,7.8v4.757h-1.639v-4.757l-4.133-7.8h1.888l3.083,6.076,3.064-6.076Z" transform="translate(-1181.733 -236.129)" fill="#fff"/>
          <path id="路径_1940" data-name="路径 1940" d="M1264.326,246.011H1258.8l-1.051,2.9h-1.746l4.65-12.329h1.835l4.633,12.329h-1.746Zm-.463-1.265-2.3-6.343-2.3,6.343Z" transform="translate(-1186.928 -236.194)" fill="#fff"/>
          <path id="路径_1941" data-name="路径 1941" d="M1284.383,248.85h-1.622l-6.521-9.924v9.924h-1.621V236.289h1.621l6.521,9.942v-9.942h1.622Z" transform="translate(-1191.003 -236.129)" fill="#fff"/>
          <path id="路径_1942" data-name="路径 1942" d="M1302.495,248.85h-1.622l-6.521-9.924v9.924h-1.622V236.289h1.622l6.521,9.942v-9.942h1.622Z" transform="translate(-1194.969 -236.129)" fill="#fff"/>
          <path id="路径_1943" data-name="路径 1943" d="M1312.465,236.289V248.85h-1.621V236.289Z" transform="translate(-1198.934 -236.129)" fill="#fff"/>
          <path id="路径_1944" data-name="路径 1944" d="M1319.082,236.289l3.831,10.761,3.884-10.761h1.764l-4.615,12.561H1321.9l-4.6-12.561Z" transform="translate(-1200.348 -236.129)" fill="#fff"/>
          <path id="路径_1945" data-name="路径 1945" d="M1337.717,237.607V241.9h4.775v1.247h-4.775v4.383h5.31v1.318H1336.1V236.289h6.931v1.318Z" transform="translate(-1204.463 -236.129)" fill="#fff"/>
          <path id="路径_1946" data-name="路径 1946" d="M1356.584,248.85l-3.278-5.131h-1.764v5.131h-1.622V236.289h4.134a4.477,4.477,0,0,1,3.207,1.025,3.591,3.591,0,0,1,1.068,2.717,3.509,3.509,0,0,1-.855,2.467,3.989,3.989,0,0,1-2.476,1.167l3.421,5.185Zm-5.042-6.307h2.37q2.761,0,2.762-2.423t-2.762-2.424h-2.37Z" transform="translate(-1207.49 -236.129)" fill="#fff"/>
          <path id="路径_1947" data-name="路径 1947" d="M1372.9,247.2a3.209,3.209,0,0,1-1.3,1.247,4.413,4.413,0,0,1-2.156.481,5.161,5.161,0,0,1-2.218-.455,3.937,3.937,0,0,1-1.551-1.247,3.533,3.533,0,0,1-.668-1.809h1.728a2.452,2.452,0,0,0,1.257,1.88,2.776,2.776,0,0,0,1.4.33,2.219,2.219,0,0,0,1.639-.57,1.98,1.98,0,0,0,.57-1.461,1.883,1.883,0,0,0-.4-1.247,2.832,2.832,0,0,0-.99-.758,13.411,13.411,0,0,0-1.6-.6,16.07,16.07,0,0,1-1.916-.74,3.255,3.255,0,0,1-1.229-1.043,3.037,3.037,0,0,1-.508-1.835,3.171,3.171,0,0,1,.472-1.728,3.1,3.1,0,0,1,1.355-1.158,4.89,4.89,0,0,1,2.075-.409,4.471,4.471,0,0,1,2.94.9,3.445,3.445,0,0,1,1.265,2.289h-1.746a2.364,2.364,0,0,0-.766-1.318,2.413,2.413,0,0,0-1.693-.57,2.316,2.316,0,0,0-1.568.508,2.036,2.036,0,0,0-.205,2.62,2.669,2.669,0,0,0,.954.712,15.244,15.244,0,0,0,1.568.579,15.963,15.963,0,0,1,1.951.749,3.293,3.293,0,0,1,1.256,1.078,3.222,3.222,0,0,1,.517,1.915A3.343,3.343,0,0,1,1372.9,247.2Z" transform="translate(-1210.781 -236.084)" fill="#fff"/>
          <path id="路径_1948" data-name="路径 1948" d="M1387.828,246.011H1382.3l-1.051,2.9h-1.745l4.65-12.329h1.835l4.632,12.329h-1.746Zm-.463-1.265-2.3-6.343-2.3,6.343Z" transform="translate(-1213.968 -236.194)" fill="#fff"/>
          <path id="路径_1949" data-name="路径 1949" d="M1404.784,248.85l-3.278-5.131h-1.764v5.131h-1.621V236.289h4.133a4.478,4.478,0,0,1,3.208,1.025,3.591,3.591,0,0,1,1.068,2.717,3.513,3.513,0,0,1-.855,2.467,3.991,3.991,0,0,1-2.477,1.167l3.421,5.185Zm-5.042-6.307h2.37q2.763,0,2.763-2.423t-2.763-2.424h-2.37Z" transform="translate(-1218.043 -236.129)" fill="#fff"/>
          <path id="路径_1950" data-name="路径 1950" d="M1422.358,236.289l-4.116,7.8v4.757H1416.6v-4.757l-4.133-7.8h1.888l3.082,6.076,3.065-6.076Z" transform="translate(-1221.185 -236.129)" fill="#fff"/>
        </g>
      </g>
      <g id="组_150" data-name="组 150" transform="translate(435.754)">
        <g id="组_149" data-name="组 149">
          <path id="路径_1951" data-name="路径 1951" d="M1456.156,236.289V248.85h-1.639v-5.808h-6.379v5.808h-1.621V236.289h1.621v5.435h6.379v-5.435Z" transform="translate(-1446.516 -236.129)" fill="#fff"/>
          <path id="路径_1952" data-name="路径 1952" d="M1471.558,246.011h-5.523l-1.051,2.9h-1.745l4.65-12.329h1.835l4.632,12.329h-1.746Zm-.463-1.265-2.3-6.343-2.3,6.343Z" transform="translate(-1450.177 -236.194)" fill="#fff"/>
          <path id="路径_1953" data-name="路径 1953" d="M1483.472,243.79v5.06h-1.621V236.289h3.991a4.555,4.555,0,0,1,3.225,1.007,3.6,3.6,0,0,1,1.069,2.753,3.506,3.506,0,0,1-1.1,2.752,4.633,4.633,0,0,1-3.19.989Zm4.356-1.978a2.753,2.753,0,0,0,0-3.555,3.037,3.037,0,0,0-2.128-.615h-2.228v4.793h2.228A3.009,3.009,0,0,0,1487.828,241.813Z" transform="translate(-1454.252 -236.129)" fill="#fff"/>
          <path id="路径_1954" data-name="路径 1954" d="M1498.779,243.79v5.06h-1.621V236.289h3.991a4.553,4.553,0,0,1,3.225,1.007,3.6,3.6,0,0,1,1.069,2.753,3.506,3.506,0,0,1-1.1,2.752,4.633,4.633,0,0,1-3.19.989Zm4.356-1.978a2.753,2.753,0,0,0,0-3.555,3.037,3.037,0,0,0-2.128-.615h-2.228v4.793h2.228A3.009,3.009,0,0,0,1503.135,241.813Z" transform="translate(-1457.604 -236.129)" fill="#fff"/>
          <path id="路径_1955" data-name="路径 1955" d="M1521.121,236.289l-4.115,7.8v4.757h-1.639v-4.757l-4.133-7.8h1.889l3.083,6.076,3.064-6.076Z" transform="translate(-1460.685 -236.129)" fill="#fff"/>
          <path id="路径_1956" data-name="路径 1956" d="M1543.278,246.011h-5.524l-1.051,2.9h-1.746l4.651-12.329h1.835l4.632,12.329h-1.746Zm-.463-1.265-2.3-6.343-2.3,6.343Z" transform="translate(-1465.88 -236.194)" fill="#fff"/>
          <path id="路径_1957" data-name="路径 1957" d="M1563.335,248.85h-1.622l-6.521-9.924v9.924h-1.621V236.289h1.621l6.521,9.942v-9.942h1.622Z" transform="translate(-1469.955 -236.129)" fill="#fff"/>
          <path id="路径_1958" data-name="路径 1958" d="M1581.447,248.85h-1.62l-6.522-9.924v9.924h-1.621V236.289h1.621l6.522,9.942v-9.942h1.62Z" transform="translate(-1473.921 -236.129)" fill="#fff"/>
          <path id="路径_1959" data-name="路径 1959" d="M1591.417,236.289V248.85H1589.8V236.289Z" transform="translate(-1477.886 -236.129)" fill="#fff"/>
          <path id="路径_1960" data-name="路径 1960" d="M1598.033,236.289l3.831,10.761,3.884-10.761h1.764L1602.9,248.85h-2.049l-4.6-12.561Z" transform="translate(-1479.3 -236.129)" fill="#fff"/>
          <path id="路径_1961" data-name="路径 1961" d="M1616.669,237.607V241.9h4.775v1.247h-4.775v4.383h5.31v1.318h-6.931V236.289h6.931v1.318Z" transform="translate(-1483.415 -236.129)" fill="#fff"/>
          <path id="路径_1962" data-name="路径 1962" d="M1635.536,248.85l-3.278-5.131h-1.764v5.131h-1.621V236.289h4.134a4.477,4.477,0,0,1,3.207,1.025,3.591,3.591,0,0,1,1.069,2.717,3.51,3.51,0,0,1-.856,2.467,3.989,3.989,0,0,1-2.476,1.167l3.421,5.185Zm-5.043-6.307h2.37q2.761,0,2.762-2.423t-2.762-2.424h-2.37Z" transform="translate(-1486.442 -236.129)" fill="#fff"/>
          <path id="路径_1963" data-name="路径 1963" d="M1651.851,247.2a3.209,3.209,0,0,1-1.3,1.247,4.412,4.412,0,0,1-2.156.481,5.162,5.162,0,0,1-2.218-.455,3.946,3.946,0,0,1-1.55-1.247,3.534,3.534,0,0,1-.668-1.809h1.729a2.451,2.451,0,0,0,1.257,1.88,2.777,2.777,0,0,0,1.4.33,2.218,2.218,0,0,0,1.64-.57,1.98,1.98,0,0,0,.57-1.461,1.883,1.883,0,0,0-.4-1.247,2.834,2.834,0,0,0-.99-.758,13.4,13.4,0,0,0-1.6-.6,16.078,16.078,0,0,1-1.916-.74,3.253,3.253,0,0,1-1.229-1.043,3.035,3.035,0,0,1-.508-1.835,3.171,3.171,0,0,1,.472-1.728,3.1,3.1,0,0,1,1.355-1.158,4.89,4.89,0,0,1,2.075-.409,4.471,4.471,0,0,1,2.94.9,3.449,3.449,0,0,1,1.265,2.289h-1.747a2.364,2.364,0,0,0-.766-1.318,2.413,2.413,0,0,0-1.693-.57,2.315,2.315,0,0,0-1.568.508,2.036,2.036,0,0,0-.206,2.62,2.67,2.67,0,0,0,.954.712,15.233,15.233,0,0,0,1.568.579,15.979,15.979,0,0,1,1.951.749,3.294,3.294,0,0,1,1.256,1.078,3.222,3.222,0,0,1,.517,1.915A3.344,3.344,0,0,1,1651.851,247.2Z" transform="translate(-1489.733 -236.084)" fill="#fff"/>
          <path id="路径_1964" data-name="路径 1964" d="M1666.78,246.011h-5.524l-1.051,2.9h-1.745l4.65-12.329h1.835l4.632,12.329h-1.746Zm-.463-1.265-2.3-6.343-2.3,6.343Z" transform="translate(-1492.92 -236.194)" fill="#fff"/>
          <path id="路径_1965" data-name="路径 1965" d="M1683.737,248.85l-3.278-5.131h-1.764v5.131h-1.621V236.289h4.134a4.477,4.477,0,0,1,3.207,1.025,3.589,3.589,0,0,1,1.069,2.717,3.51,3.51,0,0,1-.856,2.467,3.987,3.987,0,0,1-2.476,1.167l3.421,5.185Zm-5.042-6.307h2.37q2.761,0,2.762-2.423t-2.762-2.424h-2.37Z" transform="translate(-1496.995 -236.129)" fill="#fff"/>
          <path id="路径_1966" data-name="路径 1966" d="M1701.31,236.289l-4.115,7.8v4.757h-1.64v-4.757l-4.134-7.8h1.889l3.082,6.076,3.065-6.076Z" transform="translate(-1500.137 -236.129)" fill="#fff"/>
        </g>
      </g>
    </g>
    <g id="组_152" data-name="组 152" transform="translate(0 40.004)">
      <text id="HAPPY_ANNIVERSARY" data-name="HAPPY ANNIVERSARY" transform="translate(17 410.736) rotate(-90)" fill="#fff" font-size="16" font-family="Poppins-Regular, Poppins" letter-spacing="0.1em"><tspan x="0" y="0">HAPPY ANNIVERSARY</tspan></text>
      <text id="HAPPY_ANNIVERSARY-2" data-name="HAPPY ANNIVERSARY" transform="translate(17 190.939) rotate(-90)" fill="#fff" font-size="16" font-family="Poppins-Regular, Poppins" letter-spacing="0.1em"><tspan x="0" y="0">HAPPY ANNIVERSARY</tspan></text>
    </g>
    <g id="组_153" data-name="组 153" transform="translate(675.35 23.357)">
      <text id="HAPPY_ANNIVERSARY-3" data-name="HAPPY ANNIVERSARY" transform="translate(7.13) rotate(90)" fill="#fff" font-size="16" font-family="Poppins-Regular, Poppins" letter-spacing="0.1em"><tspan x="0" y="0">HAPPY ANNIVERSARY</tspan></text>
      <text id="HAPPY_ANNIVERSARY-4" data-name="HAPPY ANNIVERSARY" transform="translate(7.13 219.797) rotate(90)" fill="#fff" font-size="16" font-family="Poppins-Regular, Poppins" letter-spacing="0.1em"><tspan x="0" y="0">HAPPY ANNIVERSARY</tspan></text>
    </g>
    <g id="组_169" data-name="组 169" transform="translate(-816.982 -2299.36)">
      <g id="组_165" data-name="组 165" transform="translate(843.914 2322.717)">
        <rect id="矩形_36" data-name="矩形 36" width="166.347" height="12.38" fill="#25c168"/>
        <rect id="矩形_37" data-name="矩形 37" width="253.737" height="12.38" transform="translate(283.416)" fill="#6847cd"/>
        <rect id="矩形_38" data-name="矩形 38" width="155.742" height="12.38" transform="translate(490.375)" fill="#e35934"/>
        <rect id="矩形_39" data-name="矩形 39" width="117.805" height="12.38" transform="translate(166.347)" fill="#ff9d03"/>
      </g>
      <g id="组_166" data-name="组 166" transform="translate(843.913 2741.081)">
        <rect id="矩形_40" data-name="矩形 40" width="166.347" height="12.38" transform="translate(646.117 12.38) rotate(180)" fill="#25c168"/>
        <rect id="矩形_41" data-name="矩形 41" width="253.737" height="12.38" transform="translate(362.701 12.38) rotate(180)" fill="#b8eaf7"/>
        <rect id="矩形_42" data-name="矩形 42" width="155.742" height="12.38" transform="translate(155.742 12.38) rotate(180)" fill="#e35934"/>
        <rect id="矩形_43" data-name="矩形 43" width="117.805" height="12.38" transform="translate(479.77 12.38) rotate(180)" fill="#ff9d03"/>
      </g>
      <g id="组_167" data-name="组 167" transform="translate(844.007 2322.96)">
        <rect id="矩形_44" data-name="矩形 44" width="110.898" height="12.38" transform="translate(12.38) rotate(90)" fill="#b8eaf7"/>
        <rect id="矩形_45" data-name="矩形 45" width="169.158" height="12.38" transform="translate(12.38 188.944) rotate(90)" fill="#6847cd"/>
        <rect id="矩形_46" data-name="矩形 46" width="103.828" height="12.38" transform="translate(12.38 326.916) rotate(90)" fill="#e35934"/>
        <rect id="矩形_47" data-name="矩形 47" width="78.537" height="12.38" transform="translate(12.38 110.898) rotate(90)" fill="#ff9d03"/>
      </g>
      <g id="组_168" data-name="组 168" transform="translate(1477.65 2322.96)">
        <rect id="矩形_48" data-name="矩形 48" width="110.898" height="12.38" transform="translate(0 430.745) rotate(-90)" fill="#b8eaf7"/>
        <rect id="矩形_49" data-name="矩形 49" width="169.158" height="12.38" transform="translate(0 241.801) rotate(-90)" fill="#6847cd"/>
        <rect id="矩形_50" data-name="矩形 50" width="103.828" height="12.38" transform="translate(0 103.828) rotate(-90)" fill="#25c168"/>
        <rect id="矩形_51" data-name="矩形 51" width="78.537" height="12.38" transform="translate(0 319.846) rotate(-90)" fill="#ff9d03"/>
      </g>
    </g>
  </g>
</svg>
