<svg xmlns="http://www.w3.org/2000/svg" width="146.701" height="146.701" viewBox="0 0 146.701 146.701">
  <g id="组_3613" data-name="组 3613" transform="translate(-1444.172 -111.877)">
    <circle id="椭圆_9" data-name="椭圆 9" cx="56.147" cy="56.147" r="56.147" transform="translate(1461.172 129.08)" fill="#6847cd"/>
    <g id="组_180" data-name="组 180" transform="translate(-112.147 1741.202)">
      <path id="椭圆_10" data-name="椭圆 10" d="M51.867,0A51.867,51.867,0,1,1,0,51.867,51.926,51.926,0,0,1,51.867,0Zm0,101.726a49.86,49.86,0,1,0-49.86-49.86A49.916,49.916,0,0,0,51.867,101.726Z" transform="translate(1556.318 -1555.974) rotate(-45)" fill="#fff"/>
      <g id="组_175" data-name="组 175" transform="translate(1587.983 -1600.936)">
        <path id="路径_1981" data-name="路径 1981" d="M1854.15-1128.2l.417-.912,1.545.706.811-1.773-1.545-.706.417-.913,4.143,1.894-.418.913-1.791-.818-.81,1.773,1.79.818-.417.912Z" transform="translate(-1854.15 1156.303)" fill="#fff"/>
        <path id="路径_1982" data-name="路径 1982" d="M1893.243-1177.323l.463-.689,4.885.9-.632.939-1.019-.213-.987,1.468.589.853-.618.918Zm1.315.419.866,1.249.621-.923Z" transform="translate(-1889.087 1197.606)" fill="#fff"/>
        <path id="路径_1983" data-name="路径 1983" d="M1925.525-1231.345l1.146-1.244a3.382,3.382,0,0,1,.5-.449,1.536,1.536,0,0,1,.536-.254,1.125,1.125,0,0,1,.565.014,1.455,1.455,0,0,1,.588.353,1.554,1.554,0,0,1,.405.548,1.1,1.1,0,0,1,.077.553,1.438,1.438,0,0,1-.194.547,3.131,3.131,0,0,1-.4.538l-.5.539,1.306,1.2-.68.738Zm2.1.569.453-.492a1.25,1.25,0,0,0,.158-.209.689.689,0,0,0,.089-.225.464.464,0,0,0-.014-.232.531.531,0,0,0-.155-.226.455.455,0,0,0-.26-.131.537.537,0,0,0-.26.041.886.886,0,0,0-.244.156,2.953,2.953,0,0,0-.212.207l-.349.379Z" transform="translate(-1917.937 1247.035)" fill="#fff"/>
        <path id="路径_1984" data-name="路径 1984" d="M1968.443-1271.586l1.313-1.068a3.348,3.348,0,0,1,.56-.372,1.515,1.515,0,0,1,.567-.175,1.121,1.121,0,0,1,.557.094,1.462,1.462,0,0,1,.531.434,1.554,1.554,0,0,1,.322.6,1.1,1.1,0,0,1,0,.558,1.434,1.434,0,0,1-.27.514,3.164,3.164,0,0,1-.476.475l-.569.463,1.121,1.378-.779.633Zm2,.864.519-.422a1.27,1.27,0,0,0,.186-.184.694.694,0,0,0,.12-.209.462.462,0,0,0,.019-.231.533.533,0,0,0-.121-.246.454.454,0,0,0-.239-.166.539.539,0,0,0-.264,0,.885.885,0,0,0-.264.119,2.857,2.857,0,0,0-.239.174l-.4.325Z" transform="translate(-1956.292 1282.679)" fill="#fff"/>
        <path id="路径_1985" data-name="路径 1985" d="M2015.1-1309.475l-2.808-1.367,1.072-.639,1.7.97.005-1.988,1.022-.609-.132,3.119,1,1.669-.862.514Z" transform="translate(-1995.475 1318.339)" fill="#fff"/>
        <path id="路径_1986" data-name="路径 1986" d="M2116.877-1345.2l.8-.237,3.2,3.8-1.085.323-.651-.813-1.7.5-.089,1.033-1.06.316Zm.748,1.16-.127,1.514,1.067-.317Z" transform="translate(-2088.418 1347.23)" fill="#fff"/>
        <path id="路径_1987" data-name="路径 1987" d="M2174.652-1360.649l1.354-.165,2.3,2.909.013,0-.382-3.142,1-.121.549,4.522-1.3.158-2.365-2.979-.013,0,.391,3.219-1,.121Z" transform="translate(-2140.577 1361.291)" fill="#fff"/>
        <path id="路径_1988" data-name="路径 1988" d="M2245.416-1362.306l1.362.068,1.777,3.258h.013l.158-3.161,1,.05-.228,4.549-1.311-.065-1.824-3.338h-.013l-.161,3.239-1-.05Z" transform="translate(-2203.615 1362.306)" fill="#fff"/>
        <path id="路径_1989" data-name="路径 1989" d="M2311.656-1355.669l.987.182-.825,4.48-.987-.182Z" transform="translate(-2262.277 1356.375)" fill="#fff"/>
        <path id="路径_1990" data-name="路径 1990" d="M2354.13-1348.462l1.091.346.169,3.186.012,0,2-2.5,1.023.325-3.17,3.772-.766-.244Z" transform="translate(-2300.973 1349.934)" fill="#fff"/>
        <path id="路径_1991" data-name="路径 1991" d="M2403.186-1324.736l2.774,1.37-.41.831-1.875-.926-.376.762,1.771.874-.41.831-1.771-.874-.41.831,1.979.977-.41.831-2.878-1.421Z" transform="translate(-2343.012 1328.73)" fill="#fff"/>
        <path id="路径_1992" data-name="路径 1992" d="M2451.805-1295.812l1.45,1a3.138,3.138,0,0,1,.5.43,1.556,1.556,0,0,1,.322.5,1.127,1.127,0,0,1,.066.562,1.443,1.443,0,0,1-.265.626,1.336,1.336,0,0,1-.673.532,1.129,1.129,0,0,1-.846-.065l-.141,2.241-.99-.684.252-2.039-.407-.282-1.035,1.5-.826-.571Zm-.246,2.121.487.336q.111.077.241.155a.89.89,0,0,0,.258.108.47.47,0,0,0,.252-.009.458.458,0,0,0,.231-.193.487.487,0,0,0,.1-.268.471.471,0,0,0-.059-.232.806.806,0,0,0-.164-.2,2.048,2.048,0,0,0-.217-.173l-.54-.373Z" transform="translate(-2385.949 1302.882)" fill="#fff"/>
        <path id="路径_1993" data-name="路径 1993" d="M2498.479-1252.943a.715.715,0,0,0-.089-.392,1.182,1.182,0,0,0-.241-.323,1.04,1.04,0,0,0-.183-.134.873.873,0,0,0-.216-.089.476.476,0,0,0-.221-.007.361.361,0,0,0-.2.117.363.363,0,0,0-.1.336,1.469,1.469,0,0,0,.16.4q.12.216.266.456a2.09,2.09,0,0,1,.223.5,1.2,1.2,0,0,1,.028.543,1.154,1.154,0,0,1-.318.573,1.463,1.463,0,0,1-.553.391,1.335,1.335,0,0,1-.6.085,1.63,1.63,0,0,1-.6-.176,2.456,2.456,0,0,1-.555-.39,2.434,2.434,0,0,1-.514-.658,2.058,2.058,0,0,1-.223-.8l1.057-.093a1.038,1.038,0,0,0,.07.5,1.114,1.114,0,0,0,.281.412,1.141,1.141,0,0,0,.2.147.827.827,0,0,0,.224.089.485.485,0,0,0,.218,0,.367.367,0,0,0,.189-.115.384.384,0,0,0,.1-.345,1.468,1.468,0,0,0-.153-.417q-.119-.223-.265-.472a2.286,2.286,0,0,1-.226-.514,1.238,1.238,0,0,1-.038-.543,1.07,1.07,0,0,1,.3-.556,1.379,1.379,0,0,1,.542-.374,1.393,1.393,0,0,1,.6-.078,1.677,1.677,0,0,1,.6.171,2.266,2.266,0,0,1,.541.372,2.528,2.528,0,0,1,.475.586,1.724,1.724,0,0,1,.229.71Z" transform="translate(-2426.463 1266.297)" fill="#fff"/>
        <path id="路径_1994" data-name="路径 1994" d="M2532.8-1207.154l.52.646-2.306,4.4-.71-.882.506-.911-1.109-1.378-.99.309-.694-.862Zm-.791,1.131-1.449.457.7.867Z" transform="translate(-2456.369 1223.65)" fill="#fff"/>
        <path id="路径_1995" data-name="路径 1995" d="M2571.562-1163.458l.881,1.527a3.113,3.113,0,0,1,.271.6,1.567,1.567,0,0,1,.078.587,1.128,1.128,0,0,1-.181.535,1.442,1.442,0,0,1-.508.453,1.333,1.333,0,0,1-.836.192,1.128,1.128,0,0,1-.737-.421l-1.087,1.965-.6-1.042,1.1-1.734-.248-.429-1.577.91-.5-.869Zm-1.131,1.812.3.513c.045.078.1.159.151.243a.9.9,0,0,0,.187.208.481.481,0,0,0,.232.1.461.461,0,0,0,.291-.075.478.478,0,0,0,.2-.2.467.467,0,0,0,.047-.235.792.792,0,0,0-.061-.254,2.038,2.038,0,0,0-.121-.25l-.328-.569Z" transform="translate(-2491.762 1184.599)" fill="#fff"/>
        <path id="路径_1996" data-name="路径 1996" d="M2598.671-1113.45l1.786-2.561.465,1.158-1.223,1.53,1.964.314.443,1.1-3.061-.615-1.8.724-.374-.931Z" transform="translate(-2517.904 1142.197)" fill="#fff"/>
      </g>
      <g id="组_176" data-name="组 176" transform="translate(1587.585 -1541.794)">
        <path id="路径_1997" data-name="路径 1997" d="M1854.783-803.4l-.6.247a1.076,1.076,0,0,1-1.592-.616l-.141-.345-1.743.715-.3-.729,4.638-1.9.44,1.073A1.075,1.075,0,0,1,1854.783-803.4Zm-.1-1.63-1.57.644.141.344c.095.232.253.314.584.178l.7-.285c.332-.136.386-.305.291-.537Z" transform="translate(-1850.405 806.03)" fill="#fff"/>
        <path id="路径_1998" data-name="路径 1998" d="M1869.991-774.68l.352.7-4.482,2.238-.351-.7Z" transform="translate(-1863.903 778.013)" fill="#fff"/>
        <path id="路径_1999" data-name="路径 1999" d="M1880.461-754.491l-3.113,1.872-.365-.607,4.3-2.584.51.847-2.155,2.241,2.572-1.547.362.6-4.3,2.584-.417-.694Z" transform="translate(-1874.157 761.15)" fill="#fff"/>
        <path id="路径_2000" data-name="路径 2000" d="M1905.127-719.07l.656.886-1.279.946a1.1,1.1,0,0,1-1.712-.2,1.1,1.1,0,0,1,.315-1.695l2.1-1.551a1.1,1.1,0,0,1,1.713.195,1.1,1.1,0,0,1-.315,1.694l-.391.29-.443-.6.432-.32c.288-.213.3-.421.155-.622s-.352-.247-.64-.034l-2.178,1.61c-.288.213-.3.417-.149.618s.346.252.634.039l.743-.55-.213-.288Z" transform="translate(-1896.977 730.038)" fill="#fff"/>
        <path id="路径_2001" data-name="路径 2001" d="M1929-689.981l-.5.443a1.1,1.1,0,0,1-1.723-.039,1.1,1.1,0,0,1,.16-1.716l1.947-1.734a1.1,1.1,0,0,1,1.722.039,1.1,1.1,0,0,1-.16,1.716l-.364.324-.5-.556.4-.357c.267-.238.264-.446.1-.633s-.373-.215-.641.024l-2.021,1.8c-.267.238-.259.442-.092.629s.368.219.635-.019l.535-.476Z" transform="translate(-1918.352 705.395)" fill="#fff"/>
        <path id="路径_2002" data-name="路径 2002" d="M1950.029-662.76l-.582-.542.521-.758-.707-.66-.72.573-.53-.494,4.008-3.122.844.787Zm-.23-2.39.555.518,1.452-2.114Z" transform="translate(-1937.634 682.463)" fill="#fff"/>
        <path id="路径_2003" data-name="路径 2003" d="M1983.506-645.25l-.4.515a1.075,1.075,0,0,1-1.687.26l-.295-.228-1.153,1.489-.623-.483,3.069-3.963.917.71A1.075,1.075,0,0,1,1983.506-645.25Zm-.9-1.36-1.039,1.342.294.228c.2.153.375.146.595-.137l.46-.594c.219-.283.182-.457-.016-.611Z" transform="translate(-1965.641 664.497)" fill="#fff"/>
        <path id="路径_2004" data-name="路径 2004" d="M2090.225-587.418c-.234-.088-.43-.016-.556.32l-.188.5-.7-.262.171-.456a1.1,1.1,0,0,1,1.543-.768,1.1,1.1,0,0,1,.657,1.593c-.578,1.543-2.38,1.472-2.548,2.35l1.4.523-.252.671-2.133-.8.216-.577c.518-1.382,2.065-1.062,2.573-2.417C2090.564-587.16,2090.459-587.329,2090.225-587.418Z" transform="translate(-2062.397 611.342)" fill="#fff"/>
        <path id="路径_2005" data-name="路径 2005" d="M2127.387-576.223a1.113,1.113,0,0,1,1.484-.9,1.113,1.113,0,0,1,.825,1.529l-.681,2.517a1.113,1.113,0,0,1-1.484.9,1.112,1.112,0,0,1-.825-1.529Zm.066,2.771c-.093.346.023.518.265.583s.43-.025.523-.37l.707-2.614c.093-.345-.023-.518-.265-.583s-.429.025-.523.37Z" transform="translate(-2097.271 601.516)" fill="#fff"/>
        <path id="路径_2006" data-name="路径 2006" d="M2173.361-567.71a.78.78,0,0,0,.961-.473l.521.09-.853,4.938-.776-.135.651-3.766-.6-.1Z" transform="translate(-2138.894 593.47)" fill="#fff"/>
        <path id="路径_2007" data-name="路径 2007" d="M2203.3-561.5l-.036.464c-.028.357.119.5.369.517s.417-.1.444-.453l.087-1.1c.028-.356-.118-.5-.368-.524s-.417.1-.445.46l-.012.15-.742-.058.37-2.886,2.07.162-.056.713-1.363-.107-.157,1.187a.751.751,0,0,1,.713-.31c.578.045.839.475.781,1.21l-.088,1.113c-.063.8-.5,1.225-1.269,1.165a1.1,1.1,0,0,1-1.072-1.348l.033-.414Z" transform="translate(-2165.083 590.562)" fill="#fff"/>
        <path id="路径_2008" data-name="路径 2008" d="M2240.779-542.911l1.432-.023.011.716-1.432.023Z" transform="translate(-2199.275 570.906)" fill="#fff"/>
        <path id="路径_2009" data-name="路径 2009" d="M2269.6-564.288c-.249.021-.395.17-.365.526l.045.535-.742.063-.041-.485a1.1,1.1,0,0,1,1.065-1.355,1.1,1.1,0,0,1,1.276,1.158c.138,1.641-1.52,2.349-1.3,3.214l1.484-.125.06.714-2.27.191-.052-.613c-.124-1.47,1.411-1.844,1.29-3.286C2270.022-564.2,2269.855-564.309,2269.6-564.288Z" transform="translate(-2224.044 590.635)" fill="#fff"/>
        <path id="路径_2010" data-name="路径 2010" d="M2303.726-568.222a1.112,1.112,0,0,1,.955-1.451,1.112,1.112,0,0,1,1.4,1.029l.459,2.565a1.113,1.113,0,0,1-.955,1.451,1.111,1.111,0,0,1-1.4-1.029Zm1.243,2.475c.063.352.242.458.488.415s.378-.206.315-.558l-.477-2.663c-.063-.352-.242-.459-.488-.414s-.378.206-.315.558Z" transform="translate(-2255.501 594.826)" fill="#fff"/>
        <path id="路径_2011" data-name="路径 2011" d="M2340.315-577.151c-.241.067-.357.241-.261.585l.144.517-.717.2-.131-.469a1.1,1.1,0,0,1,.793-1.529,1.1,1.1,0,0,1,1.469.9c.441,1.586-1.055,2.59-.674,3.4l1.435-.4.192.69-2.193.61-.165-.593c-.4-1.421,1.042-2.074.655-3.468C2340.741-577.143,2340.557-577.219,2340.315-577.151Z" transform="translate(-2287.302 602.161)" fill="#fff"/>
        <path id="路径_2012" data-name="路径 2012" d="M2374.439-588.518c-.234.09-.333.273-.205.608l.192.5-.7.265-.174-.455a1.1,1.1,0,0,1,.648-1.6,1.1,1.1,0,0,1,1.547.759c.588,1.539-.809,2.678-.355,3.447l1.392-.532.255.669-2.127.812-.22-.575c-.526-1.378.846-2.163.33-3.514C2374.864-588.55,2374.673-588.607,2374.439-588.518Z" transform="translate(-2317.825 612.34)" fill="#fff"/>
        <path id="路径_2013" data-name="路径 2013" d="M2429.524-609.581l-.693.389-.563-.727-.843.473.326.86-.631.354L2425.367-613l1.006-.564Zm-2.345-.507.662-.371-1.571-2.026Z" transform="translate(-2364.238 634.024)" fill="#fff"/>
        <path id="路径_2014" data-name="路径 2014" d="M2453.968-631.588l.37.536a1.074,1.074,0,0,1-.263,1.685l-.306.211,1.069,1.55-.648.447-2.844-4.124.955-.658A1.073,1.073,0,0,1,2453.968-631.588Zm-1.569.447.963,1.4.306-.211c.206-.142.253-.314.05-.609l-.426-.619c-.2-.294-.38-.312-.586-.169Z" transform="translate(-2387.454 650.681)" fill="#fff"/>
        <path id="路径_2015" data-name="路径 2015" d="M2483.282-649.843a1.534,1.534,0,0,1-.45-.427l-.5-.6c-.3-.358-.53-.389-.8-.159l-.209.174,1.308,1.567-.6.5-3.213-3.847.912-.762a1.009,1.009,0,0,1,1.635.137l.252.3a1,1,0,0,1,.256,1.111c.408-.126.75.083,1.085.484l.5.594a1.478,1.478,0,0,0,.457.412Zm-3.414-2.747.988,1.182.236-.2c.225-.188.28-.4.023-.71l-.317-.379c-.229-.275-.424-.318-.638-.139Z" transform="translate(-2411.995 669.94)" fill="#fff"/>
        <path id="路径_2016" data-name="路径 2016" d="M2505.706-671.357l.565-.548,3.49,3.6-.565.548Z" transform="translate(-2436.036 686.165)" fill="#fff"/>
        <path id="路径_2017" data-name="路径 2017" d="M2521-686.968l.525-.587,3.2,2.863.863-.967.534.477-1.389,1.554Z" transform="translate(-2449.702 700.151)" fill="#fff"/>
        <path id="路径_2018" data-name="路径 2018" d="M2560.805-732.612a1.129,1.129,0,0,1-1.733.321l-.327-.219a1.1,1.1,0,0,1-.6-.987,1.039,1.039,0,0,1-1.11-.158l-.131-.088a1.129,1.129,0,0,1-.361-1.725,1.129,1.129,0,0,1,1.733-.321l.131.088a1.054,1.054,0,0,1,.568.967,1.1,1.1,0,0,1,1.14.178l.327.219A1.129,1.129,0,0,1,2560.805-732.612Zm-3.2-1.613c.333.223.544.14.688-.074s.14-.441-.193-.664l-.232-.155c-.375-.252-.584-.159-.724.05s-.146.437.229.688Zm2.609,1.215c.139-.208.142-.431-.223-.684l-.387-.259c-.327-.219-.562-.178-.717.054s-.1.465.222.684l.387.26C2559.862-732.71,2560.071-732.8,2560.21-733.011Z" transform="translate(-2481.241 743.498)" fill="#fff"/>
        <path id="路径_2019" data-name="路径 2019" d="M2571.193-766.93l1.168-2.135.628.343-.4.722,3.768,2.062-.378.691-3.768-2.062-.4.722Z" transform="translate(-2494.56 772.995)" fill="#fff"/>
        <path id="路径_2020" data-name="路径 2020" d="M2592.126-797.347l-.313.723-4.6-1.99.313-.724,1.973.853.355-.822-1.973-.853.318-.737,4.6,1.99-.319.736-1.972-.853-.355.822Z" transform="translate(-2508.874 801.442)" fill="#fff"/>
      </g>
      <path id="路径_2021" data-name="路径 2021" d="M1822.709-966.516v2.7l2.336,1.349,2.336-1.349v-2.7l-2.336-1.349Z" transform="translate(-238.069 -591.135)" fill="#fff"/>
      <path id="路径_2022" data-name="路径 2022" d="M2625.811-966.516v2.7l2.336,1.349,2.337-1.349v-2.7l-2.337-1.349Z" transform="translate(-955.786 -591.135)" fill="#fff"/>
      <path id="直线_1" data-name="直线 1" d="M-2.194,3.355l-.592-.322L-.318-1.512l.592.322Z" transform="translate(1610.378 -1519.749)" fill="#fff"/>
      <g id="组_179" data-name="组 179" transform="translate(1613.403 -1584.007)">
        <g id="组_177" data-name="组 177" transform="translate(22.249 54.229)">
          <path id="路径_2023" data-name="路径 2023" d="M2303.463-692.357h-.952v-.65h2.638v.65h-.951v2.685h-.735Z" transform="translate(-2302.512 693.007)" fill="#fff"/>
          <path id="路径_2024" data-name="路径 2024" d="M2335.255-693.007h.735v1.244h1.428v-1.244h.735v3.336h-.735v-1.442h-1.428v1.442h-.735Z" transform="translate(-2331.774 693.007)" fill="#fff"/>
        </g>
        <g id="组_178" data-name="组 178" transform="translate(0 0)">
          <path id="路径_2025" data-name="路径 2025" d="M2117.878-1203.075h2.522l-.576,2.45-.793,3.747-.576,2.45-10.447,48.92h-2.594l10.519-48.92h-3.819l-10.447,48.92h-2.521l10.447-48.92h-16.351v-2.45h16.928l.792-3.747h-17.72v-2.45h24.636Zm-1.369,6.2.792-3.747h-3.818l-.792,3.747Z" transform="translate(-2093.242 1203.075)" fill="#fff"/>
        </g>
      </g>
    </g>
  </g>
</svg>
