<svg xmlns="http://www.w3.org/2000/svg" width="111.876" height="111.876" viewBox="0 0 111.876 111.876">
  <g id="组_3611" data-name="组 3611" transform="translate(-3407.283 -1193.577)">
    <circle id="椭圆_8" data-name="椭圆 8" cx="55.938" cy="55.938" r="55.938" transform="translate(3407.283 1193.577)" fill="#25c168"/>
    <g id="组_182" data-name="组 182" transform="translate(3430.242 1228.015)">
      <circle id="椭圆_10" data-name="椭圆 10" cx="5.721" cy="5.721" r="5.721" transform="translate(10.225 21.659)" fill="#fff"/>
      <path id="路径_2026" data-name="路径 2026" d="M2128.5,184.863a12,12,0,0,0-2.968-1.221,21.458,21.458,0,0,0-40.417-8.325,15.914,15.914,0,0,0,.635,31.822h36.514A12.124,12.124,0,0,0,2134.5,195.29,11.935,11.935,0,0,0,2128.5,184.863ZM2088.54,175.6c-.116-.022-.234-.041-.351-.06C2088.306,175.555,2088.423,175.574,2088.54,175.6ZM2088,175.5q-.275-.042-.552-.075Q2087.722,175.461,2088,175.5Zm-2.274,25.454a9.9,9.9,0,0,1-9.969-9.9,9.777,9.777,0,0,1,9.8-9.564,10.026,10.026,0,0,1,1.153.071,9.821,9.821,0,0,1,6.749,3.917l7.029-.025v0h6.757l-7.265,15.5Zm3.188-25.285.162.034Zm33.439,25.285h-14.942l7.244-16.388V179.24H2096.07a16.062,16.062,0,0,0-4.433-2.728c.17-.245.347-.485.529-.719a15.243,15.243,0,0,1,27.2,9.308,24.587,24.587,0,0,1-.368,3.213,8.036,8.036,0,0,0-.1.917c-.014.262-.025.565-.015.777h6.134a5.937,5.937,0,0,1,.831.492,5.751,5.751,0,0,1,2.433,4.577A5.882,5.882,0,0,1,2122.35,200.958Z" transform="translate(-2069.527 -163.822)" fill="#fff"/>
    </g>
  </g>
</svg>
