<svg id="组_163" data-name="组 163" xmlns="http://www.w3.org/2000/svg" xmlns:xlink="http://www.w3.org/1999/xlink" width="163.65" height="163.65" viewBox="0 0 163.65 163.65">
  <defs>
    <clipPath id="clip-path">
      <rect id="矩形_28" data-name="矩形 28" width="163.65" height="163.65" fill="#b8eaf7"/>
    </clipPath>
  </defs>
  <rect id="矩形_27" data-name="矩形 27" width="163.65" height="163.65" fill="#b8eaf7"/>
  <g id="组_128" data-name="组 128" clip-path="url(#clip-path)">
    <g id="组_127" data-name="组 127" transform="translate(-327.301 -77.354)">
      <circle id="椭圆_3" data-name="椭圆 3" cx="77.354" cy="77.354" r="77.354" transform="translate(254.152 130.98)" fill="#e35934"/>
      <path id="路径_1862" data-name="路径 1862" d="M1339.648,465.767a24,24,0,0,1,.39-9.968,113.868,113.868,0,0,0,3.275-27.108c-.051-62.908-51.591-114.071-114.939-114.071a114.446,114.446,0,0,0-90.571,43.74c-1.377,1.768-2.72,3.587-4,5.438a120.472,120.472,0,0,0-31.674-8.191v-.017l-.42-.05h-.1a122.876,122.876,0,0,0-13.805-.818c-1.091,0-2.183.067-3.275.084a162.139,162.139,0,0,1,143.842-86.9c89.244,0,161.862,72.066,161.962,160.7v.183c0,.167-.017.351-.017.534a159.322,159.322,0,0,1-4.326,36.442Z" transform="translate(-966.75 -190.556)" fill="#6847cd"/>
      <circle id="椭圆_4" data-name="椭圆 4" cx="77.354" cy="77.354" r="77.354" transform="translate(413.597)" fill="#e35934"/>
      <path id="路径_1863" data-name="路径 1863" d="M1122.547,488.923a121.24,121.24,0,0,0-98.492-75.768v-.017l-.42-.05h-.1a122.872,122.872,0,0,0-13.8-.818c-67.143,0-121.691,54.584-121.052,121.428.655,66.211,55.959,119.059,122.6,119.059h275.894c50.164,0,92.049-39.7,92.452-89.532a90.743,90.743,0,0,0-67.765-88.014q.378,5.4.4,10.943v.183c0,.167-.017.351-.017.534a159.952,159.952,0,0,1-4.333,36.45,44.658,44.658,0,0,1,6.281,3.72,43.454,43.454,0,0,1,18.39,34.581c.486,24.439-20.187,44.424-44.79,44.424h-276.75c-41.414,0-76.043-33.664-75.322-74.8.688-39.97,33.622-72.267,74.012-72.267a76.005,76.005,0,0,1,8.716.534,74.214,74.214,0,0,1,50.991,29.594" transform="translate(-888.673 -248.103)" fill="#b8eaf7"/>
    </g>
  </g>
</svg>
