<svg id="组_174" data-name="组 174" xmlns="http://www.w3.org/2000/svg" xmlns:xlink="http://www.w3.org/1999/xlink" width="163.715" height="163.65" viewBox="0 0 163.715 163.65">
  <defs>
    <clipPath id="clip-path">
      <path id="路径_1980" data-name="路径 1980" d="M1066.984,2311.906H903.335v-163.65h163.65Z" transform="translate(-903.335 -2148.256)" fill="none"/>
    </clipPath>
  </defs>
  <g id="组_173" data-name="组 173" transform="translate(0)">
    <path id="路径_1977" data-name="路径 1977" d="M1066.985,2311.907H903.335v-163.65h117.538a46.111,46.111,0,0,1,46.111,46.112Z" transform="translate(-903.335 -2148.256)" fill="#25c168"/>
    <g id="组_172" data-name="组 172">
      <g id="组_171" data-name="组 171" clip-path="url(#clip-path)">
        <g id="组_170" data-name="组 170" transform="translate(0 -163.649)">
          <path id="路径_1978" data-name="路径 1978" d="M1272.785,2187.253a24.006,24.006,0,0,1,.39-9.968,113.858,113.858,0,0,0,3.275-27.108c-.05-62.907-51.591-114.071-114.939-114.071a114.444,114.444,0,0,0-90.57,43.74c-1.377,1.768-2.721,3.586-4,5.438a120.505,120.505,0,0,0-31.674-8.19v-.016c-.134-.018-.285-.034-.42-.051h-.1a123,123,0,0,0-13.805-.817c-1.092,0-2.183.066-3.275.083a162.137,162.137,0,0,1,143.841-86.9c89.244,0,161.862,72.065,161.962,160.7v.184c0,.167-.016.351-.016.534a159.263,159.263,0,0,1-4.327,36.442Z" transform="translate(-899.887 -1989.397)" fill="#fff"/>
          <path id="路径_1979" data-name="路径 1979" d="M1137.208,2150.32a121.239,121.239,0,0,0-98.491-75.767v-.017c-.134-.017-.285-.034-.42-.051h-.1a123,123,0,0,0-13.805-.817c-67.143,0-121.69,54.583-121.052,121.427.655,66.211,55.958,119.06,122.6,119.06H1301.83c50.164,0,92.048-39.7,92.452-89.532a90.743,90.743,0,0,0-67.764-88.014c.251,3.6.386,7.257.4,10.943v.183c0,.167-.016.351-.016.534a159.983,159.983,0,0,1-4.333,36.45,44.659,44.659,0,0,1,6.281,3.72,43.454,43.454,0,0,1,18.389,34.582c.487,24.438-20.187,44.423-44.79,44.423H1025.7c-41.415,0-76.044-33.663-75.321-74.8.688-39.97,33.621-72.267,74.011-72.267a76.068,76.068,0,0,1,8.716.534A74.214,74.214,0,0,1,1084.1,2150.5" transform="translate(-903.335 -1986.856)" fill="#fff"/>
        </g>
      </g>
    </g>
    <ellipse id="椭圆_7" data-name="椭圆 7" cx="43.23" cy="43.23" rx="43.23" ry="43.23" transform="translate(77.256)" fill="#b8eaf7"/>
  </g>
</svg>
