<?xml version="1.0" encoding="UTF-8"?>
<svg width="100%" viewBox="0 0 367 481" version="1.1" xmlns="http://www.w3.org/2000/svg" xmlns:xlink="http://www.w3.org/1999/xlink">
    <title>title</title>
    <defs>
        <path d="M44.626,111 L44.626,86.408 L70.384,36.588 L50.032,36.588 L35.722,67.752 L21.306,36.588 L0.742,36.588 L26.5,86.408 L26.5,111 L44.626,111 Z M123.278,111 L123.278,96.478 L95.824,96.478 L95.824,80.154 L120.098,80.154 L120.098,66.162 L95.824,66.162 L95.824,51.11 L123.278,51.11 L123.278,36.588 L77.698,36.588 L77.698,111 L123.278,111 Z M149.142,111 L153.594,97.856 L181.366,97.856 L185.818,111 L205.004,111 L178.08,36.588 L157.092,36.588 L130.168,111 L149.142,111 Z M176.702,83.864 L158.364,83.864 L167.48,56.622 L176.702,83.864 Z M231.292,111 L231.292,82.91 L235.638,82.91 L251.114,111 L271.572,111 L254.4,81.532 C259.841333,79.9066667 263.957667,77.1506667 266.749,73.264 C269.540333,69.3773333 270.936,64.9606667 270.936,60.014 C270.936,55.6326667 269.911333,51.6576667 267.862,48.089 C265.812667,44.5203333 262.721,41.7113333 258.587,39.662 C254.453,37.6126667 249.453333,36.588 243.588,36.588 L243.588,36.588 L213.166,36.588 L213.166,111 L231.292,111 Z M242.528,70.084 L231.292,70.084 L231.292,51.64 L242.528,51.64 C245.849333,51.64 248.340333,52.4526667 250.001,54.078 C251.661667,55.7033333 252.492,57.9293333 252.492,60.756 C252.492,63.724 251.661667,66.0206667 250.001,67.646 C248.340333,69.2713333 245.849333,70.084 242.528,70.084 L242.528,70.084 Z" id="path-1"></path>
        <path d="M41.764,229.742 C48.76,229.742 55.1553333,228.116667 60.95,224.866 C66.7446667,221.615333 71.338,217.075 74.73,211.245 C78.122,205.415 79.818,198.860667 79.818,191.582 C79.818,184.303333 78.1396667,177.766667 74.783,171.972 C71.4263333,166.177333 66.833,161.654667 61.003,158.404 C55.173,155.153333 48.76,153.528 41.764,153.528 C34.768,153.528 28.355,155.153333 22.525,158.404 C16.695,161.654667 12.0663333,166.177333 8.639,171.972 C5.21166667,177.766667 3.498,184.303333 3.498,191.582 C3.498,198.860667 5.21166667,205.415 8.639,211.245 C12.0663333,217.075 16.695,221.615333 22.525,224.866 C28.355,228.116667 34.768,229.742 41.764,229.742 Z M41.764,213.206 C35.7573333,213.206 30.9696667,211.245 27.401,207.323 C23.8323333,203.401 22.048,198.154 22.048,191.582 C22.048,184.939333 23.8323333,179.674667 27.401,175.788 C30.9696667,171.901333 35.7573333,169.958 41.764,169.958 C47.7,169.958 52.4523333,171.919 56.021,175.841 C59.5896667,179.763 61.374,185.01 61.374,191.582 C61.374,198.083333 59.5896667,203.312667 56.021,207.27 C52.4523333,211.227333 47.7,213.206 41.764,213.206 Z M108.014,229 L108.014,198.896 L130.698,198.896 L130.698,184.798 L108.014,184.798 L108.014,169.11 L138.33,169.11 L138.33,154.588 L89.888,154.588 L89.888,229 L108.014,229 Z" id="path-2"></path>
        <path d="M40.916,347.53 C49.7493333,347.53 57.3106667,345.215667 63.6,340.587 C69.8893333,335.958333 74.094,329.616 76.214,321.56 L76.214,321.56 L56.286,321.56 C54.802,324.669333 52.6996667,327.036667 49.979,328.662 C47.2583333,330.287333 44.1666667,331.1 40.704,331.1 C35.1213333,331.1 30.5986667,329.156667 27.136,325.27 C23.6733333,321.383333 21.942,316.189333 21.942,309.688 C21.942,303.186667 23.6733333,297.992667 27.136,294.106 C30.5986667,290.219333 35.1213333,288.276 40.704,288.276 C44.1666667,288.276 47.2583333,289.088667 49.979,290.714 C52.6996667,292.339333 54.802,294.706667 56.286,297.816 L56.286,297.816 L76.214,297.816 C74.094,289.76 69.8893333,283.4 63.6,278.736 C57.3106667,274.072 49.7493333,271.74 40.916,271.74 C33.708,271.74 27.2596667,273.347667 21.571,276.563 C15.8823333,279.778333 11.448,284.265667 8.268,290.025 C5.088,295.784333 3.498,302.338667 3.498,309.688 C3.498,317.037333 5.088,323.574 8.268,329.298 C11.448,335.022 15.8823333,339.491667 21.571,342.707 C27.2596667,345.922333 33.708,347.53 40.916,347.53 Z M129.214,347 L129.214,333.008 L105.47,333.008 L105.47,272.588 L87.344,272.588 L87.344,347 L129.214,347 Z M173.098,347.742 C180.094,347.742 186.489333,346.116667 192.284,342.866 C198.078667,339.615333 202.672,335.075 206.064,329.245 C209.456,323.415 211.152,316.860667 211.152,309.582 C211.152,302.303333 209.473667,295.766667 206.117,289.972 C202.760333,284.177333 198.167,279.654667 192.337,276.404 C186.507,273.153333 180.094,271.528 173.098,271.528 C166.102,271.528 159.689,273.153333 153.859,276.404 C148.029,279.654667 143.400333,284.177333 139.973,289.972 C136.545667,295.766667 134.832,302.303333 134.832,309.582 C134.832,316.860667 136.545667,323.415 139.973,329.245 C143.400333,335.075 148.029,339.615333 153.859,342.866 C159.689,346.116667 166.102,347.742 173.098,347.742 Z M173.098,331.206 C167.091333,331.206 162.303667,329.245 158.735,325.323 C155.166333,321.401 153.382,316.154 153.382,309.582 C153.382,302.939333 155.166333,297.674667 158.735,293.788 C162.303667,289.901333 167.091333,287.958 173.098,287.958 C179.034,287.958 183.786333,289.919 187.355,293.841 C190.923667,297.763 192.708,303.01 192.708,309.582 C192.708,316.083333 190.923667,321.312667 187.355,325.27 C183.786333,329.227333 179.034,331.206 173.098,331.206 Z M251.644,347.742 C257.509333,347.742 262.827,346.576 267.597,344.244 C272.367,341.912 276.165333,338.449333 278.992,333.856 C281.818667,329.262667 283.232,323.644667 283.232,317.002 L283.232,317.002 L283.232,272.588 L265.106,272.588 L265.106,317.108 C265.106,321.56 263.975333,324.987333 261.714,327.39 C259.452667,329.792667 256.202,330.994 251.962,330.994 C247.722,330.994 244.506667,329.792667 242.316,327.39 C240.125333,324.987333 239.03,321.56 239.03,317.108 L239.03,317.108 L239.03,272.588 L220.904,272.588 L220.904,317.002 C220.904,323.644667 222.246667,329.280333 224.932,333.909 C227.617333,338.537667 231.274333,342.000333 235.903,344.297 C240.531667,346.593667 245.778667,347.742 251.644,347.742 Z M323.83,347 C331.603333,347 338.440333,345.445333 344.341,342.336 C350.241667,339.226667 354.799667,334.845333 358.015,329.192 C361.230333,323.538667 362.838,317.072667 362.838,309.794 C362.838,302.444667 361.230333,295.961 358.015,290.343 C354.799667,284.725 350.259333,280.361333 344.394,277.252 C338.528667,274.142667 331.674,272.588 323.83,272.588 L323.83,272.588 L295.952,272.588 L295.952,347 L323.83,347 Z M322.664,331.312 L314.078,331.312 L314.078,288.064 L322.664,288.064 C329.518667,288.064 334.854,289.972 338.67,293.788 C342.486,297.604 344.394,302.939333 344.394,309.794 C344.394,316.648667 342.486,321.948667 338.67,325.694 C334.854,329.439333 329.518667,331.312 322.664,331.312 L322.664,331.312 Z" id="path-3"></path>
        <path d="M2.688,17 L2.688,12.344 L4.832,12.344 C6.13333333,12.344 7.10133333,12.0373333 7.736,11.424 C8.37066667,10.8106667 8.688,10.04 8.688,9.112 C8.688,8.152 8.36,7.368 7.704,6.76 C7.048,6.152 6.09066667,5.848 4.832,5.848 L4.832,5.848 L1.232,5.848 L1.232,17 L2.688,17 Z M4.832,11.144 L2.688,11.144 L2.688,7.048 L4.832,7.048 C6.41066667,7.048 7.2,7.736 7.2,9.112 C7.2,9.76266667 7.008,10.264 6.624,10.616 C6.24,10.968 5.64266667,11.144 4.832,11.144 L4.832,11.144 Z M11.248,6.808 C11.5146667,6.808 11.7413333,6.712 11.928,6.52 C12.1146667,6.328 12.208,6.09333333 12.208,5.816 C12.208,5.53866667 12.1146667,5.304 11.928,5.112 C11.7413333,4.92 11.5146667,4.824 11.248,4.824 C10.9706667,4.824 10.736,4.92 10.544,5.112 C10.352,5.304 10.256,5.53866667 10.256,5.816 C10.256,6.09333333 10.352,6.328 10.544,6.52 C10.736,6.712 10.9706667,6.808 11.248,6.808 Z M11.952,17 L11.952,8.232 L10.496,8.232 L10.496,17 L11.952,17 Z M15.888,17 L15.888,12.152 C15.888,11.2346667 16.1146667,10.536 16.568,10.056 C17.0213333,9.576 17.632,9.336 18.4,9.336 C19.1573333,9.336 19.7546667,9.568 20.192,10.032 C20.6293333,10.496 20.848,11.1653333 20.848,12.04 L20.848,12.04 L20.848,17 L22.288,17 L22.288,11.832 C22.288,10.616 21.9573333,9.68533333 21.296,9.04 C20.6346667,8.39466667 19.7706667,8.072 18.704,8.072 C18.1066667,8.072 17.56,8.19466667 17.064,8.44 C16.568,8.68533333 16.176,9.032 15.888,9.48 L15.888,9.48 L15.888,8.232 L14.432,8.232 L14.432,17 L15.888,17 Z M28.832,21.32 C29.6746667,21.32 30.4133333,21.144 31.048,20.792 C31.6826667,20.44 32.1706667,19.952 32.512,19.328 C32.8533333,18.704 33.024,17.992 33.024,17.192 L33.024,17.192 L33.024,8.232 L31.552,8.232 L31.552,9.832 C31.2746667,9.33066667 30.8506667,8.91466667 30.28,8.584 C29.7093333,8.25333333 29.0453333,8.088 28.288,8.088 C27.5093333,8.088 26.8026667,8.27466667 26.168,8.648 C25.5333333,9.02133333 25.0346667,9.54666667 24.672,10.224 C24.3093333,10.9013333 24.128,11.688 24.128,12.584 C24.128,13.4693333 24.3093333,14.2586667 24.672,14.952 C25.0346667,15.6453333 25.5333333,16.184 26.168,16.568 C26.8026667,16.952 27.5093333,17.144 28.288,17.144 C29.0453333,17.144 29.7066667,16.9733333 30.272,16.632 C30.8373333,16.2906667 31.264,15.864 31.552,15.352 L31.552,15.352 L31.552,17.192 C31.552,18.0986667 31.2986667,18.8026667 30.792,19.304 C30.2853333,19.8053333 29.632,20.056 28.832,20.056 C28.128,20.056 27.5253333,19.8933333 27.024,19.568 C26.5226667,19.2426667 26.192,18.8133333 26.032,18.28 L26.032,18.28 L24.592,18.28 C24.7306667,19.2186667 25.184,19.96 25.952,20.504 C26.72,21.048 27.68,21.32 28.832,21.32 Z M28.576,15.864 C28.032,15.864 27.536,15.7333333 27.088,15.472 C26.64,15.2106667 26.2826667,14.832 26.016,14.336 C25.7493333,13.84 25.616,13.256 25.616,12.584 C25.616,11.9226667 25.7493333,11.3466667 26.016,10.856 C26.2826667,10.3653333 26.64,9.992 27.088,9.736 C27.536,9.48 28.032,9.352 28.576,9.352 C29.12,9.352 29.6186667,9.48266667 30.072,9.744 C30.5253333,10.0053333 30.8853333,10.3813333 31.152,10.872 C31.4186667,11.3626667 31.552,11.9386667 31.552,12.6 C31.552,13.2613333 31.4186667,13.84 31.152,14.336 C30.8853333,14.832 30.5253333,15.2106667 30.072,15.472 C29.6186667,15.7333333 29.12,15.864 28.576,15.864 Z M40.512,17.096 C41.728,17.096 42.7893333,16.8053333 43.696,16.224 C44.6026667,15.6426667 45.264,14.8186667 45.68,13.752 L45.68,13.752 L43.936,13.752 C43.6266667,14.424 43.1813333,14.9386667 42.6,15.296 C42.0186667,15.6533333 41.3226667,15.832 40.512,15.832 C39.7333333,15.832 39.0346667,15.6506667 38.416,15.288 C37.7973333,14.9253333 37.312,14.4106667 36.96,13.744 C36.608,13.0773333 36.432,12.3013333 36.432,11.416 C36.432,10.52 36.608,9.73866667 36.96,9.072 C37.312,8.40533333 37.7973333,7.89066667 38.416,7.528 C39.0346667,7.16533333 39.7333333,6.984 40.512,6.984 C41.3226667,6.984 42.0186667,7.16533333 42.6,7.528 C43.1813333,7.89066667 43.6266667,8.408 43.936,9.08 L43.936,9.08 L45.68,9.08 C45.264,8.00266667 44.6026667,7.17066667 43.696,6.584 C42.7893333,5.99733333 41.728,5.704 40.512,5.704 C39.4773333,5.704 38.536,5.94933333 37.688,6.44 C36.84,6.93066667 36.1706667,7.61066667 35.68,8.48 C35.1893333,9.34933333 34.944,10.328 34.944,11.416 C34.944,12.504 35.1893333,13.48 35.68,14.344 C36.1706667,15.208 36.84,15.8826667 37.688,16.368 C38.536,16.8533333 39.4773333,17.096 40.512,17.096 Z M48.672,17 L49.568,14.52 L54.432,14.52 L55.328,17 L56.864,17 L52.848,5.912 L51.168,5.912 L47.136,17 L48.672,17 Z M54.016,13.336 L49.984,13.336 L52,7.704 L54.016,13.336 Z M60.08,17 L60.08,12.344 L62.224,12.344 C63.5253333,12.344 64.4933333,12.0373333 65.128,11.424 C65.7626667,10.8106667 66.08,10.04 66.08,9.112 C66.08,8.152 65.752,7.368 65.096,6.76 C64.44,6.152 63.4826667,5.848 62.224,5.848 L62.224,5.848 L58.624,5.848 L58.624,17 L60.08,17 Z M62.224,11.144 L60.08,11.144 L60.08,7.048 L62.224,7.048 C63.8026667,7.048 64.592,7.736 64.592,9.112 C64.592,9.76266667 64.4,10.264 64.016,10.616 C63.632,10.968 63.0346667,11.144 62.224,11.144 L62.224,11.144 Z M79.44,16.872 L79.44,15.656 L73.936,15.656 C74.9813333,14.8133333 75.84,14.0746667 76.512,13.44 C77.184,12.8053333 77.784,12.0693333 78.312,11.232 C78.84,10.3946667 79.104,9.53333333 79.104,8.648 C79.104,7.58133333 78.7813333,6.744 78.136,6.136 C77.4906667,5.528 76.6186667,5.224 75.52,5.224 C74.4426667,5.224 73.5626667,5.54933333 72.88,6.2 C72.1973333,6.85066667 71.8346667,7.77333333 71.792,8.968 L71.792,8.968 L73.2,8.968 C73.232,8.21066667 73.448,7.60533333 73.848,7.152 C74.248,6.69866667 74.8106667,6.472 75.536,6.472 C76.2826667,6.472 76.824,6.672 77.16,7.072 C77.496,7.472 77.664,8.01866667 77.664,8.712 C77.664,9.448 77.4,10.1973333 76.872,10.96 C76.344,11.7226667 75.696,12.4533333 74.928,13.152 C74.16,13.8506667 73.0986667,14.744 71.744,15.832 L71.744,15.832 L71.744,16.872 L79.44,16.872 Z M85.152,17 C86.6346667,17 87.6746667,16.4826667 88.272,15.448 C88.8693333,14.4133333 89.168,12.9626667 89.168,11.096 C89.168,9.26133333 88.8693333,7.82933333 88.272,6.8 C87.6746667,5.77066667 86.6346667,5.256 85.152,5.256 C83.6586667,5.256 82.6133333,5.77066667 82.016,6.8 C81.4186667,7.82933333 81.12,9.26133333 81.12,11.096 C81.12,12.9626667 81.4186667,14.4133333 82.016,15.448 C82.6133333,16.4826667 83.6586667,17 85.152,17 Z M85.152,15.672 C84.4266667,15.672 83.8746667,15.4746667 83.496,15.08 C83.1173333,14.6853333 82.8666667,14.1626667 82.744,13.512 C82.6213333,12.8613333 82.56,12.056 82.56,11.096 C82.56,10.168 82.6213333,9.38133333 82.744,8.736 C82.8666667,8.09066667 83.1173333,7.57066667 83.496,7.176 C83.8746667,6.78133333 84.4266667,6.584 85.152,6.584 C85.8666667,6.584 86.4133333,6.78133333 86.792,7.176 C87.1706667,7.57066667 87.4213333,8.09066667 87.544,8.736 C87.6666667,9.38133333 87.728,10.168 87.728,11.096 C87.728,12.056 87.6666667,12.8613333 87.544,13.512 C87.4213333,14.1626667 87.1706667,14.6853333 86.792,15.08 C86.4133333,15.4746667 85.8666667,15.672 85.152,15.672 Z M93.792,17 L93.792,5.432 L90.784,5.432 L90.784,6.76 L92.32,6.76 L92.32,17 L93.792,17 Z M100.448,17.032 C101.322667,17.032 102.056,16.856 102.648,16.504 C103.24,16.152 103.68,15.672 103.968,15.064 C104.256,14.456 104.4,13.768 104.4,13 C104.4,12.3493333 104.28,11.7333333 104.04,11.152 C103.8,10.5706667 103.402667,10.096 102.848,9.728 C102.293333,9.36 101.573333,9.176 100.688,9.176 C100.133333,9.176 99.616,9.28533333 99.136,9.504 C98.656,9.72266667 98.2933333,10.0026667 98.048,10.344 L98.048,10.344 L98.048,6.696 L103.664,6.696 L103.664,5.416 L96.704,5.416 L96.704,11.944 L98.08,11.944 C98.272,11.4746667 98.5786667,11.104 99,10.832 C99.4213333,10.56 99.9146667,10.424 100.48,10.424 C101.312,10.424 101.941333,10.6506667 102.368,11.104 C102.794667,11.5573333 103.008,12.2 103.008,13.032 C103.008,13.864 102.794667,14.5333333 102.368,15.04 C101.941333,15.5466667 101.306667,15.8 100.464,15.8 C99.7813333,15.8 99.216,15.6293333 98.768,15.288 C98.32,14.9466667 98.0266667,14.472 97.888,13.864 L97.888,13.864 L96.464,13.864 C96.6133333,14.824 97.0346667,15.592 97.728,16.168 C98.4213333,16.744 99.328,17.032 100.448,17.032 Z M116.928,11.752 L116.928,10.52 L110.544,10.52 L110.544,11.752 L116.928,11.752 Z M131.216,16.872 L131.216,15.656 L125.712,15.656 C126.757333,14.8133333 127.616,14.0746667 128.288,13.44 C128.96,12.8053333 129.56,12.0693333 130.088,11.232 C130.616,10.3946667 130.88,9.53333333 130.88,8.648 C130.88,7.58133333 130.557333,6.744 129.912,6.136 C129.266667,5.528 128.394667,5.224 127.296,5.224 C126.218667,5.224 125.338667,5.54933333 124.656,6.2 C123.973333,6.85066667 123.610667,7.77333333 123.568,8.968 L123.568,8.968 L124.976,8.968 C125.008,8.21066667 125.224,7.60533333 125.624,7.152 C126.024,6.69866667 126.586667,6.472 127.312,6.472 C128.058667,6.472 128.6,6.672 128.936,7.072 C129.272,7.472 129.44,8.01866667 129.44,8.712 C129.44,9.448 129.176,10.1973333 128.648,10.96 C128.12,11.7226667 127.472,12.4533333 126.704,13.152 C125.936,13.8506667 124.874667,14.744 123.52,15.832 L123.52,15.832 L123.52,16.872 L131.216,16.872 Z M136.928,17 C138.410667,17 139.450667,16.4826667 140.048,15.448 C140.645333,14.4133333 140.944,12.9626667 140.944,11.096 C140.944,9.26133333 140.645333,7.82933333 140.048,6.8 C139.450667,5.77066667 138.410667,5.256 136.928,5.256 C135.434667,5.256 134.389333,5.77066667 133.792,6.8 C133.194667,7.82933333 132.896,9.26133333 132.896,11.096 C132.896,12.9626667 133.194667,14.4133333 133.792,15.448 C134.389333,16.4826667 135.434667,17 136.928,17 Z M136.928,15.672 C136.202667,15.672 135.650667,15.4746667 135.272,15.08 C134.893333,14.6853333 134.642667,14.1626667 134.52,13.512 C134.397333,12.8613333 134.336,12.056 134.336,11.096 C134.336,10.168 134.397333,9.38133333 134.52,8.736 C134.642667,8.09066667 134.893333,7.57066667 135.272,7.176 C135.650667,6.78133333 136.202667,6.584 136.928,6.584 C137.642667,6.584 138.189333,6.78133333 138.568,7.176 C138.946667,7.57066667 139.197333,8.09066667 139.32,8.736 C139.442667,9.38133333 139.504,10.168 139.504,11.096 C139.504,12.056 139.442667,12.8613333 139.32,13.512 C139.197333,14.1626667 138.946667,14.6853333 138.568,15.08 C138.189333,15.4746667 137.642667,15.672 136.928,15.672 Z M150.464,16.872 L150.464,15.656 L144.96,15.656 C146.005333,14.8133333 146.864,14.0746667 147.536,13.44 C148.208,12.8053333 148.808,12.0693333 149.336,11.232 C149.864,10.3946667 150.128,9.53333333 150.128,8.648 C150.128,7.58133333 149.805333,6.744 149.16,6.136 C148.514667,5.528 147.642667,5.224 146.544,5.224 C145.466667,5.224 144.586667,5.54933333 143.904,6.2 C143.221333,6.85066667 142.858667,7.77333333 142.816,8.968 L142.816,8.968 L144.224,8.968 C144.256,8.21066667 144.472,7.60533333 144.872,7.152 C145.272,6.69866667 145.834667,6.472 146.56,6.472 C147.306667,6.472 147.848,6.672 148.184,7.072 C148.52,7.472 148.688,8.01866667 148.688,8.712 C148.688,9.448 148.424,10.1973333 147.896,10.96 C147.368,11.7226667 146.72,12.4533333 145.952,13.152 C145.184,13.8506667 144.122667,14.744 142.768,15.832 L142.768,15.832 L142.768,16.872 L150.464,16.872 Z M159.664,16.872 L159.664,15.656 L154.16,15.656 C155.205333,14.8133333 156.064,14.0746667 156.736,13.44 C157.408,12.8053333 158.008,12.0693333 158.536,11.232 C159.064,10.3946667 159.328,9.53333333 159.328,8.648 C159.328,7.58133333 159.005333,6.744 158.36,6.136 C157.714667,5.528 156.842667,5.224 155.744,5.224 C154.666667,5.224 153.786667,5.54933333 153.104,6.2 C152.421333,6.85066667 152.058667,7.77333333 152.016,8.968 L152.016,8.968 L153.424,8.968 C153.456,8.21066667 153.672,7.60533333 154.072,7.152 C154.472,6.69866667 155.034667,6.472 155.76,6.472 C156.506667,6.472 157.048,6.672 157.384,7.072 C157.72,7.472 157.888,8.01866667 157.888,8.712 C157.888,9.448 157.624,10.1973333 157.096,10.96 C156.568,11.7226667 155.92,12.4533333 155.152,13.152 C154.384,13.8506667 153.322667,14.744 151.968,15.832 L151.968,15.832 L151.968,16.872 L159.664,16.872 Z M166.688,17 L167.584,14.52 L172.448,14.52 L173.344,17 L174.88,17 L170.864,5.912 L169.184,5.912 L165.152,17 L166.688,17 Z M172.032,13.336 L168,13.336 L170.016,7.704 L172.032,13.336 Z M178.096,17 L178.096,12.344 L180.24,12.344 C181.541333,12.344 182.509333,12.0373333 183.144,11.424 C183.778667,10.8106667 184.096,10.04 184.096,9.112 C184.096,8.152 183.768,7.368 183.112,6.76 C182.456,6.152 181.498667,5.848 180.24,5.848 L180.24,5.848 L176.64,5.848 L176.64,17 L178.096,17 Z M180.24,11.144 L178.096,11.144 L178.096,7.048 L180.24,7.048 C181.818667,7.048 182.608,7.736 182.608,9.112 C182.608,9.76266667 182.416,10.264 182.032,10.616 C181.648,10.968 181.050667,11.144 180.24,11.144 L180.24,11.144 Z M187.36,17 L187.36,12.44 L189.12,12.44 L191.776,17 L193.52,17 L190.72,12.328 C191.605333,12.136 192.269333,11.7466667 192.712,11.16 C193.154667,10.5733333 193.376,9.896 193.376,9.128 C193.376,8.49866667 193.232,7.93866667 192.944,7.448 C192.656,6.95733333 192.221333,6.568 191.64,6.28 C191.058667,5.992 190.346667,5.848 189.504,5.848 L189.504,5.848 L185.904,5.848 L185.904,17 L187.36,17 Z M189.504,11.272 L187.36,11.272 L187.36,7.048 L189.504,7.048 C190.304,7.048 190.898667,7.22933333 191.288,7.592 C191.677333,7.95466667 191.872,8.46666667 191.872,9.128 C191.872,9.77866667 191.674667,10.2986667 191.28,10.688 C190.885333,11.0773333 190.293333,11.272 189.504,11.272 L189.504,11.272 Z M197.088,17 L197.088,5.848 L195.632,5.848 L195.632,17 L197.088,17 Z M204.928,17 L204.928,15.816 L201.024,15.816 L201.024,5.848 L199.568,5.848 L199.568,17 L204.928,17 Z M214.56,17.32 C215.370667,17.32 216.088,17.1786667 216.712,16.896 C217.336,16.6133333 217.818667,16.2133333 218.16,15.696 C218.501333,15.1786667 218.672,14.5733333 218.672,13.88 C218.672,13.1653333 218.477333,12.5546667 218.088,12.048 C217.698667,11.5413333 217.173333,11.1866667 216.512,10.984 C217.088,10.76 217.541333,10.416 217.872,9.952 C218.202667,9.488 218.368,8.94666667 218.368,8.328 C218.368,7.752 218.221333,7.232 217.928,6.768 C217.634667,6.304 217.202667,5.936 216.632,5.664 C216.061333,5.392 215.370667,5.256 214.56,5.256 C213.749333,5.256 213.058667,5.392 212.488,5.664 C211.917333,5.936 211.488,6.304 211.2,6.768 C210.912,7.232 210.768,7.752 210.768,8.328 C210.768,8.968 210.928,9.512 211.248,9.96 C211.568,10.408 212.026667,10.7493333 212.624,10.984 C211.962667,11.176 211.44,11.528 211.056,12.04 C210.672,12.552 210.48,13.1653333 210.48,13.88 C210.48,14.5733333 210.650667,15.1786667 210.992,15.696 C211.333333,16.2133333 211.810667,16.6133333 212.424,16.896 C213.037333,17.1786667 213.749333,17.32 214.56,17.32 Z M214.56,10.504 C213.856,10.504 213.282667,10.3226667 212.84,9.96 C212.397333,9.59733333 212.176,9.11733333 212.176,8.52 C212.176,7.85866667 212.389333,7.352 212.816,7 C213.242667,6.648 213.824,6.472 214.56,6.472 C215.306667,6.472 215.893333,6.648 216.32,7 C216.746667,7.352 216.96,7.85333333 216.96,8.504 C216.96,9.10133333 216.738667,9.584 216.296,9.952 C215.853333,10.32 215.274667,10.504 214.56,10.504 Z M214.56,16.104 C213.738667,16.104 213.085333,15.896 212.6,15.48 C212.114667,15.064 211.872,14.5146667 211.872,13.832 C211.872,13.096 212.122667,12.544 212.624,12.176 C213.125333,11.808 213.770667,11.624 214.56,11.624 C215.36,11.624 216.005333,11.8133333 216.496,12.192 C216.986667,12.5706667 217.232,13.1173333 217.232,13.832 C217.232,14.5146667 216.992,15.064 216.512,15.48 C216.032,15.896 215.381333,16.104 214.56,16.104 Z M224.672,17 L224.672,7.032 L227.712,7.032 L227.712,5.848 L220.16,5.848 L220.16,7.032 L223.216,7.032 L223.216,17 L224.672,17 Z M230.96,17 L230.96,11.944 L236.64,11.944 L236.64,17 L238.096,17 L238.096,5.848 L236.64,5.848 L236.64,10.744 L230.96,10.744 L230.96,5.848 L229.504,5.848 L229.504,17 L230.96,17 Z" id="path-4"></path>
    </defs>
    <g id="页面-1" stroke="none" stroke-width="1" fill="none" fill-rule="evenodd">
        <g id="title">
            <path d="M261.856,236.408 L261.856,236.408 C254.644377,223.850159 240.336636,217.157985 226.075316,219.672265 C211.813995,222.186545 200.657403,233.368096 198.175,247.635 C186.815688,250.269247 179.240133,261.006386 180.567094,272.591394 C181.894056,284.176402 191.701244,292.9225 203.362,292.920001 C204.138667,292.920001 204.913333,292.880333 205.686,292.801 L252.673,292.801 C253.441,292.862 254.212,292.920001 254.997,292.920001 C269.497153,292.922701 281.716572,282.098618 283.46351,267.704082 C285.210448,253.309547 275.934866,239.876805 261.855,236.411 L261.856,236.408 Z M232.008,247.334 L232.008,278.224 L223.129,273.105 L223.129,252.464 L214.247,257.598 L214.247,247.341 L232.008,237.085 L240.887,242.208 L232.008,247.334 Z M249.854,267.951 L240.937,273.098 L240.937,252.518 L249.854,247.365 L249.854,267.951 Z" id="路径_1967" fill="#FFFFFF" fill-rule="nonzero"></path>
            <g id="YEAR_OF_CLOUD" transform="translate(0.000000, 59.795000)" fill-rule="nonzero">
                <g id="YEAR">
                    <use fill="#000000" xlink:href="#path-1"></use>
                    <use fill="#FFFFFF" xlink:href="#path-1"></use>
                </g>
                <g id="OF">
                    <use fill="#000000" xlink:href="#path-2"></use>
                    <use fill="#FFFFFF" xlink:href="#path-2"></use>
                </g>
                <g id="CLOUD">
                    <use fill="#000000" xlink:href="#path-3"></use>
                    <use fill="#FFFFFF" xlink:href="#path-3"></use>
                </g>
            </g>
            <g id="组_159" transform="translate(4.723000, 0.000000)">
                <g id="组_155" transform="translate(52.604000, 10.364388)" fill="#FFFFFF" fill-rule="nonzero">
                    <path d="M71.692,15.540612 L71.686,15.540612 L71.641,15.612612 C70.9563314,16.6809698 70.0256971,17.5697701 68.927,18.204612 C67.8080068,18.8915213 66.5239111,19.2626513 65.211,19.278612 C63.0525877,19.2821958 60.9996826,18.345373 59.588,16.712612 C58.0668682,15.0410149 57.2587874,12.8413986 57.336,10.582612 C57.3459686,8.42014345 58.1766075,6.3421165 59.66,4.76861201 C61.2560204,3.02953986 63.5755745,2.14013028 65.9251486,2.36630405 C68.2747227,2.59247783 70.3820242,3.90802362 71.617,5.91961201 L71.662,5.99061201 L71.706,5.99061201 L73.554,4.84761201 C72.7868622,3.55528102 71.7449246,2.44745414 70.502,1.60261201 C68.9356233,0.558816218 67.0952979,0.00209080688 65.213,0.00261200683 C62.534998,-0.0608930203 59.9602401,1.03616821 58.151,3.01161201 C56.1722337,5.06670244 55.1042635,7.8319632 55.188,10.683612 C55.1411142,13.5321512 56.1924656,16.2894419 58.124,18.383612 C59.8821552,20.4068555 62.4335984,21.5650428 65.114,21.5566577 L65.214,21.5566577 C68.6601744,21.5348834 71.8343514,19.6807404 73.546,16.689612 L71.692,15.540612 Z" id="路径_1968"></path>
                    <polygon id="路径_1969" points="85.493 0.269612007 82.983 0.269612007 73.653 21.152612 76.63 21.152612 79.513 14.211612 79.513 14.211612 80.532 12.042612 80.532 12.042612 84.288 3.22961201 87.969 12.042612 82.686 12.042612 81.723 14.211612 88.823 14.211612 91.733 21.152612 94.358 21.152612"></polygon>
                    <path d="M108.008,2.18161201 C106.583591,0.916550585 104.730306,0.242401315 102.826,0.296612007 L96.069,0.296612007 L96.069,21.153612 L98.532,21.153612 L98.532,12.984612 L98.532,12.984612 L98.532,10.784612 L98.532,10.784612 L98.532,2.54261201 L102.932,2.54261201 C104.10032,2.51809565 105.238765,2.91295063 106.141,3.65561201 C107.024834,4.30499858 107.56246,5.32350256 107.6,6.41961201 C107.718796,7.63100183 107.228753,8.82239144 106.292,9.59961201 C105.408421,10.3944672 104.253017,10.8191057 103.065,10.785612 L100.516,10.785612 L100.516,12.985612 L103.466,12.985612 C105.166033,13.015619 106.812061,12.3883731 108.061,11.234612 C109.31698,10.1440789 110.037615,8.56196541 110.036,6.89861201 C110.115471,5.09914515 109.36859,3.36194735 108.008,2.18161201 Z" id="路径_1970"></path>
                    <rect id="矩形_32" x="16.318" y="0.681612007" width="2.461" height="2.461"></rect>
                    <rect id="矩形_33" x="16.318" y="6.19761201" width="2.461" height="14.988"></rect>
                    <path d="M53.394,19.685612 L53.394,13.249612 C53.3842157,11.0771575 52.5110597,8.99773559 50.9669355,7.46955533 C49.4228113,5.94137507 47.3344391,5.08984818 45.162,5.10247056 C43.0688918,5.15220785 41.0849526,6.04678407 39.662,7.58261201 C38.2009708,9.09251527 37.3976879,11.11978 37.428,13.220612 C37.4070913,15.4208221 38.2821664,17.5348649 39.852,19.076612 C41.3534421,20.6483402 43.4616595,21.4933047 45.633,21.393612 C47.6999097,21.3462993 49.6602665,20.466897 51.07,18.954612 L51.07,19.976612 M51.07,19.976612 C51.0736528,21.3321739 50.4901097,22.6228984 49.47,23.515612 C48.4656872,24.4975402 47.1165732,25.0468069 45.712,25.045612 C44.5034786,25.0509001 43.3268596,24.6579909 42.364,23.927612 C41.5944196,23.406196 40.9809138,22.6855428 40.589,21.842612 L38.704,22.931612 C39.1810388,23.8565013 39.8519622,24.6676125 40.671,25.309612 C42.0456216,26.3740608 43.7267511,26.9670499 45.465,27.000612 C45.582,27.000612 45.699,27.0076442 45.816,27.0076442 C47.6930452,27.012902 49.5135759,26.3656415 50.966,25.176612 C52.5154882,24.0240977 53.4210847,22.2006418 53.403,20.269612 L53.403,19.686612 M51.021,13.406612 C51.0058508,14.9050479 50.4096441,16.3390989 49.358,17.406612 C48.3702823,18.489567 46.9634429,19.0938519 45.498,19.064612 C43.9913102,19.0933343 42.541159,18.491159 41.498,17.403612 C40.4022323,16.3514437 39.7831913,14.8977448 39.784,13.378612 C39.7385876,11.8653933 40.2998881,10.3967951 41.343,9.29961201 C42.3167936,8.16781817 43.7162169,7.49037416 45.208,7.42861201 C45.308,7.42394534 45.408,7.42161201 45.508,7.42161201 C46.9798388,7.4066892 48.3849967,8.03440914 49.356,9.14061201 C50.4848117,10.2648304 51.0849959,11.8143375 51.008,13.405612 L51.021,13.406612 Z" id="路径_1971"></path>
                    <path d="M11.935,2.18161201 C10.5107489,0.916285762 8.65735552,0.24209695 6.753,0.296612007 L0,0.296612007 L0,21.153612 L2.462,21.153612 L2.462,12.984612 L2.462,12.984612 L2.462,10.784612 L2.462,10.784612 L2.462,2.54261201 L6.862,2.54261201 C8.0306058,2.51821068 9.16932669,2.91303821 10.072,3.65561201 C10.9552579,4.30549488 11.4927248,5.32369811 11.531,6.41961201 C11.6493768,7.63115205 11.1589787,8.82249347 10.222,9.59961201 C9.33847476,10.3945567 8.18303417,10.8192089 6.995,10.785612 L4.445,10.785612 L4.445,12.985612 L7.4,12.985612 C9.10003313,13.015619 10.7460611,12.3883731 11.995,11.234612 C13.2509796,10.1440789 13.9716148,8.56196541 13.97,6.89861201 C14.0477338,5.09798934 13.2981896,3.36059398 11.935,2.18161201 Z" id="路径_1972"></path>
                    <path d="M28.445,5.27761201 C26.5912539,5.23321612 24.8031341,5.96470319 23.512,7.29561201 C22.2066375,8.63115069 21.4983798,10.4387771 21.549,12.305612 L21.549,21.118612 L23.923,21.118612 L23.923,12.093612 C23.9051199,10.8921737 24.3893559,9.73776381 25.259,8.90861201 C26.0920378,8.04462612 27.2438752,7.5614692 28.444,7.57261201 C29.6284716,7.5624748 30.763534,8.04665213 31.576,8.90861201 C32.4540626,9.73413376 32.9480477,10.8884572 32.939,12.093612 L32.939,21.118612 L35.313,21.118612 L35.313,12.305612 C35.3636202,10.4387771 34.6553625,8.63115069 33.35,7.29561201 C32.0677683,5.96863997 30.2898134,5.23715922 28.445,5.27761201 L28.445,5.27761201 Z" id="路径_1973"></path>
                </g>
                <g id="组_158">
                    <rect id="矩形_34" fill="#FFFFFF" fill-rule="nonzero" x="0" y="0" width="42.152" height="42.152" rx="5.622"></rect>
                    <g id="组_157" transform="translate(5.269000, 5.268694)">
                        <rect id="矩形_35" x="0" y="0.000305898713" width="31.614" height="31.614"></rect>
                        <g id="组_156" transform="translate(3.157998, 0.000000)" fill-rule="nonzero">
                            <path d="M15.8090019,7.3693059 L1.91500193,3.4613059 C1.46307801,3.33201768 0.976704738,3.42115529 0.600001927,3.7023059 C0.222772304,3.97747654 -0.000209311232,4.41637868 0,4.8833059 L0,30.1333059 C-0.000735676656,30.5880832 0.210345154,31.0172686 0.571001927,31.2943059 C0.835281819,31.5012526 1.16133734,31.6133064 1.49700193,31.6133064 C1.61518966,31.6133064 1.73296895,31.5994309 1.84800193,31.5723059 L15.7430019,28.3073059 L15.7430019,28.3073059 C16.4157175,28.1551806 16.8937888,27.5580064 16.8950019,26.8683059 L16.8950019,8.7923059 C16.8903527,8.12903271 16.4475403,7.54880986 15.8090019,7.3693059 Z" id="路径_1974" fill="#172D72"></path>
                            <path d="M25.2740019,6.4713059 C25.267011,5.80961185 24.8241705,5.231923 24.1870019,5.0533059 L6.50200193,0.0583058987 C6.04977155,-0.0713142665 5.56294942,0.0178378094 5.18600193,0.299305899 C4.80864494,0.574368074 4.58562798,1.01333978 4.58600146,1.4803059 L4.58600146,20.6403059 C4.58565653,21.095221 4.79709114,21.5243741 5.15800193,21.8013059 C5.52001235,22.0833775 5.99088496,22.1849888 6.43700193,22.0773059 L24.1430019,17.8773059 C24.8152545,17.7238127 25.2920019,17.1258591 25.2920019,16.4363059 L25.2740019,6.4713059 Z" id="路径_1975" fill="#00AEEF"></path>
                            <path d="M15.8100019,7.3693059 L4.5890015,4.2143059 L4.5890015,20.6403059 C4.58865653,21.095221 4.80009114,21.5243741 5.16100193,21.8013059 C5.52301235,22.0833775 5.99388496,22.1849888 6.44000193,22.0773059 L16.8980019,19.5963059 L16.8980019,8.7963059 C16.8948777,8.13098473 16.4507513,7.54847703 15.8100019,7.3693059 L15.8100019,7.3693059 Z" id="路径_1976" fill="#3D3FEA"></path>
                        </g>
                    </g>
                </g>
            </g>
            <g id="PingCAP_2015_-_2022_APRIL_8TH" transform="translate(3.528000, 457.721000)" fill-rule="nonzero">
                <g id="PingCAP2015-2022APRIL8TH">
                    <use fill="#000000" xlink:href="#path-4"></use>
                    <use fill="#FFFFFF" xlink:href="#path-4"></use>
                </g>
            </g>
        </g>
    </g>
</svg>