<?xml version="1.0" encoding="UTF-8"?>
<svg width="370px" height="108px" viewBox="0 0 370 108" version="1.1" xmlns="http://www.w3.org/2000/svg" xmlns:xlink="http://www.w3.org/1999/xlink">
    <title>title-m</title>
    <g id="页面-1" stroke="none" stroke-width="1" fill="none" fill-rule="evenodd">
        <g id="title-m">
            <g id="组_3607" transform="translate(0.280000, 50.553204)" fill-rule="nonzero">
                <path d="M360.192,6.84679615 L360.192,6.84679615 C357.331422,1.86527735 351.655885,-0.789507552 345.998683,0.207741848 C340.341482,1.20499125 335.915804,5.64041495 334.931,11.2997961 C330.426266,12.3461941 327.42277,16.604922 327.949141,21.1995398 C328.475511,25.7941577 332.364329,29.2632852 336.989,29.2637961 C337.297,29.2637961 337.604333,29.2481294 337.911,29.2167961 L356.55,29.2167961 C356.85,29.2407961 357.161,29.2637961 357.472,29.2637961 C363.223558,29.2644061 368.070258,24.9709121 368.763332,19.2612651 C369.456406,13.5516181 365.77767,8.22325135 360.193,6.84779615 L360.192,6.84679615 Z M348.352,11.1807961 L348.352,23.4337961 L344.83,21.4027961 L344.83,13.2147961 L341.307,15.2497961 L341.307,11.1837961 L348.353,7.11579615 L351.875,9.14779615 L348.352,11.1807961 Z M355.431,19.3587961 L351.894,21.4007961 L351.894,13.2367961 L355.431,11.1927961 L355.431,19.3587961 Z" id="路径_1967" fill="#FFFFFF"></path>
                <g id="YEAROFCLOUD" transform="translate(0.000000, 0.466796)">
                    <g id="path-1-link" fill="#000000">
                        <path d="M16.56,28.48 L16.56,19.2 L26.28,0.4 L18.6,0.4 L13.2,12.16 L7.76,0.4 L-1.11022302e-15,0.4 L9.72,19.2 L9.72,28.48 L16.56,28.48 Z M46.24,28.48 L46.24,23 L35.88,23 L35.88,16.84 L45.04,16.84 L45.04,11.56 L35.88,11.56 L35.88,5.88 L46.24,5.88 L46.24,0.4 L29.04,0.4 L29.04,28.48 L46.24,28.48 Z M56,28.48 L57.68,23.52 L68.16,23.52 L69.84,28.48 L77.08,28.48 L66.92,0.4 L59,0.4 L48.84,28.48 L56,28.48 Z M66.4,18.24 L59.48,18.24 L62.92,7.96 L66.4,18.24 Z M87,28.48 L87,17.88 L88.64,17.88 L94.48,28.48 L102.2,28.48 L95.72,17.36 C97.7733333,16.7466667 99.3266667,15.7066667 100.38,14.24 C101.433333,12.7733333 101.96,11.1066667 101.96,9.24 C101.96,7.5866667 101.573333,6.0866667 100.8,4.74 C100.026667,3.3933333 98.86,2.3333333 97.3,1.56 C95.74,0.7866667 93.8533333,0.4 91.64,0.4 L91.64,0.4 L80.16,0.4 L80.16,28.48 L87,28.48 Z M91.24,13.04 L87,13.04 L87,6.08 L91.24,6.08 C92.4933333,6.08 93.4333333,6.3866667 94.06,7 C94.6866667,7.6133333 95,8.4533333 95,9.52 C95,10.64 94.6866667,11.5066667 94.06,12.12 C93.4333333,12.7333333 92.4933333,13.04 91.24,13.04 L91.24,13.04 Z M128,28.76 C130.64,28.76 133.053333,28.1466667 135.24,26.92 C137.426667,25.6933333 139.16,23.98 140.44,21.78 C141.72,19.58 142.36,17.1066667 142.36,14.36 C142.36,11.6133333 141.726667,9.1466667 140.46,6.96 C139.193333,4.7733333 137.46,3.0666667 135.26,1.84 C133.06,0.6133333 130.64,3.55271368e-15 128,3.55271368e-15 C125.36,3.55271368e-15 122.94,0.6133333 120.74,1.84 C118.54,3.0666667 116.793333,4.7733333 115.5,6.96 C114.206667,9.1466667 113.56,11.6133333 113.56,14.36 C113.56,17.1066667 114.206667,19.58 115.5,21.78 C116.793333,23.98 118.54,25.6933333 120.74,26.92 C122.94,28.1466667 125.36,28.76 128,28.76 Z M128,22.52 C125.733333,22.52 123.926667,21.78 122.58,20.3 C121.233333,18.82 120.56,16.84 120.56,14.36 C120.56,11.8533333 121.233333,9.8666667 122.58,8.4 C123.926667,6.9333333 125.733333,6.2 128,6.2 C130.24,6.2 132.033333,6.94 133.38,8.42 C134.726667,9.9 135.4,11.88 135.4,14.36 C135.4,16.8133333 134.726667,18.7866667 133.38,20.28 C132.033333,21.7733333 130.24,22.52 128,22.52 Z M153,28.48 L153,17.12 L161.56,17.12 L161.56,11.8 L153,11.8 L153,5.88 L164.44,5.88 L164.44,0.4 L146.16,0.4 L146.16,28.48 L153,28.48 Z M189.48,28.68 C192.813333,28.68 195.666667,27.8066667 198.04,26.06 C200.413333,24.3133333 202,21.92 202.8,18.88 L202.8,18.88 L195.28,18.88 C194.72,20.0533333 193.926667,20.9466667 192.9,21.56 C191.873333,22.1733333 190.706667,22.48 189.4,22.48 C187.293333,22.48 185.586667,21.7466667 184.28,20.28 C182.973333,18.8133333 182.32,16.8533333 182.32,14.4 C182.32,11.9466667 182.973333,9.9866667 184.28,8.52 C185.586667,7.0533333 187.293333,6.32 189.4,6.32 C190.706667,6.32 191.873333,6.6266667 192.9,7.24 C193.926667,7.8533333 194.72,8.7466667 195.28,9.92 L195.28,9.92 L202.8,9.92 C202,6.88 200.413333,4.48 198.04,2.72 C195.666667,0.96 192.813333,0.08 189.48,0.08 C186.76,0.08 184.326667,0.6866667 182.18,1.9 C180.033333,3.1133333 178.36,4.8066667 177.16,6.98 C175.96,9.1533333 175.36,11.6266667 175.36,14.4 C175.36,17.1733333 175.96,19.64 177.16,21.8 C178.36,23.96 180.033333,25.6466667 182.18,26.86 C184.326667,28.0733333 186.76,28.68 189.48,28.68 Z M222.8,28.48 L222.8,23.2 L213.84,23.2 L213.84,0.4 L207,0.4 L207,28.48 L222.8,28.48 Z M239.36,28.76 C242,28.76 244.413333,28.1466667 246.6,26.92 C248.786667,25.6933333 250.52,23.98 251.8,21.78 C253.08,19.58 253.72,17.1066667 253.72,14.36 C253.72,11.6133333 253.086667,9.1466667 251.82,6.96 C250.553333,4.7733333 248.82,3.0666667 246.62,1.84 C244.42,0.6133333 242,3.55271368e-15 239.36,3.55271368e-15 C236.72,3.55271368e-15 234.3,0.6133333 232.1,1.84 C229.9,3.0666667 228.153333,4.7733333 226.86,6.96 C225.566667,9.1466667 224.92,11.6133333 224.92,14.36 C224.92,17.1066667 225.566667,19.58 226.86,21.78 C228.153333,23.98 229.9,25.6933333 232.1,26.92 C234.3,28.1466667 236.72,28.76 239.36,28.76 Z M239.36,22.52 C237.093333,22.52 235.286667,21.78 233.94,20.3 C232.593333,18.82 231.92,16.84 231.92,14.36 C231.92,11.8533333 232.593333,9.8666667 233.94,8.4 C235.286667,6.9333333 237.093333,6.2 239.36,6.2 C241.6,6.2 243.393333,6.94 244.74,8.42 C246.086667,9.9 246.76,11.88 246.76,14.36 C246.76,16.8133333 246.086667,18.7866667 244.74,20.28 C243.393333,21.7733333 241.6,22.52 239.36,22.52 Z M269,28.76 C271.213333,28.76 273.22,28.32 275.02,27.44 C276.82,26.56 278.253333,25.2533333 279.32,23.52 C280.386667,21.7866667 280.92,19.6666667 280.92,17.16 L280.92,17.16 L280.92,0.4 L274.08,0.4 L274.08,17.2 C274.08,18.88 273.653333,20.1733333 272.8,21.08 C271.946667,21.9866667 270.72,22.44 269.12,22.44 C267.52,22.44 266.306667,21.9866667 265.48,21.08 C264.653333,20.1733333 264.24,18.88 264.24,17.2 L264.24,17.2 L264.24,0.4 L257.4,0.4 L257.4,17.16 C257.4,19.6666667 257.906667,21.7933333 258.92,23.54 C259.933333,25.2866667 261.313333,26.5933333 263.06,27.46 C264.806667,28.3266667 266.786667,28.76 269,28.76 Z M296.24,28.48 C299.173333,28.48 301.753333,27.8933333 303.98,26.72 C306.206667,25.5466667 307.926667,23.8933333 309.14,21.76 C310.353333,19.6266667 310.96,17.1866667 310.96,14.44 C310.96,11.6666667 310.353333,9.22 309.14,7.1 C307.926667,4.98 306.213333,3.3333333 304,2.16 C301.786667,0.9866667 299.2,0.4 296.24,0.4 L296.24,0.4 L285.72,0.4 L285.72,28.48 L296.24,28.48 Z M295.8,22.56 L292.56,22.56 L292.56,6.24 L295.8,6.24 C298.386667,6.24 300.4,6.96 301.84,8.4 C303.28,9.84 304,11.8533333 304,14.44 C304,17.0266667 303.28,19.0266667 301.84,20.44 C300.4,21.8533333 298.386667,22.56 295.8,22.56 L295.8,22.56 Z" id="path-1"></path>
                    </g>
                    <g id="path-1-link" fill="#FFFFFF">
                        <path d="M16.56,28.48 L16.56,19.2 L26.28,0.4 L18.6,0.4 L13.2,12.16 L7.76,0.4 L-1.11022302e-15,0.4 L9.72,19.2 L9.72,28.48 L16.56,28.48 Z M46.24,28.48 L46.24,23 L35.88,23 L35.88,16.84 L45.04,16.84 L45.04,11.56 L35.88,11.56 L35.88,5.88 L46.24,5.88 L46.24,0.4 L29.04,0.4 L29.04,28.48 L46.24,28.48 Z M56,28.48 L57.68,23.52 L68.16,23.52 L69.84,28.48 L77.08,28.48 L66.92,0.4 L59,0.4 L48.84,28.48 L56,28.48 Z M66.4,18.24 L59.48,18.24 L62.92,7.96 L66.4,18.24 Z M87,28.48 L87,17.88 L88.64,17.88 L94.48,28.48 L102.2,28.48 L95.72,17.36 C97.7733333,16.7466667 99.3266667,15.7066667 100.38,14.24 C101.433333,12.7733333 101.96,11.1066667 101.96,9.24 C101.96,7.5866667 101.573333,6.0866667 100.8,4.74 C100.026667,3.3933333 98.86,2.3333333 97.3,1.56 C95.74,0.7866667 93.8533333,0.4 91.64,0.4 L91.64,0.4 L80.16,0.4 L80.16,28.48 L87,28.48 Z M91.24,13.04 L87,13.04 L87,6.08 L91.24,6.08 C92.4933333,6.08 93.4333333,6.3866667 94.06,7 C94.6866667,7.6133333 95,8.4533333 95,9.52 C95,10.64 94.6866667,11.5066667 94.06,12.12 C93.4333333,12.7333333 92.4933333,13.04 91.24,13.04 L91.24,13.04 Z M128,28.76 C130.64,28.76 133.053333,28.1466667 135.24,26.92 C137.426667,25.6933333 139.16,23.98 140.44,21.78 C141.72,19.58 142.36,17.1066667 142.36,14.36 C142.36,11.6133333 141.726667,9.1466667 140.46,6.96 C139.193333,4.7733333 137.46,3.0666667 135.26,1.84 C133.06,0.6133333 130.64,3.55271368e-15 128,3.55271368e-15 C125.36,3.55271368e-15 122.94,0.6133333 120.74,1.84 C118.54,3.0666667 116.793333,4.7733333 115.5,6.96 C114.206667,9.1466667 113.56,11.6133333 113.56,14.36 C113.56,17.1066667 114.206667,19.58 115.5,21.78 C116.793333,23.98 118.54,25.6933333 120.74,26.92 C122.94,28.1466667 125.36,28.76 128,28.76 Z M128,22.52 C125.733333,22.52 123.926667,21.78 122.58,20.3 C121.233333,18.82 120.56,16.84 120.56,14.36 C120.56,11.8533333 121.233333,9.8666667 122.58,8.4 C123.926667,6.9333333 125.733333,6.2 128,6.2 C130.24,6.2 132.033333,6.94 133.38,8.42 C134.726667,9.9 135.4,11.88 135.4,14.36 C135.4,16.8133333 134.726667,18.7866667 133.38,20.28 C132.033333,21.7733333 130.24,22.52 128,22.52 Z M153,28.48 L153,17.12 L161.56,17.12 L161.56,11.8 L153,11.8 L153,5.88 L164.44,5.88 L164.44,0.4 L146.16,0.4 L146.16,28.48 L153,28.48 Z M189.48,28.68 C192.813333,28.68 195.666667,27.8066667 198.04,26.06 C200.413333,24.3133333 202,21.92 202.8,18.88 L202.8,18.88 L195.28,18.88 C194.72,20.0533333 193.926667,20.9466667 192.9,21.56 C191.873333,22.1733333 190.706667,22.48 189.4,22.48 C187.293333,22.48 185.586667,21.7466667 184.28,20.28 C182.973333,18.8133333 182.32,16.8533333 182.32,14.4 C182.32,11.9466667 182.973333,9.9866667 184.28,8.52 C185.586667,7.0533333 187.293333,6.32 189.4,6.32 C190.706667,6.32 191.873333,6.6266667 192.9,7.24 C193.926667,7.8533333 194.72,8.7466667 195.28,9.92 L195.28,9.92 L202.8,9.92 C202,6.88 200.413333,4.48 198.04,2.72 C195.666667,0.96 192.813333,0.08 189.48,0.08 C186.76,0.08 184.326667,0.6866667 182.18,1.9 C180.033333,3.1133333 178.36,4.8066667 177.16,6.98 C175.96,9.1533333 175.36,11.6266667 175.36,14.4 C175.36,17.1733333 175.96,19.64 177.16,21.8 C178.36,23.96 180.033333,25.6466667 182.18,26.86 C184.326667,28.0733333 186.76,28.68 189.48,28.68 Z M222.8,28.48 L222.8,23.2 L213.84,23.2 L213.84,0.4 L207,0.4 L207,28.48 L222.8,28.48 Z M239.36,28.76 C242,28.76 244.413333,28.1466667 246.6,26.92 C248.786667,25.6933333 250.52,23.98 251.8,21.78 C253.08,19.58 253.72,17.1066667 253.72,14.36 C253.72,11.6133333 253.086667,9.1466667 251.82,6.96 C250.553333,4.7733333 248.82,3.0666667 246.62,1.84 C244.42,0.6133333 242,3.55271368e-15 239.36,3.55271368e-15 C236.72,3.55271368e-15 234.3,0.6133333 232.1,1.84 C229.9,3.0666667 228.153333,4.7733333 226.86,6.96 C225.566667,9.1466667 224.92,11.6133333 224.92,14.36 C224.92,17.1066667 225.566667,19.58 226.86,21.78 C228.153333,23.98 229.9,25.6933333 232.1,26.92 C234.3,28.1466667 236.72,28.76 239.36,28.76 Z M239.36,22.52 C237.093333,22.52 235.286667,21.78 233.94,20.3 C232.593333,18.82 231.92,16.84 231.92,14.36 C231.92,11.8533333 232.593333,9.8666667 233.94,8.4 C235.286667,6.9333333 237.093333,6.2 239.36,6.2 C241.6,6.2 243.393333,6.94 244.74,8.42 C246.086667,9.9 246.76,11.88 246.76,14.36 C246.76,16.8133333 246.086667,18.7866667 244.74,20.28 C243.393333,21.7733333 241.6,22.52 239.36,22.52 Z M269,28.76 C271.213333,28.76 273.22,28.32 275.02,27.44 C276.82,26.56 278.253333,25.2533333 279.32,23.52 C280.386667,21.7866667 280.92,19.6666667 280.92,17.16 L280.92,17.16 L280.92,0.4 L274.08,0.4 L274.08,17.2 C274.08,18.88 273.653333,20.1733333 272.8,21.08 C271.946667,21.9866667 270.72,22.44 269.12,22.44 C267.52,22.44 266.306667,21.9866667 265.48,21.08 C264.653333,20.1733333 264.24,18.88 264.24,17.2 L264.24,17.2 L264.24,0.4 L257.4,0.4 L257.4,17.16 C257.4,19.6666667 257.906667,21.7933333 258.92,23.54 C259.933333,25.2866667 261.313333,26.5933333 263.06,27.46 C264.806667,28.3266667 266.786667,28.76 269,28.76 Z M296.24,28.48 C299.173333,28.48 301.753333,27.8933333 303.98,26.72 C306.206667,25.5466667 307.926667,23.8933333 309.14,21.76 C310.353333,19.6266667 310.96,17.1866667 310.96,14.44 C310.96,11.6666667 310.353333,9.22 309.14,7.1 C307.926667,4.98 306.213333,3.3333333 304,2.16 C301.786667,0.9866667 299.2,0.4 296.24,0.4 L296.24,0.4 L285.72,0.4 L285.72,28.48 L296.24,28.48 Z M295.8,22.56 L292.56,22.56 L292.56,6.24 L295.8,6.24 C298.386667,6.24 300.4,6.96 301.84,8.4 C303.28,9.84 304,11.8533333 304,14.44 C304,17.0266667 303.28,19.0266667 301.84,20.44 C300.4,21.8533333 298.386667,22.56 295.8,22.56 L295.8,22.56 Z" id="path-1"></path>
                    </g>
                </g>
            </g>
            <g id="PingCAP2015-2022APRIL8TH" transform="translate(1.770000, 97.390000)" fill-rule="nonzero">
                <g id="path-2-link" fill="#000000">
                    <path d="M0.91,7.61 L0.91,4.7 L2.25,4.7 C3.06333333,4.7 3.66833333,4.50833333 4.065,4.125 C4.46166667,3.74166667 4.66,3.26 4.66,2.68 C4.66,2.08 4.455,1.59 4.045,1.21 C3.635,0.83 3.03666667,0.64 2.25,0.64 L2.25,0.64 L3.99680289e-15,0.64 L3.99680289e-15,7.61 L0.91,7.61 Z M2.25,3.95 L0.91,3.95 L0.91,1.39 L2.25,1.39 C3.23666667,1.39 3.73,1.82 3.73,2.68 C3.73,3.08666667 3.61,3.4 3.37,3.62 C3.13,3.84 2.75666667,3.95 2.25,3.95 L2.25,3.95 Z M6.26,1.24 C6.42666667,1.24 6.56833333,1.18 6.685,1.06 C6.80166667,0.94 6.86,0.79333333 6.86,0.62 C6.86,0.44666667 6.80166667,0.3 6.685,0.18 C6.56833333,0.06 6.42666667,-4.4408921e-16 6.26,-4.4408921e-16 C6.08666667,-4.4408921e-16 5.94,0.06 5.82,0.18 C5.7,0.3 5.64,0.44666667 5.64,0.62 C5.64,0.79333333 5.7,0.94 5.82,1.06 C5.94,1.18 6.08666667,1.24 6.26,1.24 Z M6.7,7.61 L6.7,2.13 L5.79,2.13 L5.79,7.61 L6.7,7.61 Z M9.16,7.61 L9.16,4.58 C9.16,4.00666667 9.3016667,3.57 9.585,3.27 C9.8683333,2.97 10.25,2.82 10.73,2.82 C11.2033333,2.82 11.5766667,2.965 11.85,3.255 C12.1233333,3.545 12.26,3.96333333 12.26,4.51 L12.26,4.51 L12.26,7.61 L13.16,7.61 L13.16,4.38 C13.16,3.62 12.9533333,3.03833333 12.54,2.635 C12.1266667,2.23166667 11.5866667,2.03 10.92,2.03 C10.5466667,2.03 10.205,2.10666667 9.895,2.26 C9.585,2.41333333 9.34,2.63 9.16,2.91 L9.16,2.91 L9.16,2.13 L8.25,2.13 L8.25,7.61 L9.16,7.61 Z M17.25,10.31 C17.7766667,10.31 18.2383333,10.2 18.635,9.98 C19.0316667,9.76 19.3366667,9.455 19.55,9.065 C19.7633333,8.675 19.87,8.23 19.87,7.73 L19.87,7.73 L19.87,2.13 L18.95,2.13 L18.95,3.13 C18.7766667,2.81666667 18.5116667,2.55666667 18.155,2.35 C17.7983333,2.14333333 17.3833333,2.04 16.91,2.04 C16.4233333,2.04 15.9816667,2.15666667 15.585,2.39 C15.1883333,2.62333333 14.8766667,2.95166667 14.65,3.375 C14.4233333,3.79833333 14.31,4.29 14.31,4.85 C14.31,5.40333333 14.4233333,5.89666667 14.65,6.33 C14.8766667,6.7633333 15.1883333,7.1 15.585,7.34 C15.9816667,7.58 16.4233333,7.7 16.91,7.7 C17.3833333,7.7 17.7966667,7.5933333 18.15,7.38 C18.5033333,7.1666667 18.77,6.9 18.95,6.58 L18.95,6.58 L18.95,7.73 C18.95,8.2966667 18.7916667,8.7366667 18.475,9.05 C18.1583333,9.3633333 17.75,9.52 17.25,9.52 C16.81,9.52 16.4333333,9.4183333 16.12,9.215 C15.8066667,9.0116667 15.6,8.7433333 15.5,8.41 L15.5,8.41 L14.6,8.41 C14.6866667,8.9966667 14.97,9.46 15.45,9.8 C15.93,10.14 16.53,10.31 17.25,10.31 Z M17.09,6.9 C16.75,6.9 16.44,6.8183333 16.16,6.655 C15.88,6.49166667 15.6566667,6.255 15.49,5.945 C15.3233333,5.635 15.24,5.27 15.24,4.85 C15.24,4.43666667 15.3233333,4.07666667 15.49,3.77 C15.6566667,3.46333333 15.88,3.23 16.16,3.07 C16.44,2.91 16.75,2.83 17.09,2.83 C17.43,2.83 17.7416667,2.91166667 18.025,3.075 C18.3083333,3.23833333 18.5333333,3.47333333 18.7,3.78 C18.8666667,4.08666667 18.95,4.44666667 18.95,4.86 C18.95,5.27333333 18.8666667,5.635 18.7,5.945 C18.5333333,6.255 18.3083333,6.49166667 18.025,6.655 C17.7416667,6.8183333 17.43,6.9 17.09,6.9 Z M24.55,7.67 C25.31,7.67 25.9733333,7.4883333 26.54,7.125 C27.1066667,6.7616667 27.52,6.24666667 27.78,5.58 L27.78,5.58 L26.69,5.58 C26.4966667,6 26.2183333,6.32166667 25.855,6.545 C25.4916667,6.7683333 25.0566667,6.88 24.55,6.88 C24.0633333,6.88 23.6266667,6.7666667 23.24,6.54 C22.8533333,6.31333333 22.55,5.99166667 22.33,5.575 C22.11,5.15833333 22,4.67333333 22,4.12 C22,3.56 22.11,3.07166667 22.33,2.655 C22.55,2.23833333 22.8533333,1.91666667 23.24,1.69 C23.6266667,1.46333333 24.0633333,1.35 24.55,1.35 C25.0566667,1.35 25.4916667,1.46333333 25.855,1.69 C26.2183333,1.91666667 26.4966667,2.24 26.69,2.66 L26.69,2.66 L27.78,2.66 C27.52,1.98666667 27.1066667,1.46666667 26.54,1.1 C25.9733333,0.73333333 25.31,0.55 24.55,0.55 C23.9033333,0.55 23.315,0.70333333 22.785,1.01 C22.255,1.31666667 21.8366667,1.74166667 21.53,2.285 C21.2233333,2.82833333 21.07,3.44 21.07,4.12 C21.07,4.8 21.2233333,5.41 21.53,5.95 C21.8366667,6.49 22.255,6.9116667 22.785,7.215 C23.315,7.5183333 23.9033333,7.67 24.55,7.67 Z M29.65,7.61 L30.21,6.06 L33.25,6.06 L33.81,7.61 L34.77,7.61 L32.26,0.68 L31.21,0.68 L28.69,7.61 L29.65,7.61 Z M32.99,5.32 L30.47,5.32 L31.73,1.8 L32.99,5.32 Z M36.78,7.61 L36.78,4.7 L38.12,4.7 C38.9333333,4.7 39.5383333,4.50833333 39.935,4.125 C40.3316667,3.74166667 40.53,3.26 40.53,2.68 C40.53,2.08 40.325,1.59 39.915,1.21 C39.505,0.83 38.9066667,0.64 38.12,0.64 L38.12,0.64 L35.87,0.64 L35.87,7.61 L36.78,7.61 Z M38.12,3.95 L36.78,3.95 L36.78,1.39 L38.12,1.39 C39.1066667,1.39 39.6,1.82 39.6,2.68 C39.6,3.08666667 39.48,3.4 39.24,3.62 C39,3.84 38.6266667,3.95 38.12,3.95 L38.12,3.95 Z M48.88,7.53 L48.88,6.77 L45.44,6.77 C46.0933333,6.24333333 46.63,5.78166667 47.05,5.385 C47.47,4.98833333 47.845,4.52833333 48.175,4.005 C48.505,3.48166667 48.67,2.94333333 48.67,2.39 C48.67,1.72333333 48.4683333,1.2 48.065,0.82 C47.6616667,0.44 47.1166667,0.25 46.43,0.25 C45.7566667,0.25 45.2066667,0.45333333 44.78,0.86 C44.3533333,1.26666667 44.1266667,1.84333333 44.1,2.59 L44.1,2.59 L44.98,2.59 C45,2.11666667 45.135,1.73833333 45.385,1.455 C45.635,1.17166667 45.9866667,1.03 46.44,1.03 C46.9066667,1.03 47.245,1.155 47.455,1.405 C47.665,1.655 47.77,1.99666667 47.77,2.43 C47.77,2.89 47.605,3.35833333 47.275,3.835 C46.945,4.31166667 46.54,4.76833333 46.06,5.205 C45.58,5.64166667 44.9166667,6.2 44.07,6.88 L44.07,6.88 L44.07,7.53 L48.88,7.53 Z M52.45,7.61 C53.3766667,7.61 54.0266667,7.2866667 54.4,6.64 C54.7733333,5.99333333 54.96,5.08666667 54.96,3.92 C54.96,2.77333333 54.7733333,1.87833333 54.4,1.235 C54.0266667,0.59166667 53.3766667,0.27 52.45,0.27 C51.5166667,0.27 50.8633333,0.59166667 50.49,1.235 C50.1166667,1.87833333 49.93,2.77333333 49.93,3.92 C49.93,5.08666667 50.1166667,5.99333333 50.49,6.64 C50.8633333,7.2866667 51.5166667,7.61 52.45,7.61 Z M52.45,6.78 C51.9966667,6.78 51.6516667,6.6566667 51.415,6.41 C51.1783333,6.16333333 51.0216667,5.83666667 50.945,5.43 C50.8683333,5.02333333 50.83,4.52 50.83,3.92 C50.83,3.34 50.8683333,2.84833333 50.945,2.445 C51.0216667,2.04166667 51.1783333,1.71666667 51.415,1.47 C51.6516667,1.22333333 51.9966667,1.1 52.45,1.1 C52.8966667,1.1 53.2383333,1.22333333 53.475,1.47 C53.7116667,1.71666667 53.8683333,2.04166667 53.945,2.445 C54.0216667,2.84833333 54.06,3.34 54.06,3.92 C54.06,4.52 54.0216667,5.02333333 53.945,5.43 C53.8683333,5.83666667 53.7116667,6.16333333 53.475,6.41 C53.2383333,6.6566667 52.8966667,6.78 52.45,6.78 Z M57.85,7.61 L57.85,0.38 L55.97,0.38 L55.97,1.21 L56.93,1.21 L56.93,7.61 L57.85,7.61 Z M62.01,7.63 C62.5566667,7.63 63.015,7.52 63.385,7.3 C63.755,7.08 64.03,6.78 64.21,6.4 C64.39,6.02 64.48,5.59 64.48,5.11 C64.48,4.70333333 64.405,4.31833333 64.255,3.955 C64.105,3.59166667 63.8566667,3.295 63.51,3.065 C63.1633333,2.835 62.7133333,2.72 62.16,2.72 C61.8133333,2.72 61.49,2.78833333 61.19,2.925 C60.89,3.06166667 60.6633333,3.23666667 60.51,3.45 L60.51,3.45 L60.51,1.17 L64.02,1.17 L64.02,0.37 L59.67,0.37 L59.67,4.45 L60.53,4.45 C60.65,4.15666667 60.8416667,3.925 61.105,3.755 C61.3683333,3.585 61.6766667,3.5 62.03,3.5 C62.55,3.5 62.9433333,3.64166667 63.21,3.925 C63.4766667,4.20833333 63.61,4.61 63.61,5.13 C63.61,5.65 63.4766667,6.06833333 63.21,6.385 C62.9433333,6.7016667 62.5466667,6.86 62.02,6.86 C61.5933333,6.86 61.24,6.7533333 60.96,6.54 C60.68,6.32666667 60.4966667,6.03 60.41,5.65 L60.41,5.65 L59.52,5.65 C59.6133333,6.25 59.8766667,6.73 60.31,7.09 C60.7433333,7.45 61.31,7.63 62.01,7.63 Z M72.31,4.33 L72.31,3.56 L68.32,3.56 L68.32,4.33 L72.31,4.33 Z M81.24,7.53 L81.24,6.77 L77.8,6.77 C78.4533333,6.24333333 78.99,5.78166667 79.41,5.385 C79.83,4.98833333 80.205,4.52833333 80.535,4.005 C80.865,3.48166667 81.03,2.94333333 81.03,2.39 C81.03,1.72333333 80.8283333,1.2 80.425,0.82 C80.0216667,0.44 79.4766667,0.25 78.79,0.25 C78.1166667,0.25 77.5666667,0.45333333 77.14,0.86 C76.7133333,1.26666667 76.4866667,1.84333333 76.46,2.59 L76.46,2.59 L77.34,2.59 C77.36,2.11666667 77.495,1.73833333 77.745,1.455 C77.995,1.17166667 78.3466667,1.03 78.8,1.03 C79.2666667,1.03 79.605,1.155 79.815,1.405 C80.025,1.655 80.13,1.99666667 80.13,2.43 C80.13,2.89 79.965,3.35833333 79.635,3.835 C79.305,4.31166667 78.9,4.76833333 78.42,5.205 C77.94,5.64166667 77.2766667,6.2 76.43,6.88 L76.43,6.88 L76.43,7.53 L81.24,7.53 Z M84.81,7.61 C85.7366667,7.61 86.3866667,7.2866667 86.76,6.64 C87.1333333,5.99333333 87.32,5.08666667 87.32,3.92 C87.32,2.77333333 87.1333333,1.87833333 86.76,1.235 C86.3866667,0.59166667 85.7366667,0.27 84.81,0.27 C83.8766667,0.27 83.2233333,0.59166667 82.85,1.235 C82.4766667,1.87833333 82.29,2.77333333 82.29,3.92 C82.29,5.08666667 82.4766667,5.99333333 82.85,6.64 C83.2233333,7.2866667 83.8766667,7.61 84.81,7.61 Z M84.81,6.78 C84.3566667,6.78 84.0116667,6.6566667 83.775,6.41 C83.5383333,6.16333333 83.3816667,5.83666667 83.305,5.43 C83.2283333,5.02333333 83.19,4.52 83.19,3.92 C83.19,3.34 83.2283333,2.84833333 83.305,2.445 C83.3816667,2.04166667 83.5383333,1.71666667 83.775,1.47 C84.0116667,1.22333333 84.3566667,1.1 84.81,1.1 C85.2566667,1.1 85.5983333,1.22333333 85.835,1.47 C86.0716667,1.71666667 86.2283333,2.04166667 86.305,2.445 C86.3816667,2.84833333 86.42,3.34 86.42,3.92 C86.42,4.52 86.3816667,5.02333333 86.305,5.43 C86.2283333,5.83666667 86.0716667,6.16333333 85.835,6.41 C85.5983333,6.6566667 85.2566667,6.78 84.81,6.78 Z M93.27,7.53 L93.27,6.77 L89.83,6.77 C90.4833333,6.24333333 91.02,5.78166667 91.44,5.385 C91.86,4.98833333 92.235,4.52833333 92.565,4.005 C92.895,3.48166667 93.06,2.94333333 93.06,2.39 C93.06,1.72333333 92.8583333,1.2 92.455,0.82 C92.0516667,0.44 91.5066667,0.25 90.82,0.25 C90.1466667,0.25 89.5966667,0.45333333 89.17,0.86 C88.7433333,1.26666667 88.5166667,1.84333333 88.49,2.59 L88.49,2.59 L89.37,2.59 C89.39,2.11666667 89.525,1.73833333 89.775,1.455 C90.025,1.17166667 90.3766667,1.03 90.83,1.03 C91.2966667,1.03 91.635,1.155 91.845,1.405 C92.055,1.655 92.16,1.99666667 92.16,2.43 C92.16,2.89 91.995,3.35833333 91.665,3.835 C91.335,4.31166667 90.93,4.76833333 90.45,5.205 C89.97,5.64166667 89.3066667,6.2 88.46,6.88 L88.46,6.88 L88.46,7.53 L93.27,7.53 Z M99.02,7.53 L99.02,6.77 L95.58,6.77 C96.2333333,6.24333333 96.77,5.78166667 97.19,5.385 C97.61,4.98833333 97.985,4.52833333 98.315,4.005 C98.645,3.48166667 98.81,2.94333333 98.81,2.39 C98.81,1.72333333 98.6083333,1.2 98.205,0.82 C97.8016667,0.44 97.2566667,0.25 96.57,0.25 C95.8966667,0.25 95.3466667,0.45333333 94.92,0.86 C94.4933333,1.26666667 94.2666667,1.84333333 94.24,2.59 L94.24,2.59 L95.12,2.59 C95.14,2.11666667 95.275,1.73833333 95.525,1.455 C95.775,1.17166667 96.1266667,1.03 96.58,1.03 C97.0466667,1.03 97.385,1.155 97.595,1.405 C97.805,1.655 97.91,1.99666667 97.91,2.43 C97.91,2.89 97.745,3.35833333 97.415,3.835 C97.085,4.31166667 96.68,4.76833333 96.2,5.205 C95.72,5.64166667 95.0566667,6.2 94.21,6.88 L94.21,6.88 L94.21,7.53 L99.02,7.53 Z M103.41,7.61 L103.97,6.06 L107.01,6.06 L107.57,7.61 L108.53,7.61 L106.02,0.68 L104.97,0.68 L102.45,7.61 L103.41,7.61 Z M106.75,5.32 L104.23,5.32 L105.49,1.8 L106.75,5.32 Z M110.54,7.61 L110.54,4.7 L111.88,4.7 C112.693333,4.7 113.298333,4.50833333 113.695,4.125 C114.091667,3.74166667 114.29,3.26 114.29,2.68 C114.29,2.08 114.085,1.59 113.675,1.21 C113.265,0.83 112.666667,0.64 111.88,0.64 L111.88,0.64 L109.63,0.64 L109.63,7.61 L110.54,7.61 Z M111.88,3.95 L110.54,3.95 L110.54,1.39 L111.88,1.39 C112.866667,1.39 113.36,1.82 113.36,2.68 C113.36,3.08666667 113.24,3.4 113,3.62 C112.76,3.84 112.386667,3.95 111.88,3.95 L111.88,3.95 Z M116.33,7.61 L116.33,4.76 L117.43,4.76 L119.09,7.61 L120.18,7.61 L118.43,4.69 C118.983333,4.57 119.398333,4.32666667 119.675,3.96 C119.951667,3.59333333 120.09,3.17 120.09,2.69 C120.09,2.29666667 120,1.94666667 119.82,1.64 C119.64,1.33333333 119.368333,1.09 119.005,0.91 C118.641667,0.73 118.196667,0.64 117.67,0.64 L117.67,0.64 L115.42,0.64 L115.42,7.61 L116.33,7.61 Z M117.67,4.03 L116.33,4.03 L116.33,1.39 L117.67,1.39 C118.17,1.39 118.541667,1.50333333 118.785,1.73 C119.028333,1.95666667 119.15,2.27666667 119.15,2.69 C119.15,3.09666667 119.026667,3.42166667 118.78,3.665 C118.533333,3.90833333 118.163333,4.03 117.67,4.03 L117.67,4.03 Z M122.41,7.61 L122.41,0.64 L121.5,0.64 L121.5,7.61 L122.41,7.61 Z M127.31,7.61 L127.31,6.87 L124.87,6.87 L124.87,0.64 L123.96,0.64 L123.96,7.61 L127.31,7.61 Z M133.33,7.81 C133.836667,7.81 134.285,7.7216667 134.675,7.545 C135.065,7.3683333 135.366667,7.1183333 135.58,6.795 C135.793333,6.47166667 135.9,6.09333333 135.9,5.66 C135.9,5.21333333 135.778333,4.83166667 135.535,4.515 C135.291667,4.19833333 134.963333,3.97666667 134.55,3.85 C134.91,3.71 135.193333,3.495 135.4,3.205 C135.606667,2.915 135.71,2.57666667 135.71,2.19 C135.71,1.83 135.618333,1.505 135.435,1.215 C135.251667,0.925 134.981667,0.695 134.625,0.525 C134.268333,0.355 133.836667,0.27 133.33,0.27 C132.823333,0.27 132.391667,0.355 132.035,0.525 C131.678333,0.695 131.41,0.925 131.23,1.215 C131.05,1.505 130.96,1.83 130.96,2.19 C130.96,2.59 131.06,2.93 131.26,3.21 C131.46,3.49 131.746667,3.70333333 132.12,3.85 C131.706667,3.97 131.38,4.19 131.14,4.51 C130.9,4.83 130.78,5.21333333 130.78,5.66 C130.78,6.09333333 130.886667,6.47166667 131.1,6.795 C131.313333,7.1183333 131.611667,7.3683333 131.995,7.545 C132.378333,7.7216667 132.823333,7.81 133.33,7.81 Z M133.33,3.55 C132.89,3.55 132.531667,3.43666667 132.255,3.21 C131.978333,2.98333333 131.84,2.68333333 131.84,2.31 C131.84,1.89666667 131.973333,1.58 132.24,1.36 C132.506667,1.14 132.87,1.03 133.33,1.03 C133.796667,1.03 134.163333,1.14 134.43,1.36 C134.696667,1.58 134.83,1.89333333 134.83,2.3 C134.83,2.67333333 134.691667,2.975 134.415,3.205 C134.138333,3.435 133.776667,3.55 133.33,3.55 Z M133.33,7.05 C132.816667,7.05 132.408333,6.92 132.105,6.66 C131.801667,6.4 131.65,6.05666667 131.65,5.63 C131.65,5.17 131.806667,4.825 132.12,4.595 C132.433333,4.365 132.836667,4.25 133.33,4.25 C133.83,4.25 134.233333,4.36833333 134.54,4.605 C134.846667,4.84166667 135,5.18333333 135,5.63 C135,6.05666667 134.85,6.4 134.55,6.66 C134.25,6.92 133.843333,7.05 133.33,7.05 Z M139.65,7.61 L139.65,1.38 L141.55,1.38 L141.55,0.64 L136.83,0.64 L136.83,1.38 L138.74,1.38 L138.74,7.61 L139.65,7.61 Z M143.58,7.61 L143.58,4.45 L147.13,4.45 L147.13,7.61 L148.04,7.61 L148.04,0.64 L147.13,0.64 L147.13,3.7 L143.58,3.7 L143.58,0.64 L142.67,0.64 L142.67,7.61 L143.58,7.61 Z" id="path-2"></path>
                </g>
                <g id="path-2-link" fill="#FFFFFF">
                    <path d="M0.91,7.61 L0.91,4.7 L2.25,4.7 C3.06333333,4.7 3.66833333,4.50833333 4.065,4.125 C4.46166667,3.74166667 4.66,3.26 4.66,2.68 C4.66,2.08 4.455,1.59 4.045,1.21 C3.635,0.83 3.03666667,0.64 2.25,0.64 L2.25,0.64 L3.99680289e-15,0.64 L3.99680289e-15,7.61 L0.91,7.61 Z M2.25,3.95 L0.91,3.95 L0.91,1.39 L2.25,1.39 C3.23666667,1.39 3.73,1.82 3.73,2.68 C3.73,3.08666667 3.61,3.4 3.37,3.62 C3.13,3.84 2.75666667,3.95 2.25,3.95 L2.25,3.95 Z M6.26,1.24 C6.42666667,1.24 6.56833333,1.18 6.685,1.06 C6.80166667,0.94 6.86,0.79333333 6.86,0.62 C6.86,0.44666667 6.80166667,0.3 6.685,0.18 C6.56833333,0.06 6.42666667,-4.4408921e-16 6.26,-4.4408921e-16 C6.08666667,-4.4408921e-16 5.94,0.06 5.82,0.18 C5.7,0.3 5.64,0.44666667 5.64,0.62 C5.64,0.79333333 5.7,0.94 5.82,1.06 C5.94,1.18 6.08666667,1.24 6.26,1.24 Z M6.7,7.61 L6.7,2.13 L5.79,2.13 L5.79,7.61 L6.7,7.61 Z M9.16,7.61 L9.16,4.58 C9.16,4.00666667 9.3016667,3.57 9.585,3.27 C9.8683333,2.97 10.25,2.82 10.73,2.82 C11.2033333,2.82 11.5766667,2.965 11.85,3.255 C12.1233333,3.545 12.26,3.96333333 12.26,4.51 L12.26,4.51 L12.26,7.61 L13.16,7.61 L13.16,4.38 C13.16,3.62 12.9533333,3.03833333 12.54,2.635 C12.1266667,2.23166667 11.5866667,2.03 10.92,2.03 C10.5466667,2.03 10.205,2.10666667 9.895,2.26 C9.585,2.41333333 9.34,2.63 9.16,2.91 L9.16,2.91 L9.16,2.13 L8.25,2.13 L8.25,7.61 L9.16,7.61 Z M17.25,10.31 C17.7766667,10.31 18.2383333,10.2 18.635,9.98 C19.0316667,9.76 19.3366667,9.455 19.55,9.065 C19.7633333,8.675 19.87,8.23 19.87,7.73 L19.87,7.73 L19.87,2.13 L18.95,2.13 L18.95,3.13 C18.7766667,2.81666667 18.5116667,2.55666667 18.155,2.35 C17.7983333,2.14333333 17.3833333,2.04 16.91,2.04 C16.4233333,2.04 15.9816667,2.15666667 15.585,2.39 C15.1883333,2.62333333 14.8766667,2.95166667 14.65,3.375 C14.4233333,3.79833333 14.31,4.29 14.31,4.85 C14.31,5.40333333 14.4233333,5.89666667 14.65,6.33 C14.8766667,6.7633333 15.1883333,7.1 15.585,7.34 C15.9816667,7.58 16.4233333,7.7 16.91,7.7 C17.3833333,7.7 17.7966667,7.5933333 18.15,7.38 C18.5033333,7.1666667 18.77,6.9 18.95,6.58 L18.95,6.58 L18.95,7.73 C18.95,8.2966667 18.7916667,8.7366667 18.475,9.05 C18.1583333,9.3633333 17.75,9.52 17.25,9.52 C16.81,9.52 16.4333333,9.4183333 16.12,9.215 C15.8066667,9.0116667 15.6,8.7433333 15.5,8.41 L15.5,8.41 L14.6,8.41 C14.6866667,8.9966667 14.97,9.46 15.45,9.8 C15.93,10.14 16.53,10.31 17.25,10.31 Z M17.09,6.9 C16.75,6.9 16.44,6.8183333 16.16,6.655 C15.88,6.49166667 15.6566667,6.255 15.49,5.945 C15.3233333,5.635 15.24,5.27 15.24,4.85 C15.24,4.43666667 15.3233333,4.07666667 15.49,3.77 C15.6566667,3.46333333 15.88,3.23 16.16,3.07 C16.44,2.91 16.75,2.83 17.09,2.83 C17.43,2.83 17.7416667,2.91166667 18.025,3.075 C18.3083333,3.23833333 18.5333333,3.47333333 18.7,3.78 C18.8666667,4.08666667 18.95,4.44666667 18.95,4.86 C18.95,5.27333333 18.8666667,5.635 18.7,5.945 C18.5333333,6.255 18.3083333,6.49166667 18.025,6.655 C17.7416667,6.8183333 17.43,6.9 17.09,6.9 Z M24.55,7.67 C25.31,7.67 25.9733333,7.4883333 26.54,7.125 C27.1066667,6.7616667 27.52,6.24666667 27.78,5.58 L27.78,5.58 L26.69,5.58 C26.4966667,6 26.2183333,6.32166667 25.855,6.545 C25.4916667,6.7683333 25.0566667,6.88 24.55,6.88 C24.0633333,6.88 23.6266667,6.7666667 23.24,6.54 C22.8533333,6.31333333 22.55,5.99166667 22.33,5.575 C22.11,5.15833333 22,4.67333333 22,4.12 C22,3.56 22.11,3.07166667 22.33,2.655 C22.55,2.23833333 22.8533333,1.91666667 23.24,1.69 C23.6266667,1.46333333 24.0633333,1.35 24.55,1.35 C25.0566667,1.35 25.4916667,1.46333333 25.855,1.69 C26.2183333,1.91666667 26.4966667,2.24 26.69,2.66 L26.69,2.66 L27.78,2.66 C27.52,1.98666667 27.1066667,1.46666667 26.54,1.1 C25.9733333,0.73333333 25.31,0.55 24.55,0.55 C23.9033333,0.55 23.315,0.70333333 22.785,1.01 C22.255,1.31666667 21.8366667,1.74166667 21.53,2.285 C21.2233333,2.82833333 21.07,3.44 21.07,4.12 C21.07,4.8 21.2233333,5.41 21.53,5.95 C21.8366667,6.49 22.255,6.9116667 22.785,7.215 C23.315,7.5183333 23.9033333,7.67 24.55,7.67 Z M29.65,7.61 L30.21,6.06 L33.25,6.06 L33.81,7.61 L34.77,7.61 L32.26,0.68 L31.21,0.68 L28.69,7.61 L29.65,7.61 Z M32.99,5.32 L30.47,5.32 L31.73,1.8 L32.99,5.32 Z M36.78,7.61 L36.78,4.7 L38.12,4.7 C38.9333333,4.7 39.5383333,4.50833333 39.935,4.125 C40.3316667,3.74166667 40.53,3.26 40.53,2.68 C40.53,2.08 40.325,1.59 39.915,1.21 C39.505,0.83 38.9066667,0.64 38.12,0.64 L38.12,0.64 L35.87,0.64 L35.87,7.61 L36.78,7.61 Z M38.12,3.95 L36.78,3.95 L36.78,1.39 L38.12,1.39 C39.1066667,1.39 39.6,1.82 39.6,2.68 C39.6,3.08666667 39.48,3.4 39.24,3.62 C39,3.84 38.6266667,3.95 38.12,3.95 L38.12,3.95 Z M48.88,7.53 L48.88,6.77 L45.44,6.77 C46.0933333,6.24333333 46.63,5.78166667 47.05,5.385 C47.47,4.98833333 47.845,4.52833333 48.175,4.005 C48.505,3.48166667 48.67,2.94333333 48.67,2.39 C48.67,1.72333333 48.4683333,1.2 48.065,0.82 C47.6616667,0.44 47.1166667,0.25 46.43,0.25 C45.7566667,0.25 45.2066667,0.45333333 44.78,0.86 C44.3533333,1.26666667 44.1266667,1.84333333 44.1,2.59 L44.1,2.59 L44.98,2.59 C45,2.11666667 45.135,1.73833333 45.385,1.455 C45.635,1.17166667 45.9866667,1.03 46.44,1.03 C46.9066667,1.03 47.245,1.155 47.455,1.405 C47.665,1.655 47.77,1.99666667 47.77,2.43 C47.77,2.89 47.605,3.35833333 47.275,3.835 C46.945,4.31166667 46.54,4.76833333 46.06,5.205 C45.58,5.64166667 44.9166667,6.2 44.07,6.88 L44.07,6.88 L44.07,7.53 L48.88,7.53 Z M52.45,7.61 C53.3766667,7.61 54.0266667,7.2866667 54.4,6.64 C54.7733333,5.99333333 54.96,5.08666667 54.96,3.92 C54.96,2.77333333 54.7733333,1.87833333 54.4,1.235 C54.0266667,0.59166667 53.3766667,0.27 52.45,0.27 C51.5166667,0.27 50.8633333,0.59166667 50.49,1.235 C50.1166667,1.87833333 49.93,2.77333333 49.93,3.92 C49.93,5.08666667 50.1166667,5.99333333 50.49,6.64 C50.8633333,7.2866667 51.5166667,7.61 52.45,7.61 Z M52.45,6.78 C51.9966667,6.78 51.6516667,6.6566667 51.415,6.41 C51.1783333,6.16333333 51.0216667,5.83666667 50.945,5.43 C50.8683333,5.02333333 50.83,4.52 50.83,3.92 C50.83,3.34 50.8683333,2.84833333 50.945,2.445 C51.0216667,2.04166667 51.1783333,1.71666667 51.415,1.47 C51.6516667,1.22333333 51.9966667,1.1 52.45,1.1 C52.8966667,1.1 53.2383333,1.22333333 53.475,1.47 C53.7116667,1.71666667 53.8683333,2.04166667 53.945,2.445 C54.0216667,2.84833333 54.06,3.34 54.06,3.92 C54.06,4.52 54.0216667,5.02333333 53.945,5.43 C53.8683333,5.83666667 53.7116667,6.16333333 53.475,6.41 C53.2383333,6.6566667 52.8966667,6.78 52.45,6.78 Z M57.85,7.61 L57.85,0.38 L55.97,0.38 L55.97,1.21 L56.93,1.21 L56.93,7.61 L57.85,7.61 Z M62.01,7.63 C62.5566667,7.63 63.015,7.52 63.385,7.3 C63.755,7.08 64.03,6.78 64.21,6.4 C64.39,6.02 64.48,5.59 64.48,5.11 C64.48,4.70333333 64.405,4.31833333 64.255,3.955 C64.105,3.59166667 63.8566667,3.295 63.51,3.065 C63.1633333,2.835 62.7133333,2.72 62.16,2.72 C61.8133333,2.72 61.49,2.78833333 61.19,2.925 C60.89,3.06166667 60.6633333,3.23666667 60.51,3.45 L60.51,3.45 L60.51,1.17 L64.02,1.17 L64.02,0.37 L59.67,0.37 L59.67,4.45 L60.53,4.45 C60.65,4.15666667 60.8416667,3.925 61.105,3.755 C61.3683333,3.585 61.6766667,3.5 62.03,3.5 C62.55,3.5 62.9433333,3.64166667 63.21,3.925 C63.4766667,4.20833333 63.61,4.61 63.61,5.13 C63.61,5.65 63.4766667,6.06833333 63.21,6.385 C62.9433333,6.7016667 62.5466667,6.86 62.02,6.86 C61.5933333,6.86 61.24,6.7533333 60.96,6.54 C60.68,6.32666667 60.4966667,6.03 60.41,5.65 L60.41,5.65 L59.52,5.65 C59.6133333,6.25 59.8766667,6.73 60.31,7.09 C60.7433333,7.45 61.31,7.63 62.01,7.63 Z M72.31,4.33 L72.31,3.56 L68.32,3.56 L68.32,4.33 L72.31,4.33 Z M81.24,7.53 L81.24,6.77 L77.8,6.77 C78.4533333,6.24333333 78.99,5.78166667 79.41,5.385 C79.83,4.98833333 80.205,4.52833333 80.535,4.005 C80.865,3.48166667 81.03,2.94333333 81.03,2.39 C81.03,1.72333333 80.8283333,1.2 80.425,0.82 C80.0216667,0.44 79.4766667,0.25 78.79,0.25 C78.1166667,0.25 77.5666667,0.45333333 77.14,0.86 C76.7133333,1.26666667 76.4866667,1.84333333 76.46,2.59 L76.46,2.59 L77.34,2.59 C77.36,2.11666667 77.495,1.73833333 77.745,1.455 C77.995,1.17166667 78.3466667,1.03 78.8,1.03 C79.2666667,1.03 79.605,1.155 79.815,1.405 C80.025,1.655 80.13,1.99666667 80.13,2.43 C80.13,2.89 79.965,3.35833333 79.635,3.835 C79.305,4.31166667 78.9,4.76833333 78.42,5.205 C77.94,5.64166667 77.2766667,6.2 76.43,6.88 L76.43,6.88 L76.43,7.53 L81.24,7.53 Z M84.81,7.61 C85.7366667,7.61 86.3866667,7.2866667 86.76,6.64 C87.1333333,5.99333333 87.32,5.08666667 87.32,3.92 C87.32,2.77333333 87.1333333,1.87833333 86.76,1.235 C86.3866667,0.59166667 85.7366667,0.27 84.81,0.27 C83.8766667,0.27 83.2233333,0.59166667 82.85,1.235 C82.4766667,1.87833333 82.29,2.77333333 82.29,3.92 C82.29,5.08666667 82.4766667,5.99333333 82.85,6.64 C83.2233333,7.2866667 83.8766667,7.61 84.81,7.61 Z M84.81,6.78 C84.3566667,6.78 84.0116667,6.6566667 83.775,6.41 C83.5383333,6.16333333 83.3816667,5.83666667 83.305,5.43 C83.2283333,5.02333333 83.19,4.52 83.19,3.92 C83.19,3.34 83.2283333,2.84833333 83.305,2.445 C83.3816667,2.04166667 83.5383333,1.71666667 83.775,1.47 C84.0116667,1.22333333 84.3566667,1.1 84.81,1.1 C85.2566667,1.1 85.5983333,1.22333333 85.835,1.47 C86.0716667,1.71666667 86.2283333,2.04166667 86.305,2.445 C86.3816667,2.84833333 86.42,3.34 86.42,3.92 C86.42,4.52 86.3816667,5.02333333 86.305,5.43 C86.2283333,5.83666667 86.0716667,6.16333333 85.835,6.41 C85.5983333,6.6566667 85.2566667,6.78 84.81,6.78 Z M93.27,7.53 L93.27,6.77 L89.83,6.77 C90.4833333,6.24333333 91.02,5.78166667 91.44,5.385 C91.86,4.98833333 92.235,4.52833333 92.565,4.005 C92.895,3.48166667 93.06,2.94333333 93.06,2.39 C93.06,1.72333333 92.8583333,1.2 92.455,0.82 C92.0516667,0.44 91.5066667,0.25 90.82,0.25 C90.1466667,0.25 89.5966667,0.45333333 89.17,0.86 C88.7433333,1.26666667 88.5166667,1.84333333 88.49,2.59 L88.49,2.59 L89.37,2.59 C89.39,2.11666667 89.525,1.73833333 89.775,1.455 C90.025,1.17166667 90.3766667,1.03 90.83,1.03 C91.2966667,1.03 91.635,1.155 91.845,1.405 C92.055,1.655 92.16,1.99666667 92.16,2.43 C92.16,2.89 91.995,3.35833333 91.665,3.835 C91.335,4.31166667 90.93,4.76833333 90.45,5.205 C89.97,5.64166667 89.3066667,6.2 88.46,6.88 L88.46,6.88 L88.46,7.53 L93.27,7.53 Z M99.02,7.53 L99.02,6.77 L95.58,6.77 C96.2333333,6.24333333 96.77,5.78166667 97.19,5.385 C97.61,4.98833333 97.985,4.52833333 98.315,4.005 C98.645,3.48166667 98.81,2.94333333 98.81,2.39 C98.81,1.72333333 98.6083333,1.2 98.205,0.82 C97.8016667,0.44 97.2566667,0.25 96.57,0.25 C95.8966667,0.25 95.3466667,0.45333333 94.92,0.86 C94.4933333,1.26666667 94.2666667,1.84333333 94.24,2.59 L94.24,2.59 L95.12,2.59 C95.14,2.11666667 95.275,1.73833333 95.525,1.455 C95.775,1.17166667 96.1266667,1.03 96.58,1.03 C97.0466667,1.03 97.385,1.155 97.595,1.405 C97.805,1.655 97.91,1.99666667 97.91,2.43 C97.91,2.89 97.745,3.35833333 97.415,3.835 C97.085,4.31166667 96.68,4.76833333 96.2,5.205 C95.72,5.64166667 95.0566667,6.2 94.21,6.88 L94.21,6.88 L94.21,7.53 L99.02,7.53 Z M103.41,7.61 L103.97,6.06 L107.01,6.06 L107.57,7.61 L108.53,7.61 L106.02,0.68 L104.97,0.68 L102.45,7.61 L103.41,7.61 Z M106.75,5.32 L104.23,5.32 L105.49,1.8 L106.75,5.32 Z M110.54,7.61 L110.54,4.7 L111.88,4.7 C112.693333,4.7 113.298333,4.50833333 113.695,4.125 C114.091667,3.74166667 114.29,3.26 114.29,2.68 C114.29,2.08 114.085,1.59 113.675,1.21 C113.265,0.83 112.666667,0.64 111.88,0.64 L111.88,0.64 L109.63,0.64 L109.63,7.61 L110.54,7.61 Z M111.88,3.95 L110.54,3.95 L110.54,1.39 L111.88,1.39 C112.866667,1.39 113.36,1.82 113.36,2.68 C113.36,3.08666667 113.24,3.4 113,3.62 C112.76,3.84 112.386667,3.95 111.88,3.95 L111.88,3.95 Z M116.33,7.61 L116.33,4.76 L117.43,4.76 L119.09,7.61 L120.18,7.61 L118.43,4.69 C118.983333,4.57 119.398333,4.32666667 119.675,3.96 C119.951667,3.59333333 120.09,3.17 120.09,2.69 C120.09,2.29666667 120,1.94666667 119.82,1.64 C119.64,1.33333333 119.368333,1.09 119.005,0.91 C118.641667,0.73 118.196667,0.64 117.67,0.64 L117.67,0.64 L115.42,0.64 L115.42,7.61 L116.33,7.61 Z M117.67,4.03 L116.33,4.03 L116.33,1.39 L117.67,1.39 C118.17,1.39 118.541667,1.50333333 118.785,1.73 C119.028333,1.95666667 119.15,2.27666667 119.15,2.69 C119.15,3.09666667 119.026667,3.42166667 118.78,3.665 C118.533333,3.90833333 118.163333,4.03 117.67,4.03 L117.67,4.03 Z M122.41,7.61 L122.41,0.64 L121.5,0.64 L121.5,7.61 L122.41,7.61 Z M127.31,7.61 L127.31,6.87 L124.87,6.87 L124.87,0.64 L123.96,0.64 L123.96,7.61 L127.31,7.61 Z M133.33,7.81 C133.836667,7.81 134.285,7.7216667 134.675,7.545 C135.065,7.3683333 135.366667,7.1183333 135.58,6.795 C135.793333,6.47166667 135.9,6.09333333 135.9,5.66 C135.9,5.21333333 135.778333,4.83166667 135.535,4.515 C135.291667,4.19833333 134.963333,3.97666667 134.55,3.85 C134.91,3.71 135.193333,3.495 135.4,3.205 C135.606667,2.915 135.71,2.57666667 135.71,2.19 C135.71,1.83 135.618333,1.505 135.435,1.215 C135.251667,0.925 134.981667,0.695 134.625,0.525 C134.268333,0.355 133.836667,0.27 133.33,0.27 C132.823333,0.27 132.391667,0.355 132.035,0.525 C131.678333,0.695 131.41,0.925 131.23,1.215 C131.05,1.505 130.96,1.83 130.96,2.19 C130.96,2.59 131.06,2.93 131.26,3.21 C131.46,3.49 131.746667,3.70333333 132.12,3.85 C131.706667,3.97 131.38,4.19 131.14,4.51 C130.9,4.83 130.78,5.21333333 130.78,5.66 C130.78,6.09333333 130.886667,6.47166667 131.1,6.795 C131.313333,7.1183333 131.611667,7.3683333 131.995,7.545 C132.378333,7.7216667 132.823333,7.81 133.33,7.81 Z M133.33,3.55 C132.89,3.55 132.531667,3.43666667 132.255,3.21 C131.978333,2.98333333 131.84,2.68333333 131.84,2.31 C131.84,1.89666667 131.973333,1.58 132.24,1.36 C132.506667,1.14 132.87,1.03 133.33,1.03 C133.796667,1.03 134.163333,1.14 134.43,1.36 C134.696667,1.58 134.83,1.89333333 134.83,2.3 C134.83,2.67333333 134.691667,2.975 134.415,3.205 C134.138333,3.435 133.776667,3.55 133.33,3.55 Z M133.33,7.05 C132.816667,7.05 132.408333,6.92 132.105,6.66 C131.801667,6.4 131.65,6.05666667 131.65,5.63 C131.65,5.17 131.806667,4.825 132.12,4.595 C132.433333,4.365 132.836667,4.25 133.33,4.25 C133.83,4.25 134.233333,4.36833333 134.54,4.605 C134.846667,4.84166667 135,5.18333333 135,5.63 C135,6.05666667 134.85,6.4 134.55,6.66 C134.25,6.92 133.843333,7.05 133.33,7.05 Z M139.65,7.61 L139.65,1.38 L141.55,1.38 L141.55,0.64 L136.83,0.64 L136.83,1.38 L138.74,1.38 L138.74,7.61 L139.65,7.61 Z M143.58,7.61 L143.58,4.45 L147.13,4.45 L147.13,7.61 L148.04,7.61 L148.04,0.64 L147.13,0.64 L147.13,3.7 L143.58,3.7 L143.58,0.64 L142.67,0.64 L142.67,7.61 L143.58,7.61 Z" id="path-2"></path>
                </g>
            </g>
            <g id="资源-339">
                <path d="M62.6649615,13.0602918 L62.6649615,13.0602918 L62.6423819,13.0961535 C62.2964875,13.6346199 61.8270052,14.0826999 61.2729971,14.4031124 C60.7090692,14.7494186 60.0619403,14.9366729 59.4002206,14.9450222 C58.3084318,14.9450222 57.3534486,14.5093692 56.5644917,13.6513454 C55.7979057,12.8083775 55.3908892,11.6993289 55.4302001,10.5606 C55.4347406,9.47025911 55.8535059,8.42239633 56.6016815,7.62923991 C57.362746,6.81371879 58.2778829,6.40064539 59.3258409,6.40064539 C60.7576515,6.3886915 61.8388147,6.97974508 62.6290998,8.20966781 L62.6530076,8.24552949 L62.674259,8.24552949 L63.6040062,7.66908622 C63.2166068,7.01806799 62.6911281,6.45994514 62.0646105,6.03405935 C61.275076,5.50692528 60.346898,5.22588335 59.3975642,5.22650749 C58.0477311,5.19471213 56.7499922,5.74770383 55.8379606,6.74332365 C54.8457875,7.76471736 54.3437241,9.06636345 54.3437241,10.6124002 C54.3206967,12.0476086 54.8504672,13.4367107 55.8233503,14.4921025 C56.8022413,15.5546707 57.9870049,16.0859548 59.3484204,16.0859548 L59.3988924,16.0859548 C61.1866635,16.0487649 62.6609769,15.1827718 63.6000216,13.6327504 L62.6649615,13.0602918 Z" id="路径" fill="#FFFFFF" fill-rule="nonzero"></path>
                <polygon id="路径" fill="#FFFFFF" fill-rule="nonzero" points="69.622127 5.36198494 68.3576708 5.36198494 63.65315 15.8893797 65.1553558 15.8893797 66.6084179 12.3908738 66.6110743 12.3908738 67.1237635 11.2964285 67.1224353 11.2964285 69.0151349 6.8535651 70.8706447 11.2964285 68.2075831 11.2964285 67.7214581 12.3908738 71.3036413 12.3908738 72.7699854 15.8893797 74.0942111 15.8893797"></polygon>
                <path d="M80.9743404,6.32493741 C80.2757018,5.69403752 79.3964266,5.37526705 78.3617507,5.37526705 L74.9548913,5.37526705 L74.9548913,15.8893797 L76.196768,15.8893797 L76.196768,11.7719278 L76.196768,11.7719278 L76.196768,10.6642004 L76.196768,10.6642004 L76.196768,6.50823043 L78.4162074,6.50823043 C79.0053116,6.49592597 79.5792999,6.69526673 80.0339675,7.07006338 C80.4789394,7.39793266 80.749899,7.91099527 80.769796,8.46335597 C80.8285236,9.07488553 80.5796587,9.67564542 80.1056909,10.0665058 C79.6604029,10.4675964 79.0776743,10.68166 78.4786332,10.6642004 L77.1929257,10.6642004 L77.1929257,11.7719278 L78.6805212,11.7719278 C79.5386098,11.7886545 80.36997,11.4731469 81.0009046,10.8913244 C81.6347517,10.3418696 81.9983305,9.54393541 81.9970623,8.70509025 C82.0373924,7.79717814 81.6607318,6.92058637 80.9743404,6.32493741 Z" id="路径" fill="#FFFFFF" fill-rule="nonzero"></path>
                <rect id="矩形" fill="#FFFFFF" fill-rule="nonzero" x="34.7473094" y="5.56918575" width="1.24054841" height="1.24054841"></rect>
                <rect id="矩形" fill="#FFFFFF" fill-rule="nonzero" x="34.7473094" y="8.34912989" width="1.24054841" height="7.55618834"></rect>
                <path d="M53.4405411,15.1495666 L53.4405411,11.9047488 C53.4679828,10.8042421 53.0232357,9.74458379 52.2185876,8.99331188 C51.4684416,8.2188994 50.4333465,7.78628276 49.3552334,7.79657681 C48.2771204,7.80687085 47.2504747,8.25917342 46.5152526,9.0477685 C45.7784686,9.80938446 45.373472,10.8319052 45.3889303,11.8914667 C45.3785583,13.0003501 45.8196791,14.0657526 46.6108837,14.84275 C47.3680551,15.6346421 48.4304534,16.0607636 49.5249771,16.0115751 C50.5670606,15.9872085 51.5553324,15.5438269 52.2664032,14.7816523 L52.2664032,15.2956697 M52.2664032,15.2956697 C52.2675407,15.9796677 51.9725531,16.6306748 51.4575231,17.0807843 C50.9508455,17.5756363 50.2704039,17.8521998 49.562167,17.8511463 C48.9528311,17.8541698 48.3594926,17.6562347 47.8740117,17.2879851 C47.4861508,17.0254759 47.1771262,16.6622687 46.9801262,16.2373708 L46.0291276,16.7859217 C46.2703786,17.2508737 46.6087439,17.6585427 47.0213007,17.9813109 C47.7146804,18.5174546 48.562318,18.8159907 49.4386434,18.8327139 C49.4970847,18.8327139 49.5568542,18.8327139 49.6152954,18.8327139 C50.5617468,18.8356719 51.479758,18.50932 52.2119465,17.9095876 C53.0274677,17.2600927 53.4405411,16.4273049 53.4405411,15.43646 L53.4405411,15.1415973 M52.2451518,11.975144 C52.2387761,12.7344421 51.9361443,13.4612349 51.4017383,14.0006647 C50.9040765,14.5470425 50.1948164,14.8520486 49.4559102,14.8374372 C48.6972639,14.8508312 47.9674382,14.5470581 47.4423434,13.9993365 C46.8899587,13.4686824 46.5777202,12.7358093 46.5776785,11.9698311 C46.5549235,11.2070101 46.8380242,10.4667401 47.363979,9.91376161 C47.8548837,9.34337188 48.5605225,9.00233714 49.3124635,8.97206051 C49.3629355,8.97206051 49.4120792,8.97206051 49.4625512,8.97206051 C50.2027489,8.96215313 50.9106122,9.27487355 51.4017383,9.82875615 C51.9731199,10.3960907 52.2776144,11.1788008 52.2398389,11.9831132 L52.2451518,11.975144 Z" id="形状" fill="#FFFFFF" fill-rule="nonzero"></path>
                <path d="M32.5411521,6.32493741 C31.8425135,5.69403752 30.9632383,5.37526705 29.9285625,5.37526705 L26.5190467,5.37526705 L26.5190467,15.8893797 L27.7595951,15.8893797 L27.7595951,11.7719278 L27.7595951,11.7719278 L27.7595951,10.6642004 L27.7595951,10.6642004 L27.7595951,6.50823043 L29.9790345,6.50823043 C30.5681387,6.49592597 31.142127,6.69526673 31.5967946,7.07006338 C32.0417665,7.39793266 32.3127261,7.91099527 32.3326231,8.46335597 C32.3913507,9.07488553 32.1424858,9.67564542 31.668518,10.0665058 C31.22323,10.4675964 30.6405014,10.68166 30.0414604,10.6642004 L28.7557528,10.6642004 L28.7557528,11.7719278 L30.2433483,11.7719278 C31.102013,11.7896926 31.9341619,11.4740664 32.5650599,10.8913244 C33.1989071,10.3418696 33.5624858,9.54393541 33.5612176,8.70509025 C33.6022075,7.79761625 33.2265574,6.9210992 32.5411521,6.32493741 Z" id="路径" fill="#FFFFFF" fill-rule="nonzero"></path>
                <path d="M40.8623896,7.88691271 C39.9284243,7.86333925 39.0268964,8.23011141 38.3746517,8.89900895 C37.7177987,9.5722241 37.3609341,10.4823485 37.3851351,11.4226085 L37.3851351,15.8654719 L38.5805243,15.8654719 L38.5805243,11.3243209 C38.5711895,10.7182893 38.8158581,10.1359973 39.2552551,9.7185147 C39.6749161,9.28243971 40.2558862,9.03880709 40.8610614,9.04511208 C41.4579675,9.03950613 42.0300472,9.28365122 42.4389752,9.7185147 C42.8820437,10.1345349 43.1314179,10.7165686 43.1269881,11.3243209 L43.1269881,15.8747694 L44.3223774,15.8747694 L44.3223774,11.431906 C44.3465783,10.491646 43.9897138,9.58152157 43.3328607,8.90830642 C42.6874416,8.23880863 41.792153,7.86865974 40.8623896,7.88691271 L40.8623896,7.88691271 Z" id="路径" fill="#FFFFFF" fill-rule="nonzero"></path>
                <rect id="矩形" fill="#FFFFFF" fill-rule="nonzero" x="0" y="0" width="21.2513647" height="21.2513647" rx="2"></rect>
                <rect id="矩形" x="2.65642058" y="2.65642058" width="15.9385235" height="15.9385235"></rect>
                <path d="M12.2195347,6.3754094 L5.2145536,4.4016889 C4.98625309,4.33640092 4.74055732,4.38160894 4.55044846,4.52388425 C4.36148888,4.66323563 4.25005231,4.88413643 4.25027217,5.11892246 L4.25027217,17.8484899 C4.24994468,18.0779542 4.35649152,18.2944849 4.53849456,18.4342306 C4.67160459,18.5383291 4.83571483,18.5949461 5.00469638,18.5949461 C5.0642263,18.5949461 5.1235502,18.5879478 5.18134834,18.5736927 L12.1876576,16.9280402 L12.1876576,16.9280402 C12.5260876,16.8513412 12.766771,16.5511754 12.7680855,16.2041655 L12.7680855,7.08865832 C12.7634111,6.75564765 12.5401885,6.46540424 12.2195347,6.3754094 L12.2195347,6.3754094 Z" id="路径" fill="#172D72" fill-rule="nonzero"></path>
                <path d="M16.990466,5.91983327 C16.9880172,5.58590194 16.7648302,5.29391704 16.4432434,5.20392792 L7.52696772,2.68032837 C7.29887262,2.61466474 7.05319608,2.65937787 6.86286257,2.8011955 C6.67335662,2.94068159 6.56182839,3.16225757 6.56268213,3.39756192 L6.56268213,13.06162 C6.5623588,13.2910843 6.66890563,13.507615 6.85090868,13.6473607 C6.98332304,13.7533649 7.14749908,13.8118322 7.31711049,13.8133891 C7.3770785,13.8135298 7.43684218,13.8063938 7.49509067,13.7921357 L16.421992,11.6669992 C16.7603773,11.5896575 17.0005368,11.2889073 17.0010917,10.9417964 L16.990466,5.91983327 Z" id="路径" fill="#00AEEF" fill-rule="nonzero"></path>
                <path d="M12.2195347,6.3754094 L6.56268629,4.78155705 L6.56268629,13.06162 C6.5623588,13.2910843 6.66890563,13.507615 6.85090868,13.6473607 C6.98332304,13.7533649 7.14749908,13.8118322 7.31711049,13.8133891 C7.3770785,13.8135298 7.43684218,13.8063938 7.49509067,13.7921357 L12.7680855,12.5409616 L12.7680855,7.09529937 C12.7663485,6.75981837 12.5425317,6.46609268 12.2195347,6.3754094 L12.2195347,6.3754094 Z" id="路径" fill="#3D3FEA" fill-rule="nonzero"></path>
            </g>
        </g>
    </g>
</svg>